ISO-10303-21;
HEADER;
/* Generated by software containing ST-Developer
 * from STEP Tools, Inc. (www.steptools.com) 
 */

FILE_DESCRIPTION(
/* description */ (''),
/* implementation_level */ '2;1');

FILE_NAME(
/* name */ 
'C:/Users/max/Desktop/extra files/lab objects/cabinet 3/Step file/cabi
net 3.stp',
/* time_stamp */ '2025-12-06T04:12:26+00:00',
/* author */ (''),
/* organization */ (''),
/* preprocessor_version */ 'ST-DEVELOPER v15.2',
/* originating_system */ 'Autodesk Translator Framework v2.0.0.5431',
/* authorisation */ '');

FILE_SCHEMA (('AUTOMOTIVE_DESIGN { 1 0 10303 214 3 1 1 }'));
ENDSEC;

DATA;
#10=FACE_BOUND($,#95,.T.);
#11=FACE_BOUND($,#96,.T.);
#12=FACE_BOUND($,#97,.T.);
#13=FACE_BOUND($,#111,.T.);
#14=FACE_BOUND($,#112,.T.);
#15=FACE_BOUND($,#113,.T.);
#16=SHAPE_REPRESENTATION_RELATIONSHIP('SRR','None',#1465,#17);
#17=ADVANCED_BREP_SHAPE_REPRESENTATION($,(#920,#921,#922,#923,#924,#925),
#1459);
#18=STYLED_ITEM($,(#1473),#920);
#19=STYLED_ITEM($,(#1474),#921);
#20=STYLED_ITEM($,(#1475),#922);
#21=STYLED_ITEM($,(#1475),#923);
#22=STYLED_ITEM($,(#1474),#924);
#23=STYLED_ITEM($,(#1474),#925);
#24=FACE_OUTER_BOUND($,#74,.T.);
#25=FACE_OUTER_BOUND($,#75,.T.);
#26=FACE_OUTER_BOUND($,#76,.T.);
#27=FACE_OUTER_BOUND($,#77,.T.);
#28=FACE_OUTER_BOUND($,#78,.T.);
#29=FACE_OUTER_BOUND($,#79,.T.);
#30=FACE_OUTER_BOUND($,#80,.T.);
#31=FACE_OUTER_BOUND($,#81,.T.);
#32=FACE_OUTER_BOUND($,#82,.T.);
#33=FACE_OUTER_BOUND($,#83,.T.);
#34=FACE_OUTER_BOUND($,#84,.T.);
#35=FACE_OUTER_BOUND($,#85,.T.);
#36=FACE_OUTER_BOUND($,#86,.T.);
#37=FACE_OUTER_BOUND($,#87,.T.);
#38=FACE_OUTER_BOUND($,#88,.T.);
#39=FACE_OUTER_BOUND($,#89,.T.);
#40=FACE_OUTER_BOUND($,#90,.T.);
#41=FACE_OUTER_BOUND($,#91,.T.);
#42=FACE_OUTER_BOUND($,#92,.T.);
#43=FACE_OUTER_BOUND($,#93,.T.);
#44=FACE_OUTER_BOUND($,#94,.T.);
#45=FACE_OUTER_BOUND($,#98,.T.);
#46=FACE_OUTER_BOUND($,#99,.T.);
#47=FACE_OUTER_BOUND($,#100,.T.);
#48=FACE_OUTER_BOUND($,#101,.T.);
#49=FACE_OUTER_BOUND($,#102,.T.);
#50=FACE_OUTER_BOUND($,#103,.T.);
#51=FACE_OUTER_BOUND($,#104,.T.);
#52=FACE_OUTER_BOUND($,#105,.T.);
#53=FACE_OUTER_BOUND($,#106,.T.);
#54=FACE_OUTER_BOUND($,#107,.T.);
#55=FACE_OUTER_BOUND($,#108,.T.);
#56=FACE_OUTER_BOUND($,#109,.T.);
#57=FACE_OUTER_BOUND($,#110,.T.);
#58=FACE_OUTER_BOUND($,#114,.T.);
#59=FACE_OUTER_BOUND($,#115,.T.);
#60=FACE_OUTER_BOUND($,#116,.T.);
#61=FACE_OUTER_BOUND($,#117,.T.);
#62=FACE_OUTER_BOUND($,#118,.T.);
#63=FACE_OUTER_BOUND($,#119,.T.);
#64=FACE_OUTER_BOUND($,#120,.T.);
#65=FACE_OUTER_BOUND($,#121,.T.);
#66=FACE_OUTER_BOUND($,#122,.T.);
#67=FACE_OUTER_BOUND($,#123,.T.);
#68=FACE_OUTER_BOUND($,#124,.T.);
#69=FACE_OUTER_BOUND($,#125,.T.);
#70=FACE_OUTER_BOUND($,#126,.T.);
#71=FACE_OUTER_BOUND($,#127,.T.);
#72=FACE_OUTER_BOUND($,#128,.T.);
#73=FACE_OUTER_BOUND($,#129,.T.);
#74=EDGE_LOOP($,(#570,#571,#572,#573));
#75=EDGE_LOOP($,(#574,#575,#576,#577));
#76=EDGE_LOOP($,(#578,#579,#580,#581));
#77=EDGE_LOOP($,(#582,#583,#584,#585));
#78=EDGE_LOOP($,(#586,#587,#588,#589));
#79=EDGE_LOOP($,(#590,#591,#592,#593));
#80=EDGE_LOOP($,(#594,#595,#596,#597));
#81=EDGE_LOOP($,(#598,#599,#600,#601));
#82=EDGE_LOOP($,(#602,#603,#604,#605));
#83=EDGE_LOOP($,(#606,#607,#608,#609));
#84=EDGE_LOOP($,(#610,#611,#612,#613));
#85=EDGE_LOOP($,(#614,#615,#616,#617));
#86=EDGE_LOOP($,(#618,#619,#620,#621));
#87=EDGE_LOOP($,(#622,#623,#624,#625));
#88=EDGE_LOOP($,(#626,#627,#628,#629));
#89=EDGE_LOOP($,(#630,#631,#632,#633));
#90=EDGE_LOOP($,(#634,#635,#636,#637));
#91=EDGE_LOOP($,(#638,#639,#640,#641,#642,#643,#644,#645));
#92=EDGE_LOOP($,(#646,#647,#648,#649));
#93=EDGE_LOOP($,(#650,#651,#652,#653,#654,#655,#656,#657));
#94=EDGE_LOOP($,(#658,#659,#660,#661));
#95=EDGE_LOOP($,(#662,#663,#664,#665));
#96=EDGE_LOOP($,(#666,#667,#668,#669));
#97=EDGE_LOOP($,(#670,#671,#672,#673));
#98=EDGE_LOOP($,(#674,#675,#676,#677));
#99=EDGE_LOOP($,(#678,#679,#680,#681));
#100=EDGE_LOOP($,(#682,#683,#684,#685));
#101=EDGE_LOOP($,(#686,#687,#688,#689));
#102=EDGE_LOOP($,(#690,#691,#692,#693));
#103=EDGE_LOOP($,(#694,#695,#696,#697));
#104=EDGE_LOOP($,(#698,#699,#700,#701));
#105=EDGE_LOOP($,(#702,#703,#704,#705));
#106=EDGE_LOOP($,(#706,#707,#708,#709));
#107=EDGE_LOOP($,(#710,#711,#712,#713,#714,#715,#716,#717));
#108=EDGE_LOOP($,(#718,#719,#720,#721));
#109=EDGE_LOOP($,(#722,#723,#724,#725,#726,#727,#728,#729));
#110=EDGE_LOOP($,(#730,#731,#732,#733));
#111=EDGE_LOOP($,(#734,#735,#736,#737));
#112=EDGE_LOOP($,(#738,#739,#740,#741));
#113=EDGE_LOOP($,(#742,#743,#744,#745));
#114=EDGE_LOOP($,(#746,#747,#748,#749));
#115=EDGE_LOOP($,(#750,#751,#752,#753));
#116=EDGE_LOOP($,(#754,#755,#756,#757));
#117=EDGE_LOOP($,(#758,#759,#760,#761));
#118=EDGE_LOOP($,(#762,#763,#764,#765));
#119=EDGE_LOOP($,(#766,#767,#768,#769));
#120=EDGE_LOOP($,(#770,#771,#772,#773));
#121=EDGE_LOOP($,(#774,#775,#776,#777));
#122=EDGE_LOOP($,(#778,#779,#780,#781));
#123=EDGE_LOOP($,(#782,#783,#784,#785));
#124=EDGE_LOOP($,(#786,#787,#788,#789));
#125=EDGE_LOOP($,(#790,#791,#792,#793));
#126=EDGE_LOOP($,(#794,#795,#796,#797));
#127=EDGE_LOOP($,(#798,#799,#800,#801));
#128=EDGE_LOOP($,(#802,#803,#804,#805));
#129=EDGE_LOOP($,(#806,#807,#808,#809));
#130=LINE($,#1209,#250);
#131=LINE($,#1211,#251);
#132=LINE($,#1213,#252);
#133=LINE($,#1214,#253);
#134=LINE($,#1218,#254);
#135=LINE($,#1220,#255);
#136=LINE($,#1222,#256);
#137=LINE($,#1223,#257);
#138=LINE($,#1225,#258);
#139=LINE($,#1226,#259);
#140=LINE($,#1228,#260);
#141=LINE($,#1230,#261);
#142=LINE($,#1235,#262);
#143=LINE($,#1237,#263);
#144=LINE($,#1239,#264);
#145=LINE($,#1240,#265);
#146=LINE($,#1243,#266);
#147=LINE($,#1245,#267);
#148=LINE($,#1246,#268);
#149=LINE($,#1249,#269);
#150=LINE($,#1251,#270);
#151=LINE($,#1252,#271);
#152=LINE($,#1254,#272);
#153=LINE($,#1255,#273);
#154=LINE($,#1261,#274);
#155=LINE($,#1263,#275);
#156=LINE($,#1265,#276);
#157=LINE($,#1266,#277);
#158=LINE($,#1270,#278);
#159=LINE($,#1272,#279);
#160=LINE($,#1274,#280);
#161=LINE($,#1275,#281);
#162=LINE($,#1278,#282);
#163=LINE($,#1280,#283);
#164=LINE($,#1281,#284);
#165=LINE($,#1285,#285);
#166=LINE($,#1287,#286);
#167=LINE($,#1289,#287);
#168=LINE($,#1290,#288);
#169=LINE($,#1293,#289);
#170=LINE($,#1295,#290);
#171=LINE($,#1296,#291);
#172=LINE($,#1299,#292);
#173=LINE($,#1301,#293);
#174=LINE($,#1302,#294);
#175=LINE($,#1303,#295);
#176=LINE($,#1306,#296);
#177=LINE($,#1307,#297);
#178=LINE($,#1310,#298);
#179=LINE($,#1311,#299);
#180=LINE($,#1312,#300);
#181=LINE($,#1314,#301);
#182=LINE($,#1318,#302);
#183=LINE($,#1320,#303);
#184=LINE($,#1322,#304);
#185=LINE($,#1323,#305);
#186=LINE($,#1325,#306);
#187=LINE($,#1326,#307);
#188=LINE($,#1328,#308);
#189=LINE($,#1330,#309);
#190=LINE($,#1335,#310);
#191=LINE($,#1337,#311);
#192=LINE($,#1339,#312);
#193=LINE($,#1340,#313);
#194=LINE($,#1344,#314);
#195=LINE($,#1346,#315);
#196=LINE($,#1348,#316);
#197=LINE($,#1349,#317);
#198=LINE($,#1352,#318);
#199=LINE($,#1354,#319);
#200=LINE($,#1355,#320);
#201=LINE($,#1359,#321);
#202=LINE($,#1361,#322);
#203=LINE($,#1363,#323);
#204=LINE($,#1364,#324);
#205=LINE($,#1367,#325);
#206=LINE($,#1369,#326);
#207=LINE($,#1370,#327);
#208=LINE($,#1373,#328);
#209=LINE($,#1375,#329);
#210=LINE($,#1376,#330);
#211=LINE($,#1377,#331);
#212=LINE($,#1380,#332);
#213=LINE($,#1381,#333);
#214=LINE($,#1384,#334);
#215=LINE($,#1385,#335);
#216=LINE($,#1386,#336);
#217=LINE($,#1388,#337);
#218=LINE($,#1392,#338);
#219=LINE($,#1394,#339);
#220=LINE($,#1396,#340);
#221=LINE($,#1397,#341);
#222=LINE($,#1399,#342);
#223=LINE($,#1400,#343);
#224=LINE($,#1402,#344);
#225=LINE($,#1404,#345);
#226=LINE($,#1409,#346);
#227=LINE($,#1411,#347);
#228=LINE($,#1413,#348);
#229=LINE($,#1414,#349);
#230=LINE($,#1417,#350);
#231=LINE($,#1419,#351);
#232=LINE($,#1420,#352);
#233=LINE($,#1423,#353);
#234=LINE($,#1425,#354);
#235=LINE($,#1426,#355);
#236=LINE($,#1428,#356);
#237=LINE($,#1429,#357);
#238=LINE($,#1435,#358);
#239=LINE($,#1437,#359);
#240=LINE($,#1439,#360);
#241=LINE($,#1440,#361);
#242=LINE($,#1443,#362);
#243=LINE($,#1445,#363);
#244=LINE($,#1446,#364);
#245=LINE($,#1449,#365);
#246=LINE($,#1451,#366);
#247=LINE($,#1452,#367);
#248=LINE($,#1454,#368);
#249=LINE($,#1455,#369);
#250=VECTOR($,#983,0.225);
#251=VECTOR($,#984,0.300000000000001);
#252=VECTOR($,#985,0.225);
#253=VECTOR($,#986,0.300000000000001);
#254=VECTOR($,#989,0.225);
#255=VECTOR($,#990,0.300000000000001);
#256=VECTOR($,#991,0.225);
#257=VECTOR($,#992,0.300000000000001);
#258=VECTOR($,#995,0.0100000000000016);
#259=VECTOR($,#996,0.0100000000000016);
#260=VECTOR($,#999,0.0100000000000016);
#261=VECTOR($,#1002,0.0100000000000016);
#262=VECTOR($,#1007,0.54);
#263=VECTOR($,#1008,1.44);
#264=VECTOR($,#1009,0.54);
#265=VECTOR($,#1010,1.44);
#266=VECTOR($,#1013,0.539999999999996);
#267=VECTOR($,#1014,0.539999999999995);
#268=VECTOR($,#1015,1.44);
#269=VECTOR($,#1018,0.54);
#270=VECTOR($,#1019,0.54);
#271=VECTOR($,#1020,1.44);
#272=VECTOR($,#1023,0.539999999999996);
#273=VECTOR($,#1024,0.539999999999996);
#274=VECTOR($,#1031,0.0972000000000004);
#275=VECTOR($,#1032,0.161999999999999);
#276=VECTOR($,#1033,0.0972000000000004);
#277=VECTOR($,#1034,0.161999999999999);
#278=VECTOR($,#1037,0.0999999999999996);
#279=VECTOR($,#1038,0.0199999999999996);
#280=VECTOR($,#1039,0.0999999999999996);
#281=VECTOR($,#1040,0.0199999999999996);
#282=VECTOR($,#1043,0.0400000000000009);
#283=VECTOR($,#1044,0.0199999999999996);
#284=VECTOR($,#1045,0.0400000000000009);
#285=VECTOR($,#1048,0.0600000000000005);
#286=VECTOR($,#1049,0.0199999999999996);
#287=VECTOR($,#1050,0.0600000000000005);
#288=VECTOR($,#1051,0.0199999999999996);
#289=VECTOR($,#1054,0.139999999999999);
#290=VECTOR($,#1055,0.0199999999999996);
#291=VECTOR($,#1056,0.139999999999999);
#292=VECTOR($,#1059,0.0600000000000005);
#293=VECTOR($,#1060,0.0199999999999996);
#294=VECTOR($,#1061,0.0400000000000009);
#295=VECTOR($,#1062,0.0199999999999996);
#296=VECTOR($,#1065,0.0600000000000005);
#297=VECTOR($,#1066,0.0199999999999996);
#298=VECTOR($,#1069,0.0400000000000009);
#299=VECTOR($,#1070,0.0199999999999996);
#300=VECTOR($,#1071,0.0199999999999996);
#301=VECTOR($,#1074,0.0199999999999996);
#302=VECTOR($,#1077,0.161999999999999);
#303=VECTOR($,#1078,0.0972000000000004);
#304=VECTOR($,#1079,0.161999999999999);
#305=VECTOR($,#1080,0.0972000000000004);
#306=VECTOR($,#1083,0.0161999999999995);
#307=VECTOR($,#1084,0.0161999999999995);
#308=VECTOR($,#1087,0.0161999999999995);
#309=VECTOR($,#1090,0.0161999999999995);
#310=VECTOR($,#1095,0.0972000000000004);
#311=VECTOR($,#1096,0.161999999999999);
#312=VECTOR($,#1097,0.0972000000000004);
#313=VECTOR($,#1098,0.161999999999999);
#314=VECTOR($,#1101,0.0999999999999996);
#315=VECTOR($,#1102,0.0199999999999996);
#316=VECTOR($,#1103,0.0999999999999996);
#317=VECTOR($,#1104,0.0199999999999996);
#318=VECTOR($,#1107,0.0400000000000009);
#319=VECTOR($,#1108,0.0199999999999996);
#320=VECTOR($,#1109,0.0400000000000009);
#321=VECTOR($,#1112,0.0600000000000005);
#322=VECTOR($,#1113,0.0199999999999996);
#323=VECTOR($,#1114,0.0600000000000005);
#324=VECTOR($,#1115,0.0199999999999996);
#325=VECTOR($,#1118,0.139999999999999);
#326=VECTOR($,#1119,0.0199999999999996);
#327=VECTOR($,#1120,0.139999999999999);
#328=VECTOR($,#1123,0.0600000000000005);
#329=VECTOR($,#1124,0.0199999999999996);
#330=VECTOR($,#1125,0.0400000000000009);
#331=VECTOR($,#1126,0.0199999999999996);
#332=VECTOR($,#1129,0.0600000000000005);
#333=VECTOR($,#1130,0.0199999999999996);
#334=VECTOR($,#1133,0.0400000000000009);
#335=VECTOR($,#1134,0.0199999999999996);
#336=VECTOR($,#1135,0.0199999999999996);
#337=VECTOR($,#1138,0.0199999999999996);
#338=VECTOR($,#1141,0.161999999999999);
#339=VECTOR($,#1142,0.0972000000000004);
#340=VECTOR($,#1143,0.161999999999999);
#341=VECTOR($,#1144,0.0972000000000004);
#342=VECTOR($,#1147,0.0161999999999995);
#343=VECTOR($,#1148,0.0161999999999995);
#344=VECTOR($,#1151,0.0161999999999995);
#345=VECTOR($,#1154,0.0161999999999995);
#346=VECTOR($,#1159,0.54);
#347=VECTOR($,#1160,1.44);
#348=VECTOR($,#1161,0.54);
#349=VECTOR($,#1162,1.44);
#350=VECTOR($,#1165,0.539999999999996);
#351=VECTOR($,#1166,0.539999999999995);
#352=VECTOR($,#1167,1.44);
#353=VECTOR($,#1170,0.54);
#354=VECTOR($,#1171,0.54);
#355=VECTOR($,#1172,1.44);
#356=VECTOR($,#1175,0.539999999999996);
#357=VECTOR($,#1176,0.539999999999996);
#358=VECTOR($,#1183,1.2);
#359=VECTOR($,#1184,1.59999999999999);
#360=VECTOR($,#1185,1.2);
#361=VECTOR($,#1186,1.59999999999999);
#362=VECTOR($,#1189,0.6);
#363=VECTOR($,#1190,0.599999999999994);
#364=VECTOR($,#1191,1.59999999999999);
#365=VECTOR($,#1194,1.2);
#366=VECTOR($,#1195,1.2);
#367=VECTOR($,#1196,1.59999999999999);
#368=VECTOR($,#1199,0.6);
#369=VECTOR($,#1200,0.599999999999994);
#370=VERTEX_POINT($,#1207);
#371=VERTEX_POINT($,#1208);
#372=VERTEX_POINT($,#1210);
#373=VERTEX_POINT($,#1212);
#374=VERTEX_POINT($,#1216);
#375=VERTEX_POINT($,#1217);
#376=VERTEX_POINT($,#1219);
#377=VERTEX_POINT($,#1221);
#378=VERTEX_POINT($,#1233);
#379=VERTEX_POINT($,#1234);
#380=VERTEX_POINT($,#1236);
#381=VERTEX_POINT($,#1238);
#382=VERTEX_POINT($,#1242);
#383=VERTEX_POINT($,#1244);
#384=VERTEX_POINT($,#1248);
#385=VERTEX_POINT($,#1250);
#386=VERTEX_POINT($,#1259);
#387=VERTEX_POINT($,#1260);
#388=VERTEX_POINT($,#1262);
#389=VERTEX_POINT($,#1264);
#390=VERTEX_POINT($,#1268);
#391=VERTEX_POINT($,#1269);
#392=VERTEX_POINT($,#1271);
#393=VERTEX_POINT($,#1273);
#394=VERTEX_POINT($,#1277);
#395=VERTEX_POINT($,#1279);
#396=VERTEX_POINT($,#1283);
#397=VERTEX_POINT($,#1284);
#398=VERTEX_POINT($,#1286);
#399=VERTEX_POINT($,#1288);
#400=VERTEX_POINT($,#1292);
#401=VERTEX_POINT($,#1294);
#402=VERTEX_POINT($,#1298);
#403=VERTEX_POINT($,#1300);
#404=VERTEX_POINT($,#1305);
#405=VERTEX_POINT($,#1309);
#406=VERTEX_POINT($,#1316);
#407=VERTEX_POINT($,#1317);
#408=VERTEX_POINT($,#1319);
#409=VERTEX_POINT($,#1321);
#410=VERTEX_POINT($,#1333);
#411=VERTEX_POINT($,#1334);
#412=VERTEX_POINT($,#1336);
#413=VERTEX_POINT($,#1338);
#414=VERTEX_POINT($,#1342);
#415=VERTEX_POINT($,#1343);
#416=VERTEX_POINT($,#1345);
#417=VERTEX_POINT($,#1347);
#418=VERTEX_POINT($,#1351);
#419=VERTEX_POINT($,#1353);
#420=VERTEX_POINT($,#1357);
#421=VERTEX_POINT($,#1358);
#422=VERTEX_POINT($,#1360);
#423=VERTEX_POINT($,#1362);
#424=VERTEX_POINT($,#1366);
#425=VERTEX_POINT($,#1368);
#426=VERTEX_POINT($,#1372);
#427=VERTEX_POINT($,#1374);
#428=VERTEX_POINT($,#1379);
#429=VERTEX_POINT($,#1383);
#430=VERTEX_POINT($,#1390);
#431=VERTEX_POINT($,#1391);
#432=VERTEX_POINT($,#1393);
#433=VERTEX_POINT($,#1395);
#434=VERTEX_POINT($,#1407);
#435=VERTEX_POINT($,#1408);
#436=VERTEX_POINT($,#1410);
#437=VERTEX_POINT($,#1412);
#438=VERTEX_POINT($,#1416);
#439=VERTEX_POINT($,#1418);
#440=VERTEX_POINT($,#1422);
#441=VERTEX_POINT($,#1424);
#442=VERTEX_POINT($,#1433);
#443=VERTEX_POINT($,#1434);
#444=VERTEX_POINT($,#1436);
#445=VERTEX_POINT($,#1438);
#446=VERTEX_POINT($,#1442);
#447=VERTEX_POINT($,#1444);
#448=VERTEX_POINT($,#1448);
#449=VERTEX_POINT($,#1450);
#450=EDGE_CURVE($,#370,#371,#130,.T.);
#451=EDGE_CURVE($,#371,#372,#131,.T.);
#452=EDGE_CURVE($,#372,#373,#132,.T.);
#453=EDGE_CURVE($,#373,#370,#133,.T.);
#454=EDGE_CURVE($,#374,#375,#134,.T.);
#455=EDGE_CURVE($,#375,#376,#135,.T.);
#456=EDGE_CURVE($,#376,#377,#136,.T.);
#457=EDGE_CURVE($,#377,#374,#137,.T.);
#458=EDGE_CURVE($,#373,#376,#138,.T.);
#459=EDGE_CURVE($,#370,#375,#139,.T.);
#460=EDGE_CURVE($,#372,#377,#140,.T.);
#461=EDGE_CURVE($,#371,#374,#141,.T.);
#462=EDGE_CURVE($,#378,#379,#142,.T.);
#463=EDGE_CURVE($,#379,#380,#143,.T.);
#464=EDGE_CURVE($,#381,#380,#144,.T.);
#465=EDGE_CURVE($,#378,#381,#145,.T.);
#466=EDGE_CURVE($,#382,#378,#146,.T.);
#467=EDGE_CURVE($,#383,#381,#147,.T.);
#468=EDGE_CURVE($,#382,#383,#148,.T.);
#469=EDGE_CURVE($,#384,#382,#149,.T.);
#470=EDGE_CURVE($,#385,#383,#150,.T.);
#471=EDGE_CURVE($,#384,#385,#151,.T.);
#472=EDGE_CURVE($,#379,#384,#152,.T.);
#473=EDGE_CURVE($,#380,#385,#153,.T.);
#474=EDGE_CURVE($,#386,#387,#154,.T.);
#475=EDGE_CURVE($,#387,#388,#155,.T.);
#476=EDGE_CURVE($,#388,#389,#156,.T.);
#477=EDGE_CURVE($,#389,#386,#157,.T.);
#478=EDGE_CURVE($,#390,#391,#158,.T.);
#479=EDGE_CURVE($,#392,#391,#159,.T.);
#480=EDGE_CURVE($,#393,#392,#160,.T.);
#481=EDGE_CURVE($,#390,#393,#161,.T.);
#482=EDGE_CURVE($,#391,#394,#162,.T.);
#483=EDGE_CURVE($,#395,#394,#163,.T.);
#484=EDGE_CURVE($,#392,#395,#164,.T.);
#485=EDGE_CURVE($,#396,#397,#165,.T.);
#486=EDGE_CURVE($,#398,#397,#166,.T.);
#487=EDGE_CURVE($,#399,#398,#167,.T.);
#488=EDGE_CURVE($,#396,#399,#168,.T.);
#489=EDGE_CURVE($,#399,#400,#169,.T.);
#490=EDGE_CURVE($,#400,#401,#170,.T.);
#491=EDGE_CURVE($,#401,#396,#171,.T.);
#492=EDGE_CURVE($,#401,#402,#172,.T.);
#493=EDGE_CURVE($,#403,#402,#173,.T.);
#494=EDGE_CURVE($,#393,#403,#174,.T.);
#495=EDGE_CURVE($,#397,#395,#175,.T.);
#496=EDGE_CURVE($,#400,#404,#176,.T.);
#497=EDGE_CURVE($,#402,#404,#177,.T.);
#498=EDGE_CURVE($,#390,#405,#178,.T.);
#499=EDGE_CURVE($,#404,#405,#179,.T.);
#500=EDGE_CURVE($,#394,#398,#180,.T.);
#501=EDGE_CURVE($,#405,#403,#181,.T.);
#502=EDGE_CURVE($,#406,#407,#182,.T.);
#503=EDGE_CURVE($,#407,#408,#183,.T.);
#504=EDGE_CURVE($,#408,#409,#184,.T.);
#505=EDGE_CURVE($,#409,#406,#185,.T.);
#506=EDGE_CURVE($,#386,#408,#186,.T.);
#507=EDGE_CURVE($,#387,#407,#187,.T.);
#508=EDGE_CURVE($,#389,#409,#188,.T.);
#509=EDGE_CURVE($,#388,#406,#189,.T.);
#510=EDGE_CURVE($,#410,#411,#190,.T.);
#511=EDGE_CURVE($,#411,#412,#191,.T.);
#512=EDGE_CURVE($,#412,#413,#192,.T.);
#513=EDGE_CURVE($,#413,#410,#193,.T.);
#514=EDGE_CURVE($,#414,#415,#194,.T.);
#515=EDGE_CURVE($,#416,#415,#195,.T.);
#516=EDGE_CURVE($,#417,#416,#196,.T.);
#517=EDGE_CURVE($,#414,#417,#197,.T.);
#518=EDGE_CURVE($,#415,#418,#198,.T.);
#519=EDGE_CURVE($,#419,#418,#199,.T.);
#520=EDGE_CURVE($,#416,#419,#200,.T.);
#521=EDGE_CURVE($,#420,#421,#201,.T.);
#522=EDGE_CURVE($,#422,#421,#202,.T.);
#523=EDGE_CURVE($,#423,#422,#203,.T.);
#524=EDGE_CURVE($,#420,#423,#204,.T.);
#525=EDGE_CURVE($,#423,#424,#205,.T.);
#526=EDGE_CURVE($,#424,#425,#206,.T.);
#527=EDGE_CURVE($,#425,#420,#207,.T.);
#528=EDGE_CURVE($,#425,#426,#208,.T.);
#529=EDGE_CURVE($,#427,#426,#209,.T.);
#530=EDGE_CURVE($,#417,#427,#210,.T.);
#531=EDGE_CURVE($,#421,#419,#211,.T.);
#532=EDGE_CURVE($,#424,#428,#212,.T.);
#533=EDGE_CURVE($,#426,#428,#213,.T.);
#534=EDGE_CURVE($,#414,#429,#214,.T.);
#535=EDGE_CURVE($,#428,#429,#215,.T.);
#536=EDGE_CURVE($,#418,#422,#216,.T.);
#537=EDGE_CURVE($,#429,#427,#217,.T.);
#538=EDGE_CURVE($,#430,#431,#218,.T.);
#539=EDGE_CURVE($,#431,#432,#219,.T.);
#540=EDGE_CURVE($,#432,#433,#220,.T.);
#541=EDGE_CURVE($,#433,#430,#221,.T.);
#542=EDGE_CURVE($,#410,#432,#222,.T.);
#543=EDGE_CURVE($,#411,#431,#223,.T.);
#544=EDGE_CURVE($,#413,#433,#224,.T.);
#545=EDGE_CURVE($,#412,#430,#225,.T.);
#546=EDGE_CURVE($,#434,#435,#226,.T.);
#547=EDGE_CURVE($,#435,#436,#227,.T.);
#548=EDGE_CURVE($,#437,#436,#228,.T.);
#549=EDGE_CURVE($,#434,#437,#229,.T.);
#550=EDGE_CURVE($,#438,#434,#230,.T.);
#551=EDGE_CURVE($,#439,#437,#231,.T.);
#552=EDGE_CURVE($,#438,#439,#232,.T.);
#553=EDGE_CURVE($,#440,#438,#233,.T.);
#554=EDGE_CURVE($,#441,#439,#234,.T.);
#555=EDGE_CURVE($,#440,#441,#235,.T.);
#556=EDGE_CURVE($,#435,#440,#236,.T.);
#557=EDGE_CURVE($,#436,#441,#237,.T.);
#558=EDGE_CURVE($,#442,#443,#238,.T.);
#559=EDGE_CURVE($,#443,#444,#239,.T.);
#560=EDGE_CURVE($,#445,#444,#240,.T.);
#561=EDGE_CURVE($,#442,#445,#241,.T.);
#562=EDGE_CURVE($,#446,#442,#242,.T.);
#563=EDGE_CURVE($,#447,#445,#243,.T.);
#564=EDGE_CURVE($,#446,#447,#244,.T.);
#565=EDGE_CURVE($,#448,#446,#245,.T.);
#566=EDGE_CURVE($,#449,#447,#246,.T.);
#567=EDGE_CURVE($,#448,#449,#247,.T.);
#568=EDGE_CURVE($,#443,#448,#248,.T.);
#569=EDGE_CURVE($,#444,#449,#249,.T.);
#570=ORIENTED_EDGE($,*,*,#450,.T.);
#571=ORIENTED_EDGE($,*,*,#451,.T.);
#572=ORIENTED_EDGE($,*,*,#452,.T.);
#573=ORIENTED_EDGE($,*,*,#453,.T.);
#574=ORIENTED_EDGE($,*,*,#454,.T.);
#575=ORIENTED_EDGE($,*,*,#455,.T.);
#576=ORIENTED_EDGE($,*,*,#456,.T.);
#577=ORIENTED_EDGE($,*,*,#457,.T.);
#578=ORIENTED_EDGE($,*,*,#458,.T.);
#579=ORIENTED_EDGE($,*,*,#455,.F.);
#580=ORIENTED_EDGE($,*,*,#459,.F.);
#581=ORIENTED_EDGE($,*,*,#453,.F.);
#582=ORIENTED_EDGE($,*,*,#460,.T.);
#583=ORIENTED_EDGE($,*,*,#456,.F.);
#584=ORIENTED_EDGE($,*,*,#458,.F.);
#585=ORIENTED_EDGE($,*,*,#452,.F.);
#586=ORIENTED_EDGE($,*,*,#461,.T.);
#587=ORIENTED_EDGE($,*,*,#457,.F.);
#588=ORIENTED_EDGE($,*,*,#460,.F.);
#589=ORIENTED_EDGE($,*,*,#451,.F.);
#590=ORIENTED_EDGE($,*,*,#459,.T.);
#591=ORIENTED_EDGE($,*,*,#454,.F.);
#592=ORIENTED_EDGE($,*,*,#461,.F.);
#593=ORIENTED_EDGE($,*,*,#450,.F.);
#594=ORIENTED_EDGE($,*,*,#462,.T.);
#595=ORIENTED_EDGE($,*,*,#463,.T.);
#596=ORIENTED_EDGE($,*,*,#464,.F.);
#597=ORIENTED_EDGE($,*,*,#465,.F.);
#598=ORIENTED_EDGE($,*,*,#466,.T.);
#599=ORIENTED_EDGE($,*,*,#465,.T.);
#600=ORIENTED_EDGE($,*,*,#467,.F.);
#601=ORIENTED_EDGE($,*,*,#468,.F.);
#602=ORIENTED_EDGE($,*,*,#469,.T.);
#603=ORIENTED_EDGE($,*,*,#468,.T.);
#604=ORIENTED_EDGE($,*,*,#470,.F.);
#605=ORIENTED_EDGE($,*,*,#471,.F.);
#606=ORIENTED_EDGE($,*,*,#472,.T.);
#607=ORIENTED_EDGE($,*,*,#471,.T.);
#608=ORIENTED_EDGE($,*,*,#473,.F.);
#609=ORIENTED_EDGE($,*,*,#463,.F.);
#610=ORIENTED_EDGE($,*,*,#473,.T.);
#611=ORIENTED_EDGE($,*,*,#470,.T.);
#612=ORIENTED_EDGE($,*,*,#467,.T.);
#613=ORIENTED_EDGE($,*,*,#464,.T.);
#614=ORIENTED_EDGE($,*,*,#472,.F.);
#615=ORIENTED_EDGE($,*,*,#462,.F.);
#616=ORIENTED_EDGE($,*,*,#466,.F.);
#617=ORIENTED_EDGE($,*,*,#469,.F.);
#618=ORIENTED_EDGE($,*,*,#474,.T.);
#619=ORIENTED_EDGE($,*,*,#475,.T.);
#620=ORIENTED_EDGE($,*,*,#476,.T.);
#621=ORIENTED_EDGE($,*,*,#477,.T.);
#622=ORIENTED_EDGE($,*,*,#478,.T.);
#623=ORIENTED_EDGE($,*,*,#479,.F.);
#624=ORIENTED_EDGE($,*,*,#480,.F.);
#625=ORIENTED_EDGE($,*,*,#481,.F.);
#626=ORIENTED_EDGE($,*,*,#479,.T.);
#627=ORIENTED_EDGE($,*,*,#482,.T.);
#628=ORIENTED_EDGE($,*,*,#483,.F.);
#629=ORIENTED_EDGE($,*,*,#484,.F.);
#630=ORIENTED_EDGE($,*,*,#485,.T.);
#631=ORIENTED_EDGE($,*,*,#486,.F.);
#632=ORIENTED_EDGE($,*,*,#487,.F.);
#633=ORIENTED_EDGE($,*,*,#488,.F.);
#634=ORIENTED_EDGE($,*,*,#489,.T.);
#635=ORIENTED_EDGE($,*,*,#490,.T.);
#636=ORIENTED_EDGE($,*,*,#491,.T.);
#637=ORIENTED_EDGE($,*,*,#488,.T.);
#638=ORIENTED_EDGE($,*,*,#492,.T.);
#639=ORIENTED_EDGE($,*,*,#493,.F.);
#640=ORIENTED_EDGE($,*,*,#494,.F.);
#641=ORIENTED_EDGE($,*,*,#480,.T.);
#642=ORIENTED_EDGE($,*,*,#484,.T.);
#643=ORIENTED_EDGE($,*,*,#495,.F.);
#644=ORIENTED_EDGE($,*,*,#485,.F.);
#645=ORIENTED_EDGE($,*,*,#491,.F.);
#646=ORIENTED_EDGE($,*,*,#496,.T.);
#647=ORIENTED_EDGE($,*,*,#497,.F.);
#648=ORIENTED_EDGE($,*,*,#492,.F.);
#649=ORIENTED_EDGE($,*,*,#490,.F.);
#650=ORIENTED_EDGE($,*,*,#498,.T.);
#651=ORIENTED_EDGE($,*,*,#499,.F.);
#652=ORIENTED_EDGE($,*,*,#496,.F.);
#653=ORIENTED_EDGE($,*,*,#489,.F.);
#654=ORIENTED_EDGE($,*,*,#487,.T.);
#655=ORIENTED_EDGE($,*,*,#500,.F.);
#656=ORIENTED_EDGE($,*,*,#482,.F.);
#657=ORIENTED_EDGE($,*,*,#478,.F.);
#658=ORIENTED_EDGE($,*,*,#481,.T.);
#659=ORIENTED_EDGE($,*,*,#494,.T.);
#660=ORIENTED_EDGE($,*,*,#501,.F.);
#661=ORIENTED_EDGE($,*,*,#498,.F.);
#662=ORIENTED_EDGE($,*,*,#495,.T.);
#663=ORIENTED_EDGE($,*,*,#483,.T.);
#664=ORIENTED_EDGE($,*,*,#500,.T.);
#665=ORIENTED_EDGE($,*,*,#486,.T.);
#666=ORIENTED_EDGE($,*,*,#493,.T.);
#667=ORIENTED_EDGE($,*,*,#497,.T.);
#668=ORIENTED_EDGE($,*,*,#499,.T.);
#669=ORIENTED_EDGE($,*,*,#501,.T.);
#670=ORIENTED_EDGE($,*,*,#502,.T.);
#671=ORIENTED_EDGE($,*,*,#503,.T.);
#672=ORIENTED_EDGE($,*,*,#504,.T.);
#673=ORIENTED_EDGE($,*,*,#505,.T.);
#674=ORIENTED_EDGE($,*,*,#506,.T.);
#675=ORIENTED_EDGE($,*,*,#503,.F.);
#676=ORIENTED_EDGE($,*,*,#507,.F.);
#677=ORIENTED_EDGE($,*,*,#474,.F.);
#678=ORIENTED_EDGE($,*,*,#508,.T.);
#679=ORIENTED_EDGE($,*,*,#504,.F.);
#680=ORIENTED_EDGE($,*,*,#506,.F.);
#681=ORIENTED_EDGE($,*,*,#477,.F.);
#682=ORIENTED_EDGE($,*,*,#509,.T.);
#683=ORIENTED_EDGE($,*,*,#505,.F.);
#684=ORIENTED_EDGE($,*,*,#508,.F.);
#685=ORIENTED_EDGE($,*,*,#476,.F.);
#686=ORIENTED_EDGE($,*,*,#507,.T.);
#687=ORIENTED_EDGE($,*,*,#502,.F.);
#688=ORIENTED_EDGE($,*,*,#509,.F.);
#689=ORIENTED_EDGE($,*,*,#475,.F.);
#690=ORIENTED_EDGE($,*,*,#510,.T.);
#691=ORIENTED_EDGE($,*,*,#511,.T.);
#692=ORIENTED_EDGE($,*,*,#512,.T.);
#693=ORIENTED_EDGE($,*,*,#513,.T.);
#694=ORIENTED_EDGE($,*,*,#514,.T.);
#695=ORIENTED_EDGE($,*,*,#515,.F.);
#696=ORIENTED_EDGE($,*,*,#516,.F.);
#697=ORIENTED_EDGE($,*,*,#517,.F.);
#698=ORIENTED_EDGE($,*,*,#515,.T.);
#699=ORIENTED_EDGE($,*,*,#518,.T.);
#700=ORIENTED_EDGE($,*,*,#519,.F.);
#701=ORIENTED_EDGE($,*,*,#520,.F.);
#702=ORIENTED_EDGE($,*,*,#521,.T.);
#703=ORIENTED_EDGE($,*,*,#522,.F.);
#704=ORIENTED_EDGE($,*,*,#523,.F.);
#705=ORIENTED_EDGE($,*,*,#524,.F.);
#706=ORIENTED_EDGE($,*,*,#525,.T.);
#707=ORIENTED_EDGE($,*,*,#526,.T.);
#708=ORIENTED_EDGE($,*,*,#527,.T.);
#709=ORIENTED_EDGE($,*,*,#524,.T.);
#710=ORIENTED_EDGE($,*,*,#528,.T.);
#711=ORIENTED_EDGE($,*,*,#529,.F.);
#712=ORIENTED_EDGE($,*,*,#530,.F.);
#713=ORIENTED_EDGE($,*,*,#516,.T.);
#714=ORIENTED_EDGE($,*,*,#520,.T.);
#715=ORIENTED_EDGE($,*,*,#531,.F.);
#716=ORIENTED_EDGE($,*,*,#521,.F.);
#717=ORIENTED_EDGE($,*,*,#527,.F.);
#718=ORIENTED_EDGE($,*,*,#532,.T.);
#719=ORIENTED_EDGE($,*,*,#533,.F.);
#720=ORIENTED_EDGE($,*,*,#528,.F.);
#721=ORIENTED_EDGE($,*,*,#526,.F.);
#722=ORIENTED_EDGE($,*,*,#534,.T.);
#723=ORIENTED_EDGE($,*,*,#535,.F.);
#724=ORIENTED_EDGE($,*,*,#532,.F.);
#725=ORIENTED_EDGE($,*,*,#525,.F.);
#726=ORIENTED_EDGE($,*,*,#523,.T.);
#727=ORIENTED_EDGE($,*,*,#536,.F.);
#728=ORIENTED_EDGE($,*,*,#518,.F.);
#729=ORIENTED_EDGE($,*,*,#514,.F.);
#730=ORIENTED_EDGE($,*,*,#517,.T.);
#731=ORIENTED_EDGE($,*,*,#530,.T.);
#732=ORIENTED_EDGE($,*,*,#537,.F.);
#733=ORIENTED_EDGE($,*,*,#534,.F.);
#734=ORIENTED_EDGE($,*,*,#531,.T.);
#735=ORIENTED_EDGE($,*,*,#519,.T.);
#736=ORIENTED_EDGE($,*,*,#536,.T.);
#737=ORIENTED_EDGE($,*,*,#522,.T.);
#738=ORIENTED_EDGE($,*,*,#529,.T.);
#739=ORIENTED_EDGE($,*,*,#533,.T.);
#740=ORIENTED_EDGE($,*,*,#535,.T.);
#741=ORIENTED_EDGE($,*,*,#537,.T.);
#742=ORIENTED_EDGE($,*,*,#538,.T.);
#743=ORIENTED_EDGE($,*,*,#539,.T.);
#744=ORIENTED_EDGE($,*,*,#540,.T.);
#745=ORIENTED_EDGE($,*,*,#541,.T.);
#746=ORIENTED_EDGE($,*,*,#542,.T.);
#747=ORIENTED_EDGE($,*,*,#539,.F.);
#748=ORIENTED_EDGE($,*,*,#543,.F.);
#749=ORIENTED_EDGE($,*,*,#510,.F.);
#750=ORIENTED_EDGE($,*,*,#544,.T.);
#751=ORIENTED_EDGE($,*,*,#540,.F.);
#752=ORIENTED_EDGE($,*,*,#542,.F.);
#753=ORIENTED_EDGE($,*,*,#513,.F.);
#754=ORIENTED_EDGE($,*,*,#545,.T.);
#755=ORIENTED_EDGE($,*,*,#541,.F.);
#756=ORIENTED_EDGE($,*,*,#544,.F.);
#757=ORIENTED_EDGE($,*,*,#512,.F.);
#758=ORIENTED_EDGE($,*,*,#543,.T.);
#759=ORIENTED_EDGE($,*,*,#538,.F.);
#760=ORIENTED_EDGE($,*,*,#545,.F.);
#761=ORIENTED_EDGE($,*,*,#511,.F.);
#762=ORIENTED_EDGE($,*,*,#546,.T.);
#763=ORIENTED_EDGE($,*,*,#547,.T.);
#764=ORIENTED_EDGE($,*,*,#548,.F.);
#765=ORIENTED_EDGE($,*,*,#549,.F.);
#766=ORIENTED_EDGE($,*,*,#550,.T.);
#767=ORIENTED_EDGE($,*,*,#549,.T.);
#768=ORIENTED_EDGE($,*,*,#551,.F.);
#769=ORIENTED_EDGE($,*,*,#552,.F.);
#770=ORIENTED_EDGE($,*,*,#553,.T.);
#771=ORIENTED_EDGE($,*,*,#552,.T.);
#772=ORIENTED_EDGE($,*,*,#554,.F.);
#773=ORIENTED_EDGE($,*,*,#555,.F.);
#774=ORIENTED_EDGE($,*,*,#556,.T.);
#775=ORIENTED_EDGE($,*,*,#555,.T.);
#776=ORIENTED_EDGE($,*,*,#557,.F.);
#777=ORIENTED_EDGE($,*,*,#547,.F.);
#778=ORIENTED_EDGE($,*,*,#557,.T.);
#779=ORIENTED_EDGE($,*,*,#554,.T.);
#780=ORIENTED_EDGE($,*,*,#551,.T.);
#781=ORIENTED_EDGE($,*,*,#548,.T.);
#782=ORIENTED_EDGE($,*,*,#556,.F.);
#783=ORIENTED_EDGE($,*,*,#546,.F.);
#784=ORIENTED_EDGE($,*,*,#550,.F.);
#785=ORIENTED_EDGE($,*,*,#553,.F.);
#786=ORIENTED_EDGE($,*,*,#558,.T.);
#787=ORIENTED_EDGE($,*,*,#559,.T.);
#788=ORIENTED_EDGE($,*,*,#560,.F.);
#789=ORIENTED_EDGE($,*,*,#561,.F.);
#790=ORIENTED_EDGE($,*,*,#562,.T.);
#791=ORIENTED_EDGE($,*,*,#561,.T.);
#792=ORIENTED_EDGE($,*,*,#563,.F.);
#793=ORIENTED_EDGE($,*,*,#564,.F.);
#794=ORIENTED_EDGE($,*,*,#565,.T.);
#795=ORIENTED_EDGE($,*,*,#564,.T.);
#796=ORIENTED_EDGE($,*,*,#566,.F.);
#797=ORIENTED_EDGE($,*,*,#567,.F.);
#798=ORIENTED_EDGE($,*,*,#568,.T.);
#799=ORIENTED_EDGE($,*,*,#567,.T.);
#800=ORIENTED_EDGE($,*,*,#569,.F.);
#801=ORIENTED_EDGE($,*,*,#559,.F.);
#802=ORIENTED_EDGE($,*,*,#569,.T.);
#803=ORIENTED_EDGE($,*,*,#566,.T.);
#804=ORIENTED_EDGE($,*,*,#563,.T.);
#805=ORIENTED_EDGE($,*,*,#560,.T.);
#806=ORIENTED_EDGE($,*,*,#568,.F.);
#807=ORIENTED_EDGE($,*,*,#558,.F.);
#808=ORIENTED_EDGE($,*,*,#562,.F.);
#809=ORIENTED_EDGE($,*,*,#565,.F.);
#810=PLANE($,#927);
#811=PLANE($,#928);
#812=PLANE($,#929);
#813=PLANE($,#930);
#814=PLANE($,#931);
#815=PLANE($,#932);
#816=PLANE($,#933);
#817=PLANE($,#934);
#818=PLANE($,#935);
#819=PLANE($,#936);
#820=PLANE($,#937);
#821=PLANE($,#938);
#822=PLANE($,#939);
#823=PLANE($,#940);
#824=PLANE($,#941);
#825=PLANE($,#942);
#826=PLANE($,#943);
#827=PLANE($,#944);
#828=PLANE($,#945);
#829=PLANE($,#946);
#830=PLANE($,#947);
#831=PLANE($,#948);
#832=PLANE($,#949);
#833=PLANE($,#950);
#834=PLANE($,#951);
#835=PLANE($,#952);
#836=PLANE($,#953);
#837=PLANE($,#954);
#838=PLANE($,#955);
#839=PLANE($,#956);
#840=PLANE($,#957);
#841=PLANE($,#958);
#842=PLANE($,#959);
#843=PLANE($,#960);
#844=PLANE($,#961);
#845=PLANE($,#962);
#846=PLANE($,#963);
#847=PLANE($,#964);
#848=PLANE($,#965);
#849=PLANE($,#966);
#850=PLANE($,#967);
#851=PLANE($,#968);
#852=PLANE($,#969);
#853=PLANE($,#970);
#854=PLANE($,#971);
#855=PLANE($,#972);
#856=PLANE($,#973);
#857=PLANE($,#974);
#858=PLANE($,#975);
#859=PLANE($,#976);
#860=PLANE($,#977);
#861=PLANE($,#978);
#862=ADVANCED_FACE($,(#24),#810,.T.);
#863=ADVANCED_FACE($,(#25),#811,.F.);
#864=ADVANCED_FACE($,(#26),#812,.F.);
#865=ADVANCED_FACE($,(#27),#813,.F.);
#866=ADVANCED_FACE($,(#28),#814,.F.);
#867=ADVANCED_FACE($,(#29),#815,.F.);
#868=ADVANCED_FACE($,(#30),#816,.T.);
#869=ADVANCED_FACE($,(#31),#817,.T.);
#870=ADVANCED_FACE($,(#32),#818,.T.);
#871=ADVANCED_FACE($,(#33),#819,.T.);
#872=ADVANCED_FACE($,(#34),#820,.T.);
#873=ADVANCED_FACE($,(#35),#821,.F.);
#874=ADVANCED_FACE($,(#36),#822,.F.);
#875=ADVANCED_FACE($,(#37),#823,.F.);
#876=ADVANCED_FACE($,(#38),#824,.F.);
#877=ADVANCED_FACE($,(#39),#825,.F.);
#878=ADVANCED_FACE($,(#40),#826,.T.);
#879=ADVANCED_FACE($,(#41),#827,.F.);
#880=ADVANCED_FACE($,(#42),#828,.F.);
#881=ADVANCED_FACE($,(#43),#829,.F.);
#882=ADVANCED_FACE($,(#44),#830,.F.);
#883=ADVANCED_FACE($,(#10,#11,#12),#831,.F.);
#884=ADVANCED_FACE($,(#45),#832,.F.);
#885=ADVANCED_FACE($,(#46),#833,.F.);
#886=ADVANCED_FACE($,(#47),#834,.F.);
#887=ADVANCED_FACE($,(#48),#835,.F.);
#888=ADVANCED_FACE($,(#49),#836,.F.);
#889=ADVANCED_FACE($,(#50),#837,.F.);
#890=ADVANCED_FACE($,(#51),#838,.F.);
#891=ADVANCED_FACE($,(#52),#839,.F.);
#892=ADVANCED_FACE($,(#53),#840,.T.);
#893=ADVANCED_FACE($,(#54),#841,.F.);
#894=ADVANCED_FACE($,(#55),#842,.F.);
#895=ADVANCED_FACE($,(#56),#843,.F.);
#896=ADVANCED_FACE($,(#57),#844,.F.);
#897=ADVANCED_FACE($,(#13,#14,#15),#845,.F.);
#898=ADVANCED_FACE($,(#58),#846,.F.);
#899=ADVANCED_FACE($,(#59),#847,.F.);
#900=ADVANCED_FACE($,(#60),#848,.F.);
#901=ADVANCED_FACE($,(#61),#849,.F.);
#902=ADVANCED_FACE($,(#62),#850,.T.);
#903=ADVANCED_FACE($,(#63),#851,.T.);
#904=ADVANCED_FACE($,(#64),#852,.T.);
#905=ADVANCED_FACE($,(#65),#853,.T.);
#906=ADVANCED_FACE($,(#66),#854,.T.);
#907=ADVANCED_FACE($,(#67),#855,.F.);
#908=ADVANCED_FACE($,(#68),#856,.T.);
#909=ADVANCED_FACE($,(#69),#857,.T.);
#910=ADVANCED_FACE($,(#70),#858,.T.);
#911=ADVANCED_FACE($,(#71),#859,.T.);
#912=ADVANCED_FACE($,(#72),#860,.T.);
#913=ADVANCED_FACE($,(#73),#861,.F.);
#914=CLOSED_SHELL($,(#862,#863,#864,#865,#866,#867));
#915=CLOSED_SHELL($,(#868,#869,#870,#871,#872,#873));
#916=CLOSED_SHELL($,(#874,#875,#876,#877,#878,#879,#880,#881,#882,#883,
#884,#885,#886,#887));
#917=CLOSED_SHELL($,(#888,#889,#890,#891,#892,#893,#894,#895,#896,#897,
#898,#899,#900,#901));
#918=CLOSED_SHELL($,(#902,#903,#904,#905,#906,#907));
#919=CLOSED_SHELL($,(#908,#909,#910,#911,#912,#913));
#920=MANIFOLD_SOLID_BREP('ASM Body',#914);
#921=MANIFOLD_SOLID_BREP('ASM Body',#915);
#922=MANIFOLD_SOLID_BREP('ASM Body',#916);
#923=MANIFOLD_SOLID_BREP('ASM Body',#917);
#924=MANIFOLD_SOLID_BREP('ASM Body',#918);
#925=MANIFOLD_SOLID_BREP('ASM Body',#919);
#926=AXIS2_PLACEMENT_3D('placement',#1205,#979,#980);
#927=AXIS2_PLACEMENT_3D($,#1206,#981,#982);
#928=AXIS2_PLACEMENT_3D($,#1215,#987,#988);
#929=AXIS2_PLACEMENT_3D($,#1224,#993,#994);
#930=AXIS2_PLACEMENT_3D($,#1227,#997,#998);
#931=AXIS2_PLACEMENT_3D($,#1229,#1000,#1001);
#932=AXIS2_PLACEMENT_3D($,#1231,#1003,#1004);
#933=AXIS2_PLACEMENT_3D($,#1232,#1005,#1006);
#934=AXIS2_PLACEMENT_3D($,#1241,#1011,#1012);
#935=AXIS2_PLACEMENT_3D($,#1247,#1016,#1017);
#936=AXIS2_PLACEMENT_3D($,#1253,#1021,#1022);
#937=AXIS2_PLACEMENT_3D($,#1256,#1025,#1026);
#938=AXIS2_PLACEMENT_3D($,#1257,#1027,#1028);
#939=AXIS2_PLACEMENT_3D($,#1258,#1029,#1030);
#940=AXIS2_PLACEMENT_3D($,#1267,#1035,#1036);
#941=AXIS2_PLACEMENT_3D($,#1276,#1041,#1042);
#942=AXIS2_PLACEMENT_3D($,#1282,#1046,#1047);
#943=AXIS2_PLACEMENT_3D($,#1291,#1052,#1053);
#944=AXIS2_PLACEMENT_3D($,#1297,#1057,#1058);
#945=AXIS2_PLACEMENT_3D($,#1304,#1063,#1064);
#946=AXIS2_PLACEMENT_3D($,#1308,#1067,#1068);
#947=AXIS2_PLACEMENT_3D($,#1313,#1072,#1073);
#948=AXIS2_PLACEMENT_3D($,#1315,#1075,#1076);
#949=AXIS2_PLACEMENT_3D($,#1324,#1081,#1082);
#950=AXIS2_PLACEMENT_3D($,#1327,#1085,#1086);
#951=AXIS2_PLACEMENT_3D($,#1329,#1088,#1089);
#952=AXIS2_PLACEMENT_3D($,#1331,#1091,#1092);
#953=AXIS2_PLACEMENT_3D($,#1332,#1093,#1094);
#954=AXIS2_PLACEMENT_3D($,#1341,#1099,#1100);
#955=AXIS2_PLACEMENT_3D($,#1350,#1105,#1106);
#956=AXIS2_PLACEMENT_3D($,#1356,#1110,#1111);
#957=AXIS2_PLACEMENT_3D($,#1365,#1116,#1117);
#958=AXIS2_PLACEMENT_3D($,#1371,#1121,#1122);
#959=AXIS2_PLACEMENT_3D($,#1378,#1127,#1128);
#960=AXIS2_PLACEMENT_3D($,#1382,#1131,#1132);
#961=AXIS2_PLACEMENT_3D($,#1387,#1136,#1137);
#962=AXIS2_PLACEMENT_3D($,#1389,#1139,#1140);
#963=AXIS2_PLACEMENT_3D($,#1398,#1145,#1146);
#964=AXIS2_PLACEMENT_3D($,#1401,#1149,#1150);
#965=AXIS2_PLACEMENT_3D($,#1403,#1152,#1153);
#966=AXIS2_PLACEMENT_3D($,#1405,#1155,#1156);
#967=AXIS2_PLACEMENT_3D($,#1406,#1157,#1158);
#968=AXIS2_PLACEMENT_3D($,#1415,#1163,#1164);
#969=AXIS2_PLACEMENT_3D($,#1421,#1168,#1169);
#970=AXIS2_PLACEMENT_3D($,#1427,#1173,#1174);
#971=AXIS2_PLACEMENT_3D($,#1430,#1177,#1178);
#972=AXIS2_PLACEMENT_3D($,#1431,#1179,#1180);
#973=AXIS2_PLACEMENT_3D($,#1432,#1181,#1182);
#974=AXIS2_PLACEMENT_3D($,#1441,#1187,#1188);
#975=AXIS2_PLACEMENT_3D($,#1447,#1192,#1193);
#976=AXIS2_PLACEMENT_3D($,#1453,#1197,#1198);
#977=AXIS2_PLACEMENT_3D($,#1456,#1201,#1202);
#978=AXIS2_PLACEMENT_3D($,#1457,#1203,#1204);
#979=DIRECTION('axis',(0.,0.,1.));
#980=DIRECTION('refdir',(1.,0.,0.));
#981=DIRECTION('center_axis',(-1.11022302462516E-016,-1.,0.));
#982=DIRECTION('ref_axis',(0.,0.,-1.));
#983=DIRECTION($,(-2.96059473233375E-016,3.28692043842088E-032,1.));
#984=DIRECTION($,(-1.,1.11022302462516E-016,-1.66533453693774E-016));
#985=DIRECTION($,(2.96059473233375E-016,-3.28692043842088E-032,-1.));
#986=DIRECTION($,(1.,-1.11022302462516E-016,1.66533453693774E-016));
#987=DIRECTION('center_axis',(-1.11022302462516E-016,-1.,0.));
#988=DIRECTION('ref_axis',(0.,0.,-1.));
#989=DIRECTION($,(2.96059473233375E-016,-3.28692043842088E-032,-1.));
#990=DIRECTION($,(-1.,1.11022302462516E-016,-1.66533453693774E-016));
#991=DIRECTION($,(-2.96059473233375E-016,3.28692043842088E-032,1.));
#992=DIRECTION($,(1.,-1.11022302462516E-016,1.66533453693774E-016));
#993=DIRECTION('center_axis',(-1.66533453693774E-016,7.39557098644699E-032,
1.));
#994=DIRECTION('ref_axis',(1.,0.,2.22044604925031E-016));
#995=DIRECTION($,(4.44089209850063E-016,1.,0.));
#996=DIRECTION($,(4.44089209850063E-016,1.,0.));
#997=DIRECTION('center_axis',(1.,-4.44089209850063E-016,2.96059473233375E-016));
#998=DIRECTION('ref_axis',(4.44089209850063E-016,0.,-1.));
#999=DIRECTION($,(4.44089209850063E-016,1.,0.));
#1000=DIRECTION('center_axis',(1.66533453693774E-016,-7.39557098644699E-032,
-1.));
#1001=DIRECTION('ref_axis',(-1.,0.,-2.22044604925031E-016));
#1002=DIRECTION($,(4.44089209850063E-016,1.,0.));
#1003=DIRECTION('center_axis',(-1.,4.44089209850063E-016,-2.96059473233375E-016));
#1004=DIRECTION('ref_axis',(-2.22044604925031E-016,0.,1.));
#1005=DIRECTION('center_axis',(0.,1.,0.));
#1006=DIRECTION('ref_axis',(0.,0.,1.));
#1007=DIRECTION($,(-1.,0.,0.));
#1008=DIRECTION($,(0.,0.,1.));
#1009=DIRECTION($,(-1.,0.,0.));
#1010=DIRECTION($,(0.,0.,1.));
#1011=DIRECTION('center_axis',(1.,0.,0.));
#1012=DIRECTION('ref_axis',(0.,0.,-1.));
#1013=DIRECTION($,(0.,1.,0.));
#1014=DIRECTION($,(0.,1.,0.));
#1015=DIRECTION($,(0.,0.,1.));
#1016=DIRECTION('center_axis',(0.,-1.,0.));
#1017=DIRECTION('ref_axis',(0.,0.,-1.));
#1018=DIRECTION($,(1.,0.,0.));
#1019=DIRECTION($,(1.,0.,0.));
#1020=DIRECTION($,(0.,0.,1.));
#1021=DIRECTION('center_axis',(-1.,0.,0.));
#1022=DIRECTION('ref_axis',(0.,0.,1.));
#1023=DIRECTION($,(0.,-1.,0.));
#1024=DIRECTION($,(0.,-1.,0.));
#1025=DIRECTION('center_axis',(0.,0.,1.));
#1026=DIRECTION('ref_axis',(1.,0.,0.));
#1027=DIRECTION('center_axis',(0.,0.,1.));
#1028=DIRECTION('ref_axis',(1.,0.,0.));
#1029=DIRECTION('center_axis',(0.,1.,0.));
#1030=DIRECTION('ref_axis',(1.,0.,2.22044604925031E-016));
#1031=DIRECTION($,(1.,0.,2.22044604925031E-016));
#1032=DIRECTION($,(-2.22044604925031E-016,0.,1.));
#1033=DIRECTION($,(-1.,0.,-2.22044604925031E-016));
#1034=DIRECTION($,(2.22044604925031E-016,0.,-1.));
#1035=DIRECTION('center_axis',(4.93038065763132E-032,1.,-2.22044604925031E-016));
#1036=DIRECTION('ref_axis',(2.22044604925031E-016,0.,-1.));
#1037=DIRECTION($,(2.22044604925031E-016,-2.22044604925031E-016,-1.));
#1038=DIRECTION($,(-1.,0.,-2.22044604925031E-016));
#1039=DIRECTION($,(2.22044604925031E-016,-2.22044604925031E-016,-1.));
#1040=DIRECTION($,(1.,0.,2.22044604925031E-016));
#1041=DIRECTION('center_axis',(2.22044604925031E-016,0.,-1.));
#1042=DIRECTION('ref_axis',(0.,-1.,0.));
#1043=DIRECTION($,(0.,-1.,0.));
#1044=DIRECTION($,(-1.,0.,-2.22044604925031E-016));
#1045=DIRECTION($,(0.,-1.,0.));
#1046=DIRECTION('center_axis',(-2.22044604925031E-016,0.,1.));
#1047=DIRECTION('ref_axis',(0.,1.,0.));
#1048=DIRECTION($,(0.,-1.,0.));
#1049=DIRECTION($,(1.,0.,2.22044604925031E-016));
#1050=DIRECTION($,(0.,-1.,0.));
#1051=DIRECTION($,(-1.,0.,-2.22044604925031E-016));
#1052=DIRECTION('center_axis',(0.,1.,0.));
#1053=DIRECTION('ref_axis',(2.22044604925031E-016,0.,-1.));
#1054=DIRECTION($,(-2.22044604925031E-016,0.,1.));
#1055=DIRECTION($,(1.,0.,2.22044604925031E-016));
#1056=DIRECTION($,(2.22044604925031E-016,0.,-1.));
#1057=DIRECTION('center_axis',(-1.,0.,-2.22044604925031E-016));
#1058=DIRECTION('ref_axis',(0.,1.,0.));
#1059=DIRECTION($,(0.,-1.,0.));
#1060=DIRECTION($,(-2.22044604925031E-016,0.,1.));
#1061=DIRECTION($,(0.,-1.,0.));
#1062=DIRECTION($,(-2.22044604925031E-016,0.,1.));
#1063=DIRECTION('center_axis',(2.22044604925031E-016,0.,-1.));
#1064=DIRECTION('ref_axis',(0.,-1.,0.));
#1065=DIRECTION($,(0.,-1.,0.));
#1066=DIRECTION($,(-1.,0.,-2.22044604925031E-016));
#1067=DIRECTION('center_axis',(1.,0.,2.22044604925031E-016));
#1068=DIRECTION('ref_axis',(0.,-1.,0.));
#1069=DIRECTION($,(0.,-1.,0.));
#1070=DIRECTION($,(2.22044604925031E-016,0.,-1.));
#1071=DIRECTION($,(2.22044604925031E-016,0.,-1.));
#1072=DIRECTION('center_axis',(-2.22044604925031E-016,0.,1.));
#1073=DIRECTION('ref_axis',(0.,1.,0.));
#1074=DIRECTION($,(1.,0.,2.22044604925031E-016));
#1075=DIRECTION('center_axis',(0.,-1.,0.));
#1076=DIRECTION('ref_axis',(1.,0.,2.22044604925031E-016));
#1077=DIRECTION($,(2.22044604925031E-016,0.,-1.));
#1078=DIRECTION($,(-1.,0.,-2.22044604925031E-016));
#1079=DIRECTION($,(-2.22044604925031E-016,0.,1.));
#1080=DIRECTION($,(1.,0.,2.22044604925031E-016));
#1081=DIRECTION('center_axis',(-2.22044604925031E-016,0.,1.));
#1082=DIRECTION('ref_axis',(-1.,0.,-2.22044604925031E-016));
#1083=DIRECTION($,(0.,1.,0.));
#1084=DIRECTION($,(0.,1.,0.));
#1085=DIRECTION('center_axis',(1.,0.,2.22044604925031E-016));
#1086=DIRECTION('ref_axis',(0.,1.,0.));
#1087=DIRECTION($,(0.,1.,0.));
#1088=DIRECTION('center_axis',(2.22044604925031E-016,0.,-1.));
#1089=DIRECTION('ref_axis',(1.,0.,2.22044604925031E-016));
#1090=DIRECTION($,(0.,1.,0.));
#1091=DIRECTION('center_axis',(-1.,0.,-2.22044604925031E-016));
#1092=DIRECTION('ref_axis',(0.,-1.,0.));
#1093=DIRECTION('center_axis',(0.,1.,0.));
#1094=DIRECTION('ref_axis',(1.,0.,2.22044604925031E-016));
#1095=DIRECTION($,(1.,0.,2.22044604925031E-016));
#1096=DIRECTION($,(-2.22044604925031E-016,0.,1.));
#1097=DIRECTION($,(-1.,0.,-2.22044604925031E-016));
#1098=DIRECTION($,(2.22044604925031E-016,0.,-1.));
#1099=DIRECTION('center_axis',(4.93038065763132E-032,1.,-2.22044604925031E-016));
#1100=DIRECTION('ref_axis',(2.22044604925031E-016,0.,-1.));
#1101=DIRECTION($,(2.22044604925031E-016,-2.22044604925031E-016,-1.));
#1102=DIRECTION($,(-1.,0.,-2.22044604925031E-016));
#1103=DIRECTION($,(2.22044604925031E-016,-2.22044604925031E-016,-1.));
#1104=DIRECTION($,(1.,0.,2.22044604925031E-016));
#1105=DIRECTION('center_axis',(2.22044604925031E-016,0.,-1.));
#1106=DIRECTION('ref_axis',(0.,-1.,0.));
#1107=DIRECTION($,(0.,-1.,0.));
#1108=DIRECTION($,(-1.,0.,-2.22044604925031E-016));
#1109=DIRECTION($,(0.,-1.,0.));
#1110=DIRECTION('center_axis',(-2.22044604925031E-016,0.,1.));
#1111=DIRECTION('ref_axis',(0.,1.,0.));
#1112=DIRECTION($,(0.,-1.,0.));
#1113=DIRECTION($,(1.,0.,2.22044604925031E-016));
#1114=DIRECTION($,(0.,-1.,0.));
#1115=DIRECTION($,(-1.,0.,-2.22044604925031E-016));
#1116=DIRECTION('center_axis',(0.,1.,0.));
#1117=DIRECTION('ref_axis',(2.22044604925031E-016,0.,-1.));
#1118=DIRECTION($,(-2.22044604925031E-016,0.,1.));
#1119=DIRECTION($,(1.,0.,2.22044604925031E-016));
#1120=DIRECTION($,(2.22044604925031E-016,0.,-1.));
#1121=DIRECTION('center_axis',(-1.,0.,-2.22044604925031E-016));
#1122=DIRECTION('ref_axis',(0.,1.,0.));
#1123=DIRECTION($,(0.,-1.,0.));
#1124=DIRECTION($,(-2.22044604925031E-016,0.,1.));
#1125=DIRECTION($,(0.,-1.,0.));
#1126=DIRECTION($,(-2.22044604925031E-016,0.,1.));
#1127=DIRECTION('center_axis',(2.22044604925031E-016,0.,-1.));
#1128=DIRECTION('ref_axis',(0.,-1.,0.));
#1129=DIRECTION($,(0.,-1.,0.));
#1130=DIRECTION($,(-1.,0.,-2.22044604925031E-016));
#1131=DIRECTION('center_axis',(1.,0.,2.22044604925031E-016));
#1132=DIRECTION('ref_axis',(0.,-1.,0.));
#1133=DIRECTION($,(0.,-1.,0.));
#1134=DIRECTION($,(2.22044604925031E-016,0.,-1.));
#1135=DIRECTION($,(2.22044604925031E-016,0.,-1.));
#1136=DIRECTION('center_axis',(-2.22044604925031E-016,0.,1.));
#1137=DIRECTION('ref_axis',(0.,1.,0.));
#1138=DIRECTION($,(1.,0.,2.22044604925031E-016));
#1139=DIRECTION('center_axis',(0.,-1.,0.));
#1140=DIRECTION('ref_axis',(1.,0.,2.22044604925031E-016));
#1141=DIRECTION($,(2.22044604925031E-016,0.,-1.));
#1142=DIRECTION($,(-1.,0.,-2.22044604925031E-016));
#1143=DIRECTION($,(-2.22044604925031E-016,0.,1.));
#1144=DIRECTION($,(1.,0.,2.22044604925031E-016));
#1145=DIRECTION('center_axis',(-2.22044604925031E-016,0.,1.));
#1146=DIRECTION('ref_axis',(-1.,0.,-2.22044604925031E-016));
#1147=DIRECTION($,(0.,1.,0.));
#1148=DIRECTION($,(0.,1.,0.));
#1149=DIRECTION('center_axis',(1.,0.,2.22044604925031E-016));
#1150=DIRECTION('ref_axis',(0.,1.,0.));
#1151=DIRECTION($,(0.,1.,0.));
#1152=DIRECTION('center_axis',(2.22044604925031E-016,0.,-1.));
#1153=DIRECTION('ref_axis',(1.,0.,2.22044604925031E-016));
#1154=DIRECTION($,(0.,1.,0.));
#1155=DIRECTION('center_axis',(-1.,0.,-2.22044604925031E-016));
#1156=DIRECTION('ref_axis',(0.,-1.,0.));
#1157=DIRECTION('center_axis',(0.,1.,0.));
#1158=DIRECTION('ref_axis',(0.,0.,1.));
#1159=DIRECTION($,(-1.,0.,0.));
#1160=DIRECTION($,(0.,0.,1.));
#1161=DIRECTION($,(-1.,0.,0.));
#1162=DIRECTION($,(0.,0.,1.));
#1163=DIRECTION('center_axis',(1.,0.,0.));
#1164=DIRECTION('ref_axis',(0.,0.,-1.));
#1165=DIRECTION($,(0.,1.,0.));
#1166=DIRECTION($,(0.,1.,0.));
#1167=DIRECTION($,(0.,0.,1.));
#1168=DIRECTION('center_axis',(0.,-1.,0.));
#1169=DIRECTION('ref_axis',(0.,0.,-1.));
#1170=DIRECTION($,(1.,0.,0.));
#1171=DIRECTION($,(1.,0.,0.));
#1172=DIRECTION($,(0.,0.,1.));
#1173=DIRECTION('center_axis',(-1.,0.,0.));
#1174=DIRECTION('ref_axis',(0.,0.,1.));
#1175=DIRECTION($,(0.,-1.,0.));
#1176=DIRECTION($,(0.,-1.,0.));
#1177=DIRECTION('center_axis',(0.,0.,1.));
#1178=DIRECTION('ref_axis',(1.,0.,0.));
#1179=DIRECTION('center_axis',(0.,0.,1.));
#1180=DIRECTION('ref_axis',(1.,0.,0.));
#1181=DIRECTION('center_axis',(0.,1.,0.));
#1182=DIRECTION('ref_axis',(-1.,0.,0.));
#1183=DIRECTION($,(-1.,0.,0.));
#1184=DIRECTION($,(0.,0.,1.));
#1185=DIRECTION($,(-1.,0.,0.));
#1186=DIRECTION($,(0.,0.,1.));
#1187=DIRECTION('center_axis',(1.,0.,0.));
#1188=DIRECTION('ref_axis',(0.,1.,0.));
#1189=DIRECTION($,(0.,1.,0.));
#1190=DIRECTION($,(0.,1.,0.));
#1191=DIRECTION($,(0.,0.,1.));
#1192=DIRECTION('center_axis',(0.,-1.,0.));
#1193=DIRECTION('ref_axis',(1.,0.,0.));
#1194=DIRECTION($,(1.,0.,0.));
#1195=DIRECTION($,(1.,0.,0.));
#1196=DIRECTION($,(0.,0.,1.));
#1197=DIRECTION('center_axis',(-1.,0.,0.));
#1198=DIRECTION('ref_axis',(0.,-1.,0.));
#1199=DIRECTION($,(0.,-1.,0.));
#1200=DIRECTION($,(0.,-1.,0.));
#1201=DIRECTION('center_axis',(0.,0.,1.));
#1202=DIRECTION('ref_axis',(1.,0.,0.));
#1203=DIRECTION('center_axis',(0.,0.,1.));
#1204=DIRECTION('ref_axis',(1.,0.,0.));
#1205=CARTESIAN_POINT('',(0.,0.,0.));
#1206=CARTESIAN_POINT('Origin',(-2.03669032072529,9.24856810993008,1.32650000000004));
#1207=CARTESIAN_POINT('',(-1.88669032072529,9.24856810993008,1.21400000000004));
#1208=CARTESIAN_POINT('',(-1.88669032072529,9.24856810993008,1.43900000000004));
#1209=CARTESIAN_POINT($,(-1.88669032072529,9.24856810993008,1.32650000000004));
#1210=CARTESIAN_POINT('',(-2.1866903207253,9.24856810993008,1.43900000000004));
#1211=CARTESIAN_POINT($,(-2.03669032072529,9.24856810993008,1.43900000000004));
#1212=CARTESIAN_POINT('',(-2.1866903207253,9.24856810993008,1.21400000000004));
#1213=CARTESIAN_POINT($,(-2.1866903207253,9.24856810993008,1.32650000000004));
#1214=CARTESIAN_POINT($,(-2.03669032072529,9.24856810993008,1.21400000000004));
#1215=CARTESIAN_POINT('Origin',(-2.03669032072529,9.25856810993008,1.32650000000004));
#1216=CARTESIAN_POINT('',(-1.88669032072529,9.25856810993008,1.43900000000004));
#1217=CARTESIAN_POINT('',(-1.88669032072529,9.25856810993008,1.21400000000004));
#1218=CARTESIAN_POINT($,(-1.88669032072529,9.25856810993008,1.32650000000004));
#1219=CARTESIAN_POINT('',(-2.1866903207253,9.25856810993008,1.21400000000004));
#1220=CARTESIAN_POINT($,(-2.03669032072529,9.25856810993008,1.21400000000004));
#1221=CARTESIAN_POINT('',(-2.1866903207253,9.25856810993008,1.43900000000004));
#1222=CARTESIAN_POINT($,(-2.1866903207253,9.25856810993008,1.32650000000004));
#1223=CARTESIAN_POINT($,(-2.03669032072529,9.25856810993008,1.43900000000004));
#1224=CARTESIAN_POINT('Origin',(-2.03669032072529,9.25356810993008,1.21400000000004));
#1225=CARTESIAN_POINT($,(-2.1866903207253,9.25356810993008,1.21400000000004));
#1226=CARTESIAN_POINT($,(-1.88669032072529,9.25356810993008,1.21400000000004));
#1227=CARTESIAN_POINT('Origin',(-2.1866903207253,9.25356810993008,1.32650000000004));
#1228=CARTESIAN_POINT($,(-2.1866903207253,9.25356810993008,1.43900000000004));
#1229=CARTESIAN_POINT('Origin',(-2.03669032072529,9.25356810993008,1.43900000000004));
#1230=CARTESIAN_POINT($,(-1.88669032072529,9.25356810993008,1.43900000000004));
#1231=CARTESIAN_POINT('Origin',(-1.88669032072529,9.25356810993008,1.32650000000004));
#1232=CARTESIAN_POINT('Origin',(-1.3066903207253,9.24856810993008,0.306500000000038));
#1233=CARTESIAN_POINT('',(-1.3066903207253,9.24856810993008,0.306500000000038));
#1234=CARTESIAN_POINT('',(-1.8466903207253,9.24856810993008,0.306500000000038));
#1235=CARTESIAN_POINT($,(-1.3066903207253,9.24856810993008,0.306500000000038));
#1236=CARTESIAN_POINT('',(-1.8466903207253,9.24856810993008,1.74650000000003));
#1237=CARTESIAN_POINT($,(-1.8466903207253,9.24856810993008,0.306500000000038));
#1238=CARTESIAN_POINT('',(-1.3066903207253,9.24856810993008,1.74650000000003));
#1239=CARTESIAN_POINT($,(-2.0004815564869,9.24856810993008,1.74650000000003));
#1240=CARTESIAN_POINT($,(-1.3066903207253,9.24856810993008,0.306500000000038));
#1241=CARTESIAN_POINT('Origin',(-1.3066903207253,8.70856810993008,0.306500000000038));
#1242=CARTESIAN_POINT('',(-1.3066903207253,8.70856810993008,0.306500000000038));
#1243=CARTESIAN_POINT($,(-1.3066903207253,8.70856810993008,0.306500000000038));
#1244=CARTESIAN_POINT('',(-1.3066903207253,8.70856810993008,1.74650000000003));
#1245=CARTESIAN_POINT($,(-1.3066903207253,7.9348418663209,1.74650000000003));
#1246=CARTESIAN_POINT($,(-1.3066903207253,8.70856810993008,0.306500000000038));
#1247=CARTESIAN_POINT('Origin',(-1.8466903207253,8.70856810993008,0.306500000000038));
#1248=CARTESIAN_POINT('',(-1.8466903207253,8.70856810993008,0.306500000000038));
#1249=CARTESIAN_POINT($,(-1.8466903207253,8.70856810993008,0.306500000000038));
#1250=CARTESIAN_POINT('',(-1.8466903207253,8.70856810993008,1.74650000000003));
#1251=CARTESIAN_POINT($,(-2.2704815564869,8.70856810993008,1.74650000000003));
#1252=CARTESIAN_POINT($,(-1.8466903207253,8.70856810993008,0.306500000000038));
#1253=CARTESIAN_POINT('Origin',(-1.8466903207253,9.24856810993008,0.306500000000038));
#1254=CARTESIAN_POINT($,(-1.8466903207253,9.24856810993008,0.306500000000038));
#1255=CARTESIAN_POINT($,(-1.8466903207253,8.2048418663209,1.74650000000003));
#1256=CARTESIAN_POINT('Origin',(-2.6942727922485,7.16111562271172,1.74650000000003));
#1257=CARTESIAN_POINT('Origin',(-2.6942727922485,7.16111562271172,0.306500000000038));
#1258=CARTESIAN_POINT('Origin',(-1.7866903207253,9.22951804584317,1.02650000000004));
#1259=CARTESIAN_POINT('',(-1.8352903207253,9.22951804584317,0.945500000000036));
#1260=CARTESIAN_POINT('',(-1.7380903207253,9.22951804584317,0.945500000000036));
#1261=CARTESIAN_POINT($,(-1.7866903207253,9.22951804584317,0.945500000000036));
#1262=CARTESIAN_POINT('',(-1.7380903207253,9.22951804584317,1.10750000000004));
#1263=CARTESIAN_POINT($,(-1.7380903207253,9.22951804584317,1.02650000000004));
#1264=CARTESIAN_POINT('',(-1.8352903207253,9.22951804584317,1.10750000000004));
#1265=CARTESIAN_POINT($,(-1.7866903207253,9.22951804584317,1.10750000000004));
#1266=CARTESIAN_POINT($,(-1.8352903207253,9.22951804584317,1.02650000000004));
#1267=CARTESIAN_POINT('Origin',(-1.7866903207253,9.28571830219082,1.02650000000003));
#1268=CARTESIAN_POINT('',(-1.7966903207253,9.28571830219082,1.07650000000003));
#1269=CARTESIAN_POINT('',(-1.7966903207253,9.28571830219082,0.976500000000035));
#1270=CARTESIAN_POINT($,(-1.7966903207253,9.28571830219082,1.02650000000003));
#1271=CARTESIAN_POINT('',(-1.7766903207253,9.28571830219082,0.976500000000035));
#1272=CARTESIAN_POINT($,(-1.7866903207253,9.28571830219082,0.976500000000035));
#1273=CARTESIAN_POINT('',(-1.7766903207253,9.28571830219082,1.07650000000003));
#1274=CARTESIAN_POINT($,(-1.7766903207253,9.28571830219082,1.02650000000003));
#1275=CARTESIAN_POINT($,(-1.7866903207253,9.28571830219082,1.07650000000004));
#1276=CARTESIAN_POINT('Origin',(-1.7866903207253,9.27571830219082,0.976500000000035));
#1277=CARTESIAN_POINT('',(-1.7966903207253,9.24571830219082,0.976500000000035));
#1278=CARTESIAN_POINT($,(-1.7966903207253,9.27571830219082,0.976500000000035));
#1279=CARTESIAN_POINT('',(-1.7766903207253,9.24571830219082,0.976500000000035));
#1280=CARTESIAN_POINT($,(-1.7866903207253,9.24571804584316,0.976500000000035));
#1281=CARTESIAN_POINT($,(-1.7766903207253,9.27571830219082,0.976500000000035));
#1282=CARTESIAN_POINT('Origin',(-1.7866903207253,9.27571830219082,0.956500000000035));
#1283=CARTESIAN_POINT('',(-1.7766903207253,9.30571830219082,0.956500000000035));
#1284=CARTESIAN_POINT('',(-1.7766903207253,9.24571830219082,0.956500000000035));
#1285=CARTESIAN_POINT($,(-1.7766903207253,9.27571830219082,0.956500000000035));
#1286=CARTESIAN_POINT('',(-1.7966903207253,9.24571830219082,0.956500000000035));
#1287=CARTESIAN_POINT($,(-1.7866903207253,9.24571804584316,0.956500000000035));
#1288=CARTESIAN_POINT('',(-1.7966903207253,9.30571830219082,0.956500000000035));
#1289=CARTESIAN_POINT($,(-1.7966903207253,9.27571830219082,0.956500000000035));
#1290=CARTESIAN_POINT($,(-1.7866903207253,9.30571830219082,0.956500000000035));
#1291=CARTESIAN_POINT('Origin',(-1.7866903207253,9.30571830219082,1.08650000000004));
#1292=CARTESIAN_POINT('',(-1.7966903207253,9.30571830219082,1.09650000000004));
#1293=CARTESIAN_POINT($,(-1.7966903207253,9.30571830219082,1.08650000000004));
#1294=CARTESIAN_POINT('',(-1.7766903207253,9.30571830219082,1.09650000000004));
#1295=CARTESIAN_POINT($,(-1.7866903207253,9.30571830219082,1.09650000000004));
#1296=CARTESIAN_POINT($,(-1.7766903207253,9.30571830219082,0.966500000000035));
#1297=CARTESIAN_POINT('Origin',(-1.7766903207253,9.27571830219082,1.08650000000004));
#1298=CARTESIAN_POINT('',(-1.7766903207253,9.24571830219082,1.09650000000004));
#1299=CARTESIAN_POINT($,(-1.7766903207253,9.27571830219082,1.09650000000004));
#1300=CARTESIAN_POINT('',(-1.7766903207253,9.24571830219082,1.07650000000004));
#1301=CARTESIAN_POINT($,(-1.7766903207253,9.24571804584316,1.05650000000004));
#1302=CARTESIAN_POINT($,(-1.7766903207253,9.27571830219082,1.07650000000004));
#1303=CARTESIAN_POINT($,(-1.7766903207253,9.24571804584316,0.996500000000035));
#1304=CARTESIAN_POINT('Origin',(-1.7866903207253,9.27571830219082,1.09650000000004));
#1305=CARTESIAN_POINT('',(-1.7966903207253,9.24571830219082,1.09650000000004));
#1306=CARTESIAN_POINT($,(-1.7966903207253,9.27571830219082,1.09650000000004));
#1307=CARTESIAN_POINT($,(-1.7866903207253,9.24571804584316,1.09650000000004));
#1308=CARTESIAN_POINT('Origin',(-1.7966903207253,9.27571830219082,1.08650000000004));
#1309=CARTESIAN_POINT('',(-1.7966903207253,9.24571830219082,1.07650000000004));
#1310=CARTESIAN_POINT($,(-1.7966903207253,9.27571830219082,1.07650000000004));
#1311=CARTESIAN_POINT($,(-1.7966903207253,9.24571804584316,1.05650000000004));
#1312=CARTESIAN_POINT($,(-1.7966903207253,9.24571804584316,0.996500000000035));
#1313=CARTESIAN_POINT('Origin',(-1.7866903207253,9.27571830219082,1.07650000000004));
#1314=CARTESIAN_POINT($,(-1.7866903207253,9.24571804584316,1.07650000000004));
#1315=CARTESIAN_POINT('Origin',(-1.7866903207253,9.24571804584316,1.02650000000003));
#1316=CARTESIAN_POINT('',(-1.7380903207253,9.24571804584316,1.10750000000004));
#1317=CARTESIAN_POINT('',(-1.7380903207253,9.24571804584316,0.945500000000036));
#1318=CARTESIAN_POINT($,(-1.7380903207253,9.24571804584316,1.02650000000003));
#1319=CARTESIAN_POINT('',(-1.8352903207253,9.24571804584316,0.945500000000036));
#1320=CARTESIAN_POINT($,(-1.7866903207253,9.24571804584316,0.945500000000036));
#1321=CARTESIAN_POINT('',(-1.8352903207253,9.24571804584316,1.10750000000004));
#1322=CARTESIAN_POINT($,(-1.8352903207253,9.24571804584316,1.02650000000003));
#1323=CARTESIAN_POINT($,(-1.7866903207253,9.24571804584316,1.10750000000004));
#1324=CARTESIAN_POINT('Origin',(-1.7866903207253,9.23761804584317,0.945500000000036));
#1325=CARTESIAN_POINT($,(-1.8352903207253,9.23761804584317,0.945500000000036));
#1326=CARTESIAN_POINT($,(-1.7380903207253,9.23761804584317,0.945500000000036));
#1327=CARTESIAN_POINT('Origin',(-1.8352903207253,9.23761804584317,1.02650000000003));
#1328=CARTESIAN_POINT($,(-1.8352903207253,9.23761804584317,1.10750000000004));
#1329=CARTESIAN_POINT('Origin',(-1.7866903207253,9.23761804584317,1.10750000000004));
#1330=CARTESIAN_POINT($,(-1.7380903207253,9.23761804584317,1.10750000000004));
#1331=CARTESIAN_POINT('Origin',(-1.7380903207253,9.23761804584317,1.02650000000003));
#1332=CARTESIAN_POINT('Origin',(-1.9266903207253,9.22951804584317,1.02650000000004));
#1333=CARTESIAN_POINT('',(-1.9752903207253,9.22951804584317,0.945500000000036));
#1334=CARTESIAN_POINT('',(-1.8780903207253,9.22951804584317,0.945500000000036));
#1335=CARTESIAN_POINT($,(-1.9266903207253,9.22951804584317,0.945500000000036));
#1336=CARTESIAN_POINT('',(-1.8780903207253,9.22951804584317,1.10750000000004));
#1337=CARTESIAN_POINT($,(-1.8780903207253,9.22951804584317,1.02650000000004));
#1338=CARTESIAN_POINT('',(-1.9752903207253,9.22951804584317,1.10750000000004));
#1339=CARTESIAN_POINT($,(-1.9266903207253,9.22951804584317,1.10750000000004));
#1340=CARTESIAN_POINT($,(-1.9752903207253,9.22951804584317,1.02650000000004));
#1341=CARTESIAN_POINT('Origin',(-1.9266903207253,9.28571830219082,1.02650000000003));
#1342=CARTESIAN_POINT('',(-1.9366903207253,9.28571830219082,1.07650000000003));
#1343=CARTESIAN_POINT('',(-1.9366903207253,9.28571830219082,0.976500000000035));
#1344=CARTESIAN_POINT($,(-1.9366903207253,9.28571830219082,1.02650000000003));
#1345=CARTESIAN_POINT('',(-1.9166903207253,9.28571830219082,0.976500000000035));
#1346=CARTESIAN_POINT($,(-1.9266903207253,9.28571830219082,0.976500000000035));
#1347=CARTESIAN_POINT('',(-1.9166903207253,9.28571830219082,1.07650000000003));
#1348=CARTESIAN_POINT($,(-1.9166903207253,9.28571830219082,1.02650000000003));
#1349=CARTESIAN_POINT($,(-1.9266903207253,9.28571830219082,1.07650000000004));
#1350=CARTESIAN_POINT('Origin',(-1.9266903207253,9.27571830219082,0.976500000000035));
#1351=CARTESIAN_POINT('',(-1.9366903207253,9.24571830219082,0.976500000000035));
#1352=CARTESIAN_POINT($,(-1.9366903207253,9.27571830219082,0.976500000000035));
#1353=CARTESIAN_POINT('',(-1.9166903207253,9.24571830219082,0.976500000000035));
#1354=CARTESIAN_POINT($,(-1.9266903207253,9.24571804584316,0.976500000000035));
#1355=CARTESIAN_POINT($,(-1.9166903207253,9.27571830219082,0.976500000000035));
#1356=CARTESIAN_POINT('Origin',(-1.9266903207253,9.27571830219082,0.956500000000035));
#1357=CARTESIAN_POINT('',(-1.9166903207253,9.30571830219082,0.956500000000035));
#1358=CARTESIAN_POINT('',(-1.9166903207253,9.24571830219082,0.956500000000035));
#1359=CARTESIAN_POINT($,(-1.9166903207253,9.27571830219082,0.956500000000035));
#1360=CARTESIAN_POINT('',(-1.9366903207253,9.24571830219082,0.956500000000035));
#1361=CARTESIAN_POINT($,(-1.9266903207253,9.24571804584316,0.956500000000035));
#1362=CARTESIAN_POINT('',(-1.9366903207253,9.30571830219082,0.956500000000035));
#1363=CARTESIAN_POINT($,(-1.9366903207253,9.27571830219082,0.956500000000035));
#1364=CARTESIAN_POINT($,(-1.9266903207253,9.30571830219082,0.956500000000035));
#1365=CARTESIAN_POINT('Origin',(-1.9266903207253,9.30571830219082,1.08650000000004));
#1366=CARTESIAN_POINT('',(-1.9366903207253,9.30571830219082,1.09650000000004));
#1367=CARTESIAN_POINT($,(-1.9366903207253,9.30571830219082,1.08650000000004));
#1368=CARTESIAN_POINT('',(-1.9166903207253,9.30571830219082,1.09650000000004));
#1369=CARTESIAN_POINT($,(-1.9266903207253,9.30571830219082,1.09650000000004));
#1370=CARTESIAN_POINT($,(-1.9166903207253,9.30571830219082,0.966500000000035));
#1371=CARTESIAN_POINT('Origin',(-1.9166903207253,9.27571830219082,1.08650000000004));
#1372=CARTESIAN_POINT('',(-1.9166903207253,9.24571830219082,1.09650000000004));
#1373=CARTESIAN_POINT($,(-1.9166903207253,9.27571830219082,1.09650000000004));
#1374=CARTESIAN_POINT('',(-1.9166903207253,9.24571830219082,1.07650000000004));
#1375=CARTESIAN_POINT($,(-1.9166903207253,9.24571804584316,1.05650000000004));
#1376=CARTESIAN_POINT($,(-1.9166903207253,9.27571830219082,1.07650000000004));
#1377=CARTESIAN_POINT($,(-1.9166903207253,9.24571804584316,0.996500000000035));
#1378=CARTESIAN_POINT('Origin',(-1.9266903207253,9.27571830219082,1.09650000000004));
#1379=CARTESIAN_POINT('',(-1.9366903207253,9.24571830219082,1.09650000000004));
#1380=CARTESIAN_POINT($,(-1.9366903207253,9.27571830219082,1.09650000000004));
#1381=CARTESIAN_POINT($,(-1.9266903207253,9.24571804584316,1.09650000000004));
#1382=CARTESIAN_POINT('Origin',(-1.9366903207253,9.27571830219082,1.08650000000004));
#1383=CARTESIAN_POINT('',(-1.9366903207253,9.24571830219082,1.07650000000004));
#1384=CARTESIAN_POINT($,(-1.9366903207253,9.27571830219082,1.07650000000004));
#1385=CARTESIAN_POINT($,(-1.9366903207253,9.24571804584316,1.05650000000004));
#1386=CARTESIAN_POINT($,(-1.9366903207253,9.24571804584316,0.996500000000035));
#1387=CARTESIAN_POINT('Origin',(-1.9266903207253,9.27571830219082,1.07650000000004));
#1388=CARTESIAN_POINT($,(-1.9266903207253,9.24571804584316,1.07650000000004));
#1389=CARTESIAN_POINT('Origin',(-1.9266903207253,9.24571804584316,1.02650000000003));
#1390=CARTESIAN_POINT('',(-1.8780903207253,9.24571804584316,1.10750000000004));
#1391=CARTESIAN_POINT('',(-1.8780903207253,9.24571804584316,0.945500000000036));
#1392=CARTESIAN_POINT($,(-1.8780903207253,9.24571804584316,1.02650000000003));
#1393=CARTESIAN_POINT('',(-1.9752903207253,9.24571804584316,0.945500000000036));
#1394=CARTESIAN_POINT($,(-1.9266903207253,9.24571804584316,0.945500000000036));
#1395=CARTESIAN_POINT('',(-1.9752903207253,9.24571804584316,1.10750000000004));
#1396=CARTESIAN_POINT($,(-1.9752903207253,9.24571804584316,1.02650000000003));
#1397=CARTESIAN_POINT($,(-1.9266903207253,9.24571804584316,1.10750000000004));
#1398=CARTESIAN_POINT('Origin',(-1.9266903207253,9.23761804584317,0.945500000000036));
#1399=CARTESIAN_POINT($,(-1.9752903207253,9.23761804584317,0.945500000000036));
#1400=CARTESIAN_POINT($,(-1.8780903207253,9.23761804584317,0.945500000000036));
#1401=CARTESIAN_POINT('Origin',(-1.9752903207253,9.23761804584317,1.02650000000003));
#1402=CARTESIAN_POINT($,(-1.9752903207253,9.23761804584317,1.10750000000004));
#1403=CARTESIAN_POINT('Origin',(-1.9266903207253,9.23761804584317,1.10750000000004));
#1404=CARTESIAN_POINT($,(-1.8780903207253,9.23761804584317,1.10750000000004));
#1405=CARTESIAN_POINT('Origin',(-1.8780903207253,9.23761804584317,1.02650000000003));
#1406=CARTESIAN_POINT('Origin',(-1.8666903207253,9.24856810993008,0.306500000000038));
#1407=CARTESIAN_POINT('',(-1.8666903207253,9.24856810993008,0.306500000000038));
#1408=CARTESIAN_POINT('',(-2.4066903207253,9.24856810993008,0.306500000000038));
#1409=CARTESIAN_POINT($,(-1.8666903207253,9.24856810993008,0.306500000000038));
#1410=CARTESIAN_POINT('',(-2.4066903207253,9.24856810993008,1.74650000000003));
#1411=CARTESIAN_POINT($,(-2.4066903207253,9.24856810993008,0.306500000000038));
#1412=CARTESIAN_POINT('',(-1.8666903207253,9.24856810993008,1.74650000000003));
#1413=CARTESIAN_POINT($,(-2.5604815564869,9.24856810993008,1.74650000000003));
#1414=CARTESIAN_POINT($,(-1.8666903207253,9.24856810993008,0.306500000000038));
#1415=CARTESIAN_POINT('Origin',(-1.8666903207253,8.70856810993008,0.306500000000038));
#1416=CARTESIAN_POINT('',(-1.8666903207253,8.70856810993008,0.306500000000038));
#1417=CARTESIAN_POINT($,(-1.8666903207253,8.70856810993008,0.306500000000038));
#1418=CARTESIAN_POINT('',(-1.8666903207253,8.70856810993008,1.74650000000003));
#1419=CARTESIAN_POINT($,(-1.8666903207253,7.9348418663209,1.74650000000003));
#1420=CARTESIAN_POINT($,(-1.8666903207253,8.70856810993008,0.306500000000038));
#1421=CARTESIAN_POINT('Origin',(-2.4066903207253,8.70856810993008,0.306500000000038));
#1422=CARTESIAN_POINT('',(-2.4066903207253,8.70856810993008,0.306500000000038));
#1423=CARTESIAN_POINT($,(-2.4066903207253,8.70856810993008,0.306500000000038));
#1424=CARTESIAN_POINT('',(-2.4066903207253,8.70856810993008,1.74650000000003));
#1425=CARTESIAN_POINT($,(-2.8304815564869,8.70856810993008,1.74650000000003));
#1426=CARTESIAN_POINT($,(-2.4066903207253,8.70856810993008,0.306500000000038));
#1427=CARTESIAN_POINT('Origin',(-2.4066903207253,9.24856810993008,0.306500000000038));
#1428=CARTESIAN_POINT($,(-2.4066903207253,9.24856810993008,0.306500000000038));
#1429=CARTESIAN_POINT($,(-2.4066903207253,8.2048418663209,1.74650000000003));
#1430=CARTESIAN_POINT('Origin',(-3.2542727922485,7.16111562271172,1.74650000000003));
#1431=CARTESIAN_POINT('Origin',(-3.2542727922485,7.16111562271172,0.306500000000038));
#1432=CARTESIAN_POINT('Origin',(-1.25669032072529,9.22856810993008,0.226500000000038));
#1433=CARTESIAN_POINT('',(-1.25669032072529,9.22856810993008,0.226500000000038));
#1434=CARTESIAN_POINT('',(-2.4566903207253,9.22856810993008,0.226500000000038));
#1435=CARTESIAN_POINT($,(-1.25669032072529,9.22856810993008,0.226500000000038));
#1436=CARTESIAN_POINT('',(-2.4566903207253,9.22856810993008,1.82650000000003));
#1437=CARTESIAN_POINT($,(-2.4566903207253,9.22856810993008,0.226500000000038));
#1438=CARTESIAN_POINT('',(-1.25669032072529,9.22856810993008,1.82650000000003));
#1439=CARTESIAN_POINT($,(-2.79844862241774,9.22856810993008,1.82650000000003));
#1440=CARTESIAN_POINT($,(-1.25669032072529,9.22856810993008,0.226500000000038));
#1441=CARTESIAN_POINT('Origin',(-1.25669032072529,8.62856810993009,0.226500000000038));
#1442=CARTESIAN_POINT('',(-1.25669032072529,8.62856810993009,0.226500000000038));
#1443=CARTESIAN_POINT($,(-1.25669032072529,8.62856810993009,0.226500000000038));
#1444=CARTESIAN_POINT('',(-1.25669032072529,8.62856810993009,1.82650000000003));
#1445=CARTESIAN_POINT($,(-1.25669032072529,7.76887228369766,1.82650000000003));
#1446=CARTESIAN_POINT($,(-1.25669032072529,8.62856810993009,0.226500000000038));
#1447=CARTESIAN_POINT('Origin',(-2.4566903207253,8.62856810993009,0.226500000000038));
#1448=CARTESIAN_POINT('',(-2.4566903207253,8.62856810993009,0.226500000000038));
#1449=CARTESIAN_POINT($,(-2.4566903207253,8.62856810993009,0.226500000000038));
#1450=CARTESIAN_POINT('',(-2.4566903207253,8.62856810993009,1.82650000000003));
#1451=CARTESIAN_POINT($,(-3.39844862241774,8.62856810993009,1.82650000000003));
#1452=CARTESIAN_POINT($,(-2.4566903207253,8.62856810993009,0.226500000000038));
#1453=CARTESIAN_POINT('Origin',(-2.4566903207253,9.22856810993008,0.226500000000038));
#1454=CARTESIAN_POINT($,(-2.4566903207253,9.22856810993008,0.226500000000038));
#1455=CARTESIAN_POINT($,(-2.4566903207253,8.06887228369766,1.82650000000003));
#1456=CARTESIAN_POINT('Origin',(-4.34020692411019,6.90917645746524,1.82650000000003));
#1457=CARTESIAN_POINT('Origin',(-4.34020692411019,6.90917645746524,0.226500000000038));
#1458=UNCERTAINTY_MEASURE_WITH_UNIT(LENGTH_MEASURE(0.001),#1460,
'DISTANCE_ACCURACY_VALUE',
'Maximum model space distance between geometric entities at asserted c
onnectivities');
#1459=(
GEOMETRIC_REPRESENTATION_CONTEXT(3)
GLOBAL_UNCERTAINTY_ASSIGNED_CONTEXT((#1458))
GLOBAL_UNIT_ASSIGNED_CONTEXT((#1460,#1462,#1461))
REPRESENTATION_CONTEXT('','3D')
);
#1460=(
LENGTH_UNIT()
NAMED_UNIT(*)
SI_UNIT(.CENTI.,.METRE.)
);
#1461=(
NAMED_UNIT(*)
SI_UNIT($,.STERADIAN.)
SOLID_ANGLE_UNIT()
);
#1462=(
NAMED_UNIT(*)
PLANE_ANGLE_UNIT()
SI_UNIT($,.RADIAN.)
);
#1463=SHAPE_DEFINITION_REPRESENTATION(#1464,#1465);
#1464=PRODUCT_DEFINITION_SHAPE('',$,#1467);
#1465=SHAPE_REPRESENTATION('',(#926),#1459);
#1466=PRODUCT_DEFINITION_CONTEXT('3D Mechanical Parts',#1470,'design');
#1467=PRODUCT_DEFINITION('cabinet 3','cabinet 3',#1468,#1466);
#1468=PRODUCT_DEFINITION_FORMATION('',$,#1472);
#1469=APPLICATION_PROTOCOL_DEFINITION('international standard',
'automotive_design',2009,#1470);
#1470=APPLICATION_CONTEXT(
'Core Data for Automotive Mechanical Design Process');
#1471=PRODUCT_CONTEXT('3D Mechanical Parts',#1470,'mechanical');
#1472=PRODUCT('cabinet 3','cabinet 3',$,(#1471));
#1473=PRESENTATION_STYLE_ASSIGNMENT((#1476));
#1474=PRESENTATION_STYLE_ASSIGNMENT((#1477));
#1475=PRESENTATION_STYLE_ASSIGNMENT((#1478));
#1476=SURFACE_STYLE_USAGE(.BOTH.,#1479);
#1477=SURFACE_STYLE_USAGE(.BOTH.,#1480);
#1478=SURFACE_STYLE_USAGE(.BOTH.,#1481);
#1479=SURFACE_SIDE_STYLE($,(#1482));
#1480=SURFACE_SIDE_STYLE($,(#1483));
#1481=SURFACE_SIDE_STYLE($,(#1484));
#1482=SURFACE_STYLE_FILL_AREA(#1485);
#1483=SURFACE_STYLE_FILL_AREA(#1486);
#1484=SURFACE_STYLE_FILL_AREA(#1487);
#1485=FILL_AREA_STYLE($,(#1488));
#1486=FILL_AREA_STYLE($,(#1489));
#1487=FILL_AREA_STYLE($,(#1490));
#1488=FILL_AREA_STYLE_COLOUR($,#1491);
#1489=FILL_AREA_STYLE_COLOUR($,#1492);
#1490=FILL_AREA_STYLE_COLOUR($,#1493);
#1491=COLOUR_RGB('__RGBA_0.933333_0.854902_0.321569',0.933333333333333,
0.854901960784314,0.32156862745098);
#1492=COLOUR_RGB('__RGBA_0.827451_0.929412_0.952941',0.827450980392157,
0.929411764705882,0.952941176470588);
#1493=COLOUR_RGB('__RGBA_0.552941_0.678431_0.709804',0.552941176470588,
0.67843137254902,0.709803921568627);
ENDSEC;
END-ISO-10303-21;
