ISO-10303-21;
HEADER;
/* Generated by software containing ST-Developer
 * from STEP Tools, Inc. (www.steptools.com) 
 */

FILE_DESCRIPTION(
/* description */ (''),
/* implementation_level */ '2;1');

FILE_NAME(
/* name */ 
'C:/Users/max/Desktop/extra files/lab objects/cabinet 1/Step file/cabi
net 1.stp',
/* time_stamp */ '2025-12-06T04:01:08+00:00',
/* author */ (''),
/* organization */ (''),
/* preprocessor_version */ 'ST-DEVELOPER v15.2',
/* originating_system */ 'Autodesk Translator Framework v2.0.0.5431',
/* authorisation */ '');

FILE_SCHEMA (('AUTOMOTIVE_DESIGN { 1 0 10303 214 3 1 1 }'));
ENDSEC;

DATA;
#10=SHAPE_REPRESENTATION_RELATIONSHIP('SRR','None',#627,#11);
#11=ADVANCED_BREP_SHAPE_REPRESENTATION($,(#388,#389,#390,#391),#621);
#12=STYLED_ITEM($,(#635),#388);
#13=STYLED_ITEM($,(#635),#389);
#14=STYLED_ITEM($,(#635),#390);
#15=STYLED_ITEM($,(#636),#391);
#16=FACE_OUTER_BOUND($,#40,.T.);
#17=FACE_OUTER_BOUND($,#41,.T.);
#18=FACE_OUTER_BOUND($,#42,.T.);
#19=FACE_OUTER_BOUND($,#43,.T.);
#20=FACE_OUTER_BOUND($,#44,.T.);
#21=FACE_OUTER_BOUND($,#45,.T.);
#22=FACE_OUTER_BOUND($,#46,.T.);
#23=FACE_OUTER_BOUND($,#47,.T.);
#24=FACE_OUTER_BOUND($,#48,.T.);
#25=FACE_OUTER_BOUND($,#49,.T.);
#26=FACE_OUTER_BOUND($,#50,.T.);
#27=FACE_OUTER_BOUND($,#51,.T.);
#28=FACE_OUTER_BOUND($,#52,.T.);
#29=FACE_OUTER_BOUND($,#53,.T.);
#30=FACE_OUTER_BOUND($,#54,.T.);
#31=FACE_OUTER_BOUND($,#55,.T.);
#32=FACE_OUTER_BOUND($,#56,.T.);
#33=FACE_OUTER_BOUND($,#57,.T.);
#34=FACE_OUTER_BOUND($,#58,.T.);
#35=FACE_OUTER_BOUND($,#59,.T.);
#36=FACE_OUTER_BOUND($,#60,.T.);
#37=FACE_OUTER_BOUND($,#61,.T.);
#38=FACE_OUTER_BOUND($,#62,.T.);
#39=FACE_OUTER_BOUND($,#63,.T.);
#40=EDGE_LOOP($,(#240,#241,#242,#243));
#41=EDGE_LOOP($,(#244,#245,#246,#247));
#42=EDGE_LOOP($,(#248,#249,#250,#251));
#43=EDGE_LOOP($,(#252,#253,#254,#255));
#44=EDGE_LOOP($,(#256,#257,#258,#259));
#45=EDGE_LOOP($,(#260,#261,#262,#263));
#46=EDGE_LOOP($,(#264,#265,#266,#267));
#47=EDGE_LOOP($,(#268,#269,#270,#271));
#48=EDGE_LOOP($,(#272,#273,#274,#275));
#49=EDGE_LOOP($,(#276,#277,#278,#279));
#50=EDGE_LOOP($,(#280,#281,#282,#283));
#51=EDGE_LOOP($,(#284,#285,#286,#287));
#52=EDGE_LOOP($,(#288,#289,#290,#291));
#53=EDGE_LOOP($,(#292,#293,#294,#295));
#54=EDGE_LOOP($,(#296,#297,#298,#299));
#55=EDGE_LOOP($,(#300,#301,#302,#303));
#56=EDGE_LOOP($,(#304,#305,#306,#307));
#57=EDGE_LOOP($,(#308,#309,#310,#311));
#58=EDGE_LOOP($,(#312,#313,#314,#315));
#59=EDGE_LOOP($,(#316,#317,#318,#319));
#60=EDGE_LOOP($,(#320,#321,#322,#323));
#61=EDGE_LOOP($,(#324,#325,#326,#327));
#62=EDGE_LOOP($,(#328,#329,#330,#331));
#63=EDGE_LOOP($,(#332,#333,#334,#335));
#64=LINE($,#519,#112);
#65=LINE($,#521,#113);
#66=LINE($,#523,#114);
#67=LINE($,#524,#115);
#68=LINE($,#527,#116);
#69=LINE($,#529,#117);
#70=LINE($,#530,#118);
#71=LINE($,#533,#119);
#72=LINE($,#535,#120);
#73=LINE($,#536,#121);
#74=LINE($,#538,#122);
#75=LINE($,#539,#123);
#76=LINE($,#545,#124);
#77=LINE($,#547,#125);
#78=LINE($,#549,#126);
#79=LINE($,#550,#127);
#80=LINE($,#554,#128);
#81=LINE($,#556,#129);
#82=LINE($,#558,#130);
#83=LINE($,#559,#131);
#84=LINE($,#561,#132);
#85=LINE($,#562,#133);
#86=LINE($,#564,#134);
#87=LINE($,#566,#135);
#88=LINE($,#571,#136);
#89=LINE($,#573,#137);
#90=LINE($,#575,#138);
#91=LINE($,#576,#139);
#92=LINE($,#580,#140);
#93=LINE($,#582,#141);
#94=LINE($,#584,#142);
#95=LINE($,#585,#143);
#96=LINE($,#587,#144);
#97=LINE($,#588,#145);
#98=LINE($,#590,#146);
#99=LINE($,#592,#147);
#100=LINE($,#597,#148);
#101=LINE($,#599,#149);
#102=LINE($,#601,#150);
#103=LINE($,#602,#151);
#104=LINE($,#606,#152);
#105=LINE($,#608,#153);
#106=LINE($,#610,#154);
#107=LINE($,#611,#155);
#108=LINE($,#613,#156);
#109=LINE($,#614,#157);
#110=LINE($,#616,#158);
#111=LINE($,#618,#159);
#112=VECTOR($,#421,0.6);
#113=VECTOR($,#422,1.99999999999999);
#114=VECTOR($,#423,0.600000000000001);
#115=VECTOR($,#424,1.99999999999999);
#116=VECTOR($,#427,0.6);
#117=VECTOR($,#428,0.599999999999994);
#118=VECTOR($,#429,1.99999999999999);
#119=VECTOR($,#432,0.6);
#120=VECTOR($,#433,0.600000000000001);
#121=VECTOR($,#434,1.99999999999999);
#122=VECTOR($,#437,0.6);
#123=VECTOR($,#438,0.599999999999994);
#124=VECTOR($,#445,0.8);
#125=VECTOR($,#446,0.5);
#126=VECTOR($,#447,0.8);
#127=VECTOR($,#448,0.5);
#128=VECTOR($,#451,0.8);
#129=VECTOR($,#452,0.5);
#130=VECTOR($,#453,0.8);
#131=VECTOR($,#454,0.5);
#132=VECTOR($,#457,0.00999999999999979);
#133=VECTOR($,#458,0.00999999999999979);
#134=VECTOR($,#461,0.00999999999999979);
#135=VECTOR($,#464,0.00999999999999979);
#136=VECTOR($,#469,0.8);
#137=VECTOR($,#470,0.5);
#138=VECTOR($,#471,0.8);
#139=VECTOR($,#472,0.5);
#140=VECTOR($,#475,0.8);
#141=VECTOR($,#476,0.5);
#142=VECTOR($,#477,0.8);
#143=VECTOR($,#478,0.5);
#144=VECTOR($,#481,0.00999999999999979);
#145=VECTOR($,#482,0.00999999999999979);
#146=VECTOR($,#485,0.00999999999999979);
#147=VECTOR($,#488,0.00999999999999979);
#148=VECTOR($,#493,0.0499999999999998);
#149=VECTOR($,#494,0.199999999999999);
#150=VECTOR($,#495,0.0499999999999998);
#151=VECTOR($,#496,0.199999999999999);
#152=VECTOR($,#499,0.0499999999999998);
#153=VECTOR($,#500,0.199999999999999);
#154=VECTOR($,#501,0.0499999999999998);
#155=VECTOR($,#502,0.199999999999999);
#156=VECTOR($,#505,0.00999999999999979);
#157=VECTOR($,#506,0.00999999999999979);
#158=VECTOR($,#509,0.00999999999999979);
#159=VECTOR($,#512,0.00999999999999979);
#160=VERTEX_POINT($,#517);
#161=VERTEX_POINT($,#518);
#162=VERTEX_POINT($,#520);
#163=VERTEX_POINT($,#522);
#164=VERTEX_POINT($,#526);
#165=VERTEX_POINT($,#528);
#166=VERTEX_POINT($,#532);
#167=VERTEX_POINT($,#534);
#168=VERTEX_POINT($,#543);
#169=VERTEX_POINT($,#544);
#170=VERTEX_POINT($,#546);
#171=VERTEX_POINT($,#548);
#172=VERTEX_POINT($,#552);
#173=VERTEX_POINT($,#553);
#174=VERTEX_POINT($,#555);
#175=VERTEX_POINT($,#557);
#176=VERTEX_POINT($,#569);
#177=VERTEX_POINT($,#570);
#178=VERTEX_POINT($,#572);
#179=VERTEX_POINT($,#574);
#180=VERTEX_POINT($,#578);
#181=VERTEX_POINT($,#579);
#182=VERTEX_POINT($,#581);
#183=VERTEX_POINT($,#583);
#184=VERTEX_POINT($,#595);
#185=VERTEX_POINT($,#596);
#186=VERTEX_POINT($,#598);
#187=VERTEX_POINT($,#600);
#188=VERTEX_POINT($,#604);
#189=VERTEX_POINT($,#605);
#190=VERTEX_POINT($,#607);
#191=VERTEX_POINT($,#609);
#192=EDGE_CURVE($,#160,#161,#64,.T.);
#193=EDGE_CURVE($,#160,#162,#65,.T.);
#194=EDGE_CURVE($,#163,#162,#66,.T.);
#195=EDGE_CURVE($,#161,#163,#67,.T.);
#196=EDGE_CURVE($,#161,#164,#68,.T.);
#197=EDGE_CURVE($,#165,#163,#69,.T.);
#198=EDGE_CURVE($,#164,#165,#70,.T.);
#199=EDGE_CURVE($,#164,#166,#71,.T.);
#200=EDGE_CURVE($,#167,#165,#72,.T.);
#201=EDGE_CURVE($,#166,#167,#73,.T.);
#202=EDGE_CURVE($,#166,#160,#74,.T.);
#203=EDGE_CURVE($,#162,#167,#75,.T.);
#204=EDGE_CURVE($,#168,#169,#76,.T.);
#205=EDGE_CURVE($,#169,#170,#77,.T.);
#206=EDGE_CURVE($,#170,#171,#78,.T.);
#207=EDGE_CURVE($,#171,#168,#79,.T.);
#208=EDGE_CURVE($,#172,#173,#80,.T.);
#209=EDGE_CURVE($,#173,#174,#81,.T.);
#210=EDGE_CURVE($,#174,#175,#82,.T.);
#211=EDGE_CURVE($,#175,#172,#83,.T.);
#212=EDGE_CURVE($,#171,#174,#84,.T.);
#213=EDGE_CURVE($,#168,#173,#85,.T.);
#214=EDGE_CURVE($,#170,#175,#86,.T.);
#215=EDGE_CURVE($,#169,#172,#87,.T.);
#216=EDGE_CURVE($,#176,#177,#88,.T.);
#217=EDGE_CURVE($,#177,#178,#89,.T.);
#218=EDGE_CURVE($,#178,#179,#90,.T.);
#219=EDGE_CURVE($,#179,#176,#91,.T.);
#220=EDGE_CURVE($,#180,#181,#92,.T.);
#221=EDGE_CURVE($,#181,#182,#93,.T.);
#222=EDGE_CURVE($,#182,#183,#94,.T.);
#223=EDGE_CURVE($,#183,#180,#95,.T.);
#224=EDGE_CURVE($,#179,#182,#96,.T.);
#225=EDGE_CURVE($,#176,#181,#97,.T.);
#226=EDGE_CURVE($,#178,#183,#98,.T.);
#227=EDGE_CURVE($,#177,#180,#99,.T.);
#228=EDGE_CURVE($,#184,#185,#100,.T.);
#229=EDGE_CURVE($,#185,#186,#101,.T.);
#230=EDGE_CURVE($,#186,#187,#102,.T.);
#231=EDGE_CURVE($,#187,#184,#103,.T.);
#232=EDGE_CURVE($,#188,#189,#104,.T.);
#233=EDGE_CURVE($,#189,#190,#105,.T.);
#234=EDGE_CURVE($,#190,#191,#106,.T.);
#235=EDGE_CURVE($,#191,#188,#107,.T.);
#236=EDGE_CURVE($,#187,#190,#108,.T.);
#237=EDGE_CURVE($,#184,#189,#109,.T.);
#238=EDGE_CURVE($,#186,#191,#110,.T.);
#239=EDGE_CURVE($,#185,#188,#111,.T.);
#240=ORIENTED_EDGE($,*,*,#192,.F.);
#241=ORIENTED_EDGE($,*,*,#193,.T.);
#242=ORIENTED_EDGE($,*,*,#194,.F.);
#243=ORIENTED_EDGE($,*,*,#195,.F.);
#244=ORIENTED_EDGE($,*,*,#196,.F.);
#245=ORIENTED_EDGE($,*,*,#195,.T.);
#246=ORIENTED_EDGE($,*,*,#197,.F.);
#247=ORIENTED_EDGE($,*,*,#198,.F.);
#248=ORIENTED_EDGE($,*,*,#199,.F.);
#249=ORIENTED_EDGE($,*,*,#198,.T.);
#250=ORIENTED_EDGE($,*,*,#200,.F.);
#251=ORIENTED_EDGE($,*,*,#201,.F.);
#252=ORIENTED_EDGE($,*,*,#202,.F.);
#253=ORIENTED_EDGE($,*,*,#201,.T.);
#254=ORIENTED_EDGE($,*,*,#203,.F.);
#255=ORIENTED_EDGE($,*,*,#193,.F.);
#256=ORIENTED_EDGE($,*,*,#203,.T.);
#257=ORIENTED_EDGE($,*,*,#200,.T.);
#258=ORIENTED_EDGE($,*,*,#197,.T.);
#259=ORIENTED_EDGE($,*,*,#194,.T.);
#260=ORIENTED_EDGE($,*,*,#202,.T.);
#261=ORIENTED_EDGE($,*,*,#192,.T.);
#262=ORIENTED_EDGE($,*,*,#196,.T.);
#263=ORIENTED_EDGE($,*,*,#199,.T.);
#264=ORIENTED_EDGE($,*,*,#204,.T.);
#265=ORIENTED_EDGE($,*,*,#205,.T.);
#266=ORIENTED_EDGE($,*,*,#206,.T.);
#267=ORIENTED_EDGE($,*,*,#207,.T.);
#268=ORIENTED_EDGE($,*,*,#208,.T.);
#269=ORIENTED_EDGE($,*,*,#209,.T.);
#270=ORIENTED_EDGE($,*,*,#210,.T.);
#271=ORIENTED_EDGE($,*,*,#211,.T.);
#272=ORIENTED_EDGE($,*,*,#212,.T.);
#273=ORIENTED_EDGE($,*,*,#209,.F.);
#274=ORIENTED_EDGE($,*,*,#213,.F.);
#275=ORIENTED_EDGE($,*,*,#207,.F.);
#276=ORIENTED_EDGE($,*,*,#214,.T.);
#277=ORIENTED_EDGE($,*,*,#210,.F.);
#278=ORIENTED_EDGE($,*,*,#212,.F.);
#279=ORIENTED_EDGE($,*,*,#206,.F.);
#280=ORIENTED_EDGE($,*,*,#215,.T.);
#281=ORIENTED_EDGE($,*,*,#211,.F.);
#282=ORIENTED_EDGE($,*,*,#214,.F.);
#283=ORIENTED_EDGE($,*,*,#205,.F.);
#284=ORIENTED_EDGE($,*,*,#213,.T.);
#285=ORIENTED_EDGE($,*,*,#208,.F.);
#286=ORIENTED_EDGE($,*,*,#215,.F.);
#287=ORIENTED_EDGE($,*,*,#204,.F.);
#288=ORIENTED_EDGE($,*,*,#216,.T.);
#289=ORIENTED_EDGE($,*,*,#217,.T.);
#290=ORIENTED_EDGE($,*,*,#218,.T.);
#291=ORIENTED_EDGE($,*,*,#219,.T.);
#292=ORIENTED_EDGE($,*,*,#220,.T.);
#293=ORIENTED_EDGE($,*,*,#221,.T.);
#294=ORIENTED_EDGE($,*,*,#222,.T.);
#295=ORIENTED_EDGE($,*,*,#223,.T.);
#296=ORIENTED_EDGE($,*,*,#224,.T.);
#297=ORIENTED_EDGE($,*,*,#221,.F.);
#298=ORIENTED_EDGE($,*,*,#225,.F.);
#299=ORIENTED_EDGE($,*,*,#219,.F.);
#300=ORIENTED_EDGE($,*,*,#226,.T.);
#301=ORIENTED_EDGE($,*,*,#222,.F.);
#302=ORIENTED_EDGE($,*,*,#224,.F.);
#303=ORIENTED_EDGE($,*,*,#218,.F.);
#304=ORIENTED_EDGE($,*,*,#227,.T.);
#305=ORIENTED_EDGE($,*,*,#223,.F.);
#306=ORIENTED_EDGE($,*,*,#226,.F.);
#307=ORIENTED_EDGE($,*,*,#217,.F.);
#308=ORIENTED_EDGE($,*,*,#225,.T.);
#309=ORIENTED_EDGE($,*,*,#220,.F.);
#310=ORIENTED_EDGE($,*,*,#227,.F.);
#311=ORIENTED_EDGE($,*,*,#216,.F.);
#312=ORIENTED_EDGE($,*,*,#228,.T.);
#313=ORIENTED_EDGE($,*,*,#229,.T.);
#314=ORIENTED_EDGE($,*,*,#230,.T.);
#315=ORIENTED_EDGE($,*,*,#231,.T.);
#316=ORIENTED_EDGE($,*,*,#232,.T.);
#317=ORIENTED_EDGE($,*,*,#233,.T.);
#318=ORIENTED_EDGE($,*,*,#234,.T.);
#319=ORIENTED_EDGE($,*,*,#235,.T.);
#320=ORIENTED_EDGE($,*,*,#236,.T.);
#321=ORIENTED_EDGE($,*,*,#233,.F.);
#322=ORIENTED_EDGE($,*,*,#237,.F.);
#323=ORIENTED_EDGE($,*,*,#231,.F.);
#324=ORIENTED_EDGE($,*,*,#238,.T.);
#325=ORIENTED_EDGE($,*,*,#234,.F.);
#326=ORIENTED_EDGE($,*,*,#236,.F.);
#327=ORIENTED_EDGE($,*,*,#230,.F.);
#328=ORIENTED_EDGE($,*,*,#239,.T.);
#329=ORIENTED_EDGE($,*,*,#235,.F.);
#330=ORIENTED_EDGE($,*,*,#238,.F.);
#331=ORIENTED_EDGE($,*,*,#229,.F.);
#332=ORIENTED_EDGE($,*,*,#237,.T.);
#333=ORIENTED_EDGE($,*,*,#232,.F.);
#334=ORIENTED_EDGE($,*,*,#239,.F.);
#335=ORIENTED_EDGE($,*,*,#228,.F.);
#336=PLANE($,#393);
#337=PLANE($,#394);
#338=PLANE($,#395);
#339=PLANE($,#396);
#340=PLANE($,#397);
#341=PLANE($,#398);
#342=PLANE($,#399);
#343=PLANE($,#400);
#344=PLANE($,#401);
#345=PLANE($,#402);
#346=PLANE($,#403);
#347=PLANE($,#404);
#348=PLANE($,#405);
#349=PLANE($,#406);
#350=PLANE($,#407);
#351=PLANE($,#408);
#352=PLANE($,#409);
#353=PLANE($,#410);
#354=PLANE($,#411);
#355=PLANE($,#412);
#356=PLANE($,#413);
#357=PLANE($,#414);
#358=PLANE($,#415);
#359=PLANE($,#416);
#360=ADVANCED_FACE($,(#16),#336,.T.);
#361=ADVANCED_FACE($,(#17),#337,.T.);
#362=ADVANCED_FACE($,(#18),#338,.T.);
#363=ADVANCED_FACE($,(#19),#339,.T.);
#364=ADVANCED_FACE($,(#20),#340,.T.);
#365=ADVANCED_FACE($,(#21),#341,.F.);
#366=ADVANCED_FACE($,(#22),#342,.T.);
#367=ADVANCED_FACE($,(#23),#343,.F.);
#368=ADVANCED_FACE($,(#24),#344,.F.);
#369=ADVANCED_FACE($,(#25),#345,.F.);
#370=ADVANCED_FACE($,(#26),#346,.F.);
#371=ADVANCED_FACE($,(#27),#347,.F.);
#372=ADVANCED_FACE($,(#28),#348,.T.);
#373=ADVANCED_FACE($,(#29),#349,.F.);
#374=ADVANCED_FACE($,(#30),#350,.F.);
#375=ADVANCED_FACE($,(#31),#351,.F.);
#376=ADVANCED_FACE($,(#32),#352,.F.);
#377=ADVANCED_FACE($,(#33),#353,.F.);
#378=ADVANCED_FACE($,(#34),#354,.T.);
#379=ADVANCED_FACE($,(#35),#355,.F.);
#380=ADVANCED_FACE($,(#36),#356,.F.);
#381=ADVANCED_FACE($,(#37),#357,.F.);
#382=ADVANCED_FACE($,(#38),#358,.F.);
#383=ADVANCED_FACE($,(#39),#359,.F.);
#384=CLOSED_SHELL($,(#360,#361,#362,#363,#364,#365));
#385=CLOSED_SHELL($,(#366,#367,#368,#369,#370,#371));
#386=CLOSED_SHELL($,(#372,#373,#374,#375,#376,#377));
#387=CLOSED_SHELL($,(#378,#379,#380,#381,#382,#383));
#388=MANIFOLD_SOLID_BREP('ASM Body',#384);
#389=MANIFOLD_SOLID_BREP('ASM Body',#385);
#390=MANIFOLD_SOLID_BREP('ASM Body',#386);
#391=MANIFOLD_SOLID_BREP('ASM Body',#387);
#392=AXIS2_PLACEMENT_3D('placement',#515,#417,#418);
#393=AXIS2_PLACEMENT_3D($,#516,#419,#420);
#394=AXIS2_PLACEMENT_3D($,#525,#425,#426);
#395=AXIS2_PLACEMENT_3D($,#531,#430,#431);
#396=AXIS2_PLACEMENT_3D($,#537,#435,#436);
#397=AXIS2_PLACEMENT_3D($,#540,#439,#440);
#398=AXIS2_PLACEMENT_3D($,#541,#441,#442);
#399=AXIS2_PLACEMENT_3D($,#542,#443,#444);
#400=AXIS2_PLACEMENT_3D($,#551,#449,#450);
#401=AXIS2_PLACEMENT_3D($,#560,#455,#456);
#402=AXIS2_PLACEMENT_3D($,#563,#459,#460);
#403=AXIS2_PLACEMENT_3D($,#565,#462,#463);
#404=AXIS2_PLACEMENT_3D($,#567,#465,#466);
#405=AXIS2_PLACEMENT_3D($,#568,#467,#468);
#406=AXIS2_PLACEMENT_3D($,#577,#473,#474);
#407=AXIS2_PLACEMENT_3D($,#586,#479,#480);
#408=AXIS2_PLACEMENT_3D($,#589,#483,#484);
#409=AXIS2_PLACEMENT_3D($,#591,#486,#487);
#410=AXIS2_PLACEMENT_3D($,#593,#489,#490);
#411=AXIS2_PLACEMENT_3D($,#594,#491,#492);
#412=AXIS2_PLACEMENT_3D($,#603,#497,#498);
#413=AXIS2_PLACEMENT_3D($,#612,#503,#504);
#414=AXIS2_PLACEMENT_3D($,#615,#507,#508);
#415=AXIS2_PLACEMENT_3D($,#617,#510,#511);
#416=AXIS2_PLACEMENT_3D($,#619,#513,#514);
#417=DIRECTION('axis',(0.,0.,1.));
#418=DIRECTION('refdir',(1.,0.,0.));
#419=DIRECTION('center_axis',(0.,-1.,0.));
#420=DIRECTION('ref_axis',(1.,0.,0.));
#421=DIRECTION($,(-1.,0.,0.));
#422=DIRECTION($,(0.,0.,1.));
#423=DIRECTION($,(1.,0.,0.));
#424=DIRECTION($,(0.,0.,1.));
#425=DIRECTION('center_axis',(-1.,0.,0.));
#426=DIRECTION('ref_axis',(0.,-1.,0.));
#427=DIRECTION($,(0.,1.,0.));
#428=DIRECTION($,(0.,-1.,0.));
#429=DIRECTION($,(0.,0.,1.));
#430=DIRECTION('center_axis',(0.,1.,0.));
#431=DIRECTION('ref_axis',(-1.,0.,0.));
#432=DIRECTION($,(1.,0.,0.));
#433=DIRECTION($,(-1.,0.,0.));
#434=DIRECTION($,(0.,0.,1.));
#435=DIRECTION('center_axis',(1.,0.,0.));
#436=DIRECTION('ref_axis',(0.,1.,0.));
#437=DIRECTION($,(0.,-1.,0.));
#438=DIRECTION($,(0.,1.,0.));
#439=DIRECTION('center_axis',(0.,0.,1.));
#440=DIRECTION('ref_axis',(1.,0.,0.));
#441=DIRECTION('center_axis',(0.,0.,1.));
#442=DIRECTION('ref_axis',(1.,0.,0.));
#443=DIRECTION('center_axis',(0.,-1.,0.));
#444=DIRECTION('ref_axis',(1.,0.,0.));
#445=DIRECTION($,(0.,0.,1.));
#446=DIRECTION($,(-1.,0.,0.));
#447=DIRECTION($,(0.,0.,-1.));
#448=DIRECTION($,(1.,0.,0.));
#449=DIRECTION('center_axis',(0.,-1.,0.));
#450=DIRECTION('ref_axis',(1.,0.,0.));
#451=DIRECTION($,(0.,0.,-1.));
#452=DIRECTION($,(-1.,0.,0.));
#453=DIRECTION($,(0.,0.,1.));
#454=DIRECTION($,(1.,0.,0.));
#455=DIRECTION('center_axis',(0.,0.,1.));
#456=DIRECTION('ref_axis',(0.,-1.,0.));
#457=DIRECTION($,(0.,1.,0.));
#458=DIRECTION($,(0.,1.,0.));
#459=DIRECTION('center_axis',(1.,0.,0.));
#460=DIRECTION('ref_axis',(0.,1.,0.));
#461=DIRECTION($,(0.,1.,0.));
#462=DIRECTION('center_axis',(0.,0.,-1.));
#463=DIRECTION('ref_axis',(0.,1.,0.));
#464=DIRECTION($,(0.,1.,0.));
#465=DIRECTION('center_axis',(-1.,0.,0.));
#466=DIRECTION('ref_axis',(0.,-1.,0.));
#467=DIRECTION('center_axis',(0.,-1.,0.));
#468=DIRECTION('ref_axis',(1.,0.,0.));
#469=DIRECTION($,(0.,0.,1.));
#470=DIRECTION($,(-1.,0.,0.));
#471=DIRECTION($,(0.,0.,-1.));
#472=DIRECTION($,(1.,0.,0.));
#473=DIRECTION('center_axis',(0.,-1.,0.));
#474=DIRECTION('ref_axis',(1.,0.,0.));
#475=DIRECTION($,(0.,0.,-1.));
#476=DIRECTION($,(-1.,0.,0.));
#477=DIRECTION($,(0.,0.,1.));
#478=DIRECTION($,(1.,0.,0.));
#479=DIRECTION('center_axis',(0.,0.,1.));
#480=DIRECTION('ref_axis',(0.,-1.,0.));
#481=DIRECTION($,(0.,1.,0.));
#482=DIRECTION($,(0.,1.,0.));
#483=DIRECTION('center_axis',(1.,0.,0.));
#484=DIRECTION('ref_axis',(0.,1.,0.));
#485=DIRECTION($,(0.,1.,0.));
#486=DIRECTION('center_axis',(0.,0.,-1.));
#487=DIRECTION('ref_axis',(0.,1.,0.));
#488=DIRECTION($,(0.,1.,0.));
#489=DIRECTION('center_axis',(-1.,0.,0.));
#490=DIRECTION('ref_axis',(0.,-1.,0.));
#491=DIRECTION('center_axis',(0.,1.,0.));
#492=DIRECTION('ref_axis',(0.,0.,1.));
#493=DIRECTION($,(-2.76791801648845E-015,0.,1.));
#494=DIRECTION($,(1.,0.,7.68866115691235E-017));
#495=DIRECTION($,(2.76791801648845E-015,0.,-1.));
#496=DIRECTION($,(-1.,0.,-7.68866115691235E-017));
#497=DIRECTION('center_axis',(0.,1.,0.));
#498=DIRECTION('ref_axis',(0.,0.,1.));
#499=DIRECTION($,(2.76791801648845E-015,0.,-1.));
#500=DIRECTION($,(1.,0.,7.68866115691235E-017));
#501=DIRECTION($,(-2.76791801648845E-015,0.,1.));
#502=DIRECTION($,(-1.,0.,-7.68866115691235E-017));
#503=DIRECTION('center_axis',(-7.68866115691235E-017,0.,1.));
#504=DIRECTION('ref_axis',(1.,0.,0.));
#505=DIRECTION($,(0.,-1.,0.));
#506=DIRECTION($,(0.,-1.,0.));
#507=DIRECTION('center_axis',(-1.,0.,-2.76791801648846E-015));
#508=DIRECTION('ref_axis',(-2.66453525910038E-015,0.,1.));
#509=DIRECTION($,(0.,-1.,0.));
#510=DIRECTION('center_axis',(7.68866115691235E-017,0.,-1.));
#511=DIRECTION('ref_axis',(-1.,0.,0.));
#512=DIRECTION($,(0.,-1.,0.));
#513=DIRECTION('center_axis',(1.,0.,2.76791801648846E-015));
#514=DIRECTION('ref_axis',(2.66453525910038E-015,0.,-1.));
#515=CARTESIAN_POINT('',(0.,0.,0.));
#516=CARTESIAN_POINT('Origin',(-2.17145113187013,5.74084954954549,0.126500000000038));
#517=CARTESIAN_POINT('',(-1.57145113187013,5.74084954954549,0.126500000000038));
#518=CARTESIAN_POINT('',(-2.17145113187013,5.74084954954549,0.126500000000038));
#519=CARTESIAN_POINT($,(-1.57145113187013,5.74084954954549,0.126500000000038));
#520=CARTESIAN_POINT('',(-1.57145113187013,5.74084954954549,2.12650000000003));
#521=CARTESIAN_POINT($,(-1.57145113187013,5.74084954954549,0.126500000000038));
#522=CARTESIAN_POINT('',(-2.17145113187013,5.74084954954549,2.12650000000003));
#523=CARTESIAN_POINT($,(-3.25582902799016,5.74084954954549,2.12650000000003));
#524=CARTESIAN_POINT($,(-2.17145113187013,5.74084954954549,0.126500000000038));
#525=CARTESIAN_POINT('Origin',(-2.17145113187013,6.34084954954548,0.126500000000038));
#526=CARTESIAN_POINT('',(-2.17145113187013,6.34084954954548,0.126500000000038));
#527=CARTESIAN_POINT($,(-2.17145113187013,5.74084954954549,0.126500000000038));
#528=CARTESIAN_POINT('',(-2.17145113187013,6.34084954954548,2.12650000000003));
#529=CARTESIAN_POINT($,(-2.17145113187013,6.62501300350536,2.12650000000003));
#530=CARTESIAN_POINT($,(-2.17145113187013,6.34084954954548,0.126500000000038));
#531=CARTESIAN_POINT('Origin',(-1.57145113187013,6.34084954954548,0.126500000000038));
#532=CARTESIAN_POINT('',(-1.57145113187013,6.34084954954548,0.126500000000038));
#533=CARTESIAN_POINT($,(-2.17145113187013,6.34084954954548,0.126500000000038));
#534=CARTESIAN_POINT('',(-1.57145113187013,6.34084954954548,2.12650000000003));
#535=CARTESIAN_POINT($,(-2.95582902799016,6.34084954954548,2.12650000000003));
#536=CARTESIAN_POINT($,(-1.57145113187013,6.34084954954548,0.126500000000038));
#537=CARTESIAN_POINT('Origin',(-1.57145113187013,5.74084954954549,0.126500000000038));
#538=CARTESIAN_POINT($,(-1.57145113187013,6.34084954954548,0.126500000000038));
#539=CARTESIAN_POINT($,(-1.57145113187013,6.32501300350536,2.12650000000003));
#540=CARTESIAN_POINT('Origin',(-4.34020692411019,6.90917645746524,2.12650000000003));
#541=CARTESIAN_POINT('Origin',(-4.34020692411019,6.90917645746524,0.126500000000038));
#542=CARTESIAN_POINT('Origin',(-1.87145113187013,5.73084901809692,0.726500000000036));
#543=CARTESIAN_POINT('',(-1.62145113187013,5.73084901809692,0.326500000000036));
#544=CARTESIAN_POINT('',(-1.62145113187013,5.73084901809692,1.12650000000004));
#545=CARTESIAN_POINT($,(-1.62145113187013,5.73084901809692,0.726500000000036));
#546=CARTESIAN_POINT('',(-2.12145113187013,5.73084901809692,1.12650000000004));
#547=CARTESIAN_POINT($,(-1.87145113187013,5.73084901809692,1.12650000000004));
#548=CARTESIAN_POINT('',(-2.12145113187013,5.73084901809692,0.326500000000036));
#549=CARTESIAN_POINT($,(-2.12145113187013,5.73084901809692,0.726500000000036));
#550=CARTESIAN_POINT($,(-1.87145113187013,5.73084901809692,0.326500000000036));
#551=CARTESIAN_POINT('Origin',(-1.87145113187013,5.74084901809692,0.726500000000036));
#552=CARTESIAN_POINT('',(-1.62145113187013,5.74084901809692,1.12650000000004));
#553=CARTESIAN_POINT('',(-1.62145113187013,5.74084901809692,0.326500000000036));
#554=CARTESIAN_POINT($,(-1.62145113187013,5.74084901809692,0.726500000000036));
#555=CARTESIAN_POINT('',(-2.12145113187013,5.74084901809692,0.326500000000036));
#556=CARTESIAN_POINT($,(-1.87145113187013,5.74084901809692,0.326500000000036));
#557=CARTESIAN_POINT('',(-2.12145113187013,5.74084901809692,1.12650000000004));
#558=CARTESIAN_POINT($,(-2.12145113187013,5.74084901809692,0.726500000000036));
#559=CARTESIAN_POINT($,(-1.87145113187013,5.74084901809692,1.12650000000004));
#560=CARTESIAN_POINT('Origin',(-1.87145113187013,5.73584901809692,0.326500000000036));
#561=CARTESIAN_POINT($,(-2.12145113187013,5.73584901809692,0.326500000000036));
#562=CARTESIAN_POINT($,(-1.62145113187013,5.73584901809692,0.326500000000036));
#563=CARTESIAN_POINT('Origin',(-2.12145113187013,5.73584901809692,0.726500000000036));
#564=CARTESIAN_POINT($,(-2.12145113187013,5.73584901809692,1.12650000000004));
#565=CARTESIAN_POINT('Origin',(-1.87145113187013,5.73584901809692,1.12650000000004));
#566=CARTESIAN_POINT($,(-1.62145113187013,5.73584901809692,1.12650000000004));
#567=CARTESIAN_POINT('Origin',(-1.62145113187013,5.73584901809692,0.726500000000036));
#568=CARTESIAN_POINT('Origin',(-1.87145113187013,5.73084901809692,1.62650000000004));
#569=CARTESIAN_POINT('',(-1.62145113187013,5.73084901809692,1.22650000000004));
#570=CARTESIAN_POINT('',(-1.62145113187013,5.73084901809692,2.02650000000004));
#571=CARTESIAN_POINT($,(-1.62145113187013,5.73084901809692,1.62650000000004));
#572=CARTESIAN_POINT('',(-2.12145113187013,5.73084901809692,2.02650000000004));
#573=CARTESIAN_POINT($,(-1.87145113187013,5.73084901809692,2.02650000000004));
#574=CARTESIAN_POINT('',(-2.12145113187013,5.73084901809692,1.22650000000004));
#575=CARTESIAN_POINT($,(-2.12145113187013,5.73084901809692,1.62650000000004));
#576=CARTESIAN_POINT($,(-1.87145113187013,5.73084901809692,1.22650000000004));
#577=CARTESIAN_POINT('Origin',(-1.87145113187013,5.74084901809692,1.62650000000004));
#578=CARTESIAN_POINT('',(-1.62145113187013,5.74084901809692,2.02650000000004));
#579=CARTESIAN_POINT('',(-1.62145113187013,5.74084901809692,1.22650000000004));
#580=CARTESIAN_POINT($,(-1.62145113187013,5.74084901809692,1.62650000000004));
#581=CARTESIAN_POINT('',(-2.12145113187013,5.74084901809692,1.22650000000004));
#582=CARTESIAN_POINT($,(-1.87145113187013,5.74084901809692,1.22650000000004));
#583=CARTESIAN_POINT('',(-2.12145113187013,5.74084901809692,2.02650000000004));
#584=CARTESIAN_POINT($,(-2.12145113187013,5.74084901809692,1.62650000000004));
#585=CARTESIAN_POINT($,(-1.87145113187013,5.74084901809692,2.02650000000004));
#586=CARTESIAN_POINT('Origin',(-1.87145113187013,5.73584901809692,1.22650000000004));
#587=CARTESIAN_POINT($,(-2.12145113187013,5.73584901809692,1.22650000000004));
#588=CARTESIAN_POINT($,(-1.62145113187013,5.73584901809692,1.22650000000004));
#589=CARTESIAN_POINT('Origin',(-2.12145113187013,5.73584901809692,1.62650000000004));
#590=CARTESIAN_POINT($,(-2.12145113187013,5.73584901809692,2.02650000000004));
#591=CARTESIAN_POINT('Origin',(-1.87145113187013,5.73584901809692,2.02650000000004));
#592=CARTESIAN_POINT($,(-1.62145113187013,5.73584901809692,2.02650000000004));
#593=CARTESIAN_POINT('Origin',(-1.62145113187013,5.73584901809692,1.62650000000004));
#594=CARTESIAN_POINT('Origin',(-1.75145113187013,5.73084901809692,1.97650000000004));
#595=CARTESIAN_POINT('',(-1.85145113187013,5.73084901809692,1.95150000000004));
#596=CARTESIAN_POINT('',(-1.85145113187013,5.73084901809692,2.00150000000004));
#597=CARTESIAN_POINT($,(-1.85145113187013,5.73084901809692,1.97650000000004));
#598=CARTESIAN_POINT('',(-1.65145113187013,5.73084901809692,2.00150000000004));
#599=CARTESIAN_POINT($,(-1.75145113187013,5.73084901809692,2.00150000000004));
#600=CARTESIAN_POINT('',(-1.65145113187013,5.73084901809692,1.95150000000004));
#601=CARTESIAN_POINT($,(-1.65145113187013,5.73084901809692,1.97650000000004));
#602=CARTESIAN_POINT($,(-1.75145113187013,5.73084901809692,1.95150000000004));
#603=CARTESIAN_POINT('Origin',(-1.75145113187013,5.72084901809692,1.97650000000004));
#604=CARTESIAN_POINT('',(-1.85145113187013,5.72084901809692,2.00150000000004));
#605=CARTESIAN_POINT('',(-1.85145113187013,5.72084901809692,1.95150000000004));
#606=CARTESIAN_POINT($,(-1.85145113187013,5.72084901809692,1.97650000000004));
#607=CARTESIAN_POINT('',(-1.65145113187013,5.72084901809692,1.95150000000004));
#608=CARTESIAN_POINT($,(-1.75145113187013,5.72084901809692,1.95150000000004));
#609=CARTESIAN_POINT('',(-1.65145113187013,5.72084901809692,2.00150000000004));
#610=CARTESIAN_POINT($,(-1.65145113187013,5.72084901809692,1.97650000000004));
#611=CARTESIAN_POINT($,(-1.75145113187013,5.72084901809692,2.00150000000004));
#612=CARTESIAN_POINT('Origin',(-1.75145113187013,5.72584901809692,1.95150000000004));
#613=CARTESIAN_POINT($,(-1.65145113187013,5.72584901809692,1.95150000000004));
#614=CARTESIAN_POINT($,(-1.85145113187013,5.72584901809692,1.95150000000004));
#615=CARTESIAN_POINT('Origin',(-1.65145113187013,5.72584901809692,1.97650000000004));
#616=CARTESIAN_POINT($,(-1.65145113187013,5.72584901809692,2.00150000000004));
#617=CARTESIAN_POINT('Origin',(-1.75145113187013,5.72584901809692,2.00150000000004));
#618=CARTESIAN_POINT($,(-1.85145113187013,5.72584901809692,2.00150000000004));
#619=CARTESIAN_POINT('Origin',(-1.85145113187013,5.72584901809692,1.97650000000004));
#620=UNCERTAINTY_MEASURE_WITH_UNIT(LENGTH_MEASURE(0.001),#622,
'DISTANCE_ACCURACY_VALUE',
'Maximum model space distance between geometric entities at asserted c
onnectivities');
#621=(
GEOMETRIC_REPRESENTATION_CONTEXT(3)
GLOBAL_UNCERTAINTY_ASSIGNED_CONTEXT((#620))
GLOBAL_UNIT_ASSIGNED_CONTEXT((#622,#624,#623))
REPRESENTATION_CONTEXT('','3D')
);
#622=(
LENGTH_UNIT()
NAMED_UNIT(*)
SI_UNIT(.CENTI.,.METRE.)
);
#623=(
NAMED_UNIT(*)
SI_UNIT($,.STERADIAN.)
SOLID_ANGLE_UNIT()
);
#624=(
NAMED_UNIT(*)
PLANE_ANGLE_UNIT()
SI_UNIT($,.RADIAN.)
);
#625=SHAPE_DEFINITION_REPRESENTATION(#626,#627);
#626=PRODUCT_DEFINITION_SHAPE('',$,#629);
#627=SHAPE_REPRESENTATION('',(#392),#621);
#628=PRODUCT_DEFINITION_CONTEXT('3D Mechanical Parts',#632,'design');
#629=PRODUCT_DEFINITION('cabinet 1','cabinet 1',#630,#628);
#630=PRODUCT_DEFINITION_FORMATION('',$,#634);
#631=APPLICATION_PROTOCOL_DEFINITION('international standard',
'automotive_design',2009,#632);
#632=APPLICATION_CONTEXT(
'Core Data for Automotive Mechanical Design Process');
#633=PRODUCT_CONTEXT('3D Mechanical Parts',#632,'mechanical');
#634=PRODUCT('cabinet 1','cabinet 1',$,(#633));
#635=PRESENTATION_STYLE_ASSIGNMENT((#637));
#636=PRESENTATION_STYLE_ASSIGNMENT((#638));
#637=SURFACE_STYLE_USAGE(.BOTH.,#639);
#638=SURFACE_STYLE_USAGE(.BOTH.,#640);
#639=SURFACE_SIDE_STYLE($,(#641));
#640=SURFACE_SIDE_STYLE($,(#642));
#641=SURFACE_STYLE_FILL_AREA(#643);
#642=SURFACE_STYLE_FILL_AREA(#644);
#643=FILL_AREA_STYLE($,(#645));
#644=FILL_AREA_STYLE($,(#646));
#645=FILL_AREA_STYLE_COLOUR($,#647);
#646=FILL_AREA_STYLE_COLOUR($,#648);
#647=COLOUR_RGB('__RGBA_0.827451_0.929412_0.952941',0.827450980392157,0.929411764705882,
0.952941176470588);
#648=COLOUR_RGB('__RGBA_0.0431373_0.145098_0.192157',0.0431372549019608,
0.145098039215686,0.192156862745098);
ENDSEC;
END-ISO-10303-21;
