ISO-10303-21;
HEADER;
/* Generated by software containing ST-Developer
 * from STEP Tools, Inc. (www.steptools.com) 
 */

FILE_DESCRIPTION(
/* description */ (''),
/* implementation_level */ '2;1');

FILE_NAME(
/* name */ 
'C:/Users/max/Desktop/extra files/lab objects/cabinet 2/Step file/cabi
net 2.stp',
/* time_stamp */ '2025-12-06T04:07:21+00:00',
/* author */ (''),
/* organization */ (''),
/* preprocessor_version */ 'ST-DEVELOPER v15.2',
/* originating_system */ 'Autodesk Translator Framework v2.0.0.5431',
/* authorisation */ '');

FILE_SCHEMA (('AUTOMOTIVE_DESIGN { 1 0 10303 214 3 1 1 }'));
ENDSEC;

DATA;
#10=SHAPE_REPRESENTATION_RELATIONSHIP('SRR','None',#1231,#11);
#11=ADVANCED_BREP_SHAPE_REPRESENTATION($,(#764,#765,#766,#767,#768,#769,
#770,#771),#1225);
#12=STYLED_ITEM($,(#1239),#764);
#13=STYLED_ITEM($,(#1240),#765);
#14=STYLED_ITEM($,(#1240),#766);
#15=STYLED_ITEM($,(#1239),#767);
#16=STYLED_ITEM($,(#1239),#768);
#17=STYLED_ITEM($,(#1239),#769);
#18=STYLED_ITEM($,(#1240),#770);
#19=STYLED_ITEM($,(#1240),#771);
#20=FACE_OUTER_BOUND($,#68,.T.);
#21=FACE_OUTER_BOUND($,#69,.T.);
#22=FACE_OUTER_BOUND($,#70,.T.);
#23=FACE_OUTER_BOUND($,#71,.T.);
#24=FACE_OUTER_BOUND($,#72,.T.);
#25=FACE_OUTER_BOUND($,#73,.T.);
#26=FACE_OUTER_BOUND($,#74,.T.);
#27=FACE_OUTER_BOUND($,#75,.T.);
#28=FACE_OUTER_BOUND($,#76,.T.);
#29=FACE_OUTER_BOUND($,#77,.T.);
#30=FACE_OUTER_BOUND($,#78,.T.);
#31=FACE_OUTER_BOUND($,#79,.T.);
#32=FACE_OUTER_BOUND($,#80,.T.);
#33=FACE_OUTER_BOUND($,#81,.T.);
#34=FACE_OUTER_BOUND($,#82,.T.);
#35=FACE_OUTER_BOUND($,#83,.T.);
#36=FACE_OUTER_BOUND($,#84,.T.);
#37=FACE_OUTER_BOUND($,#85,.T.);
#38=FACE_OUTER_BOUND($,#86,.T.);
#39=FACE_OUTER_BOUND($,#87,.T.);
#40=FACE_OUTER_BOUND($,#88,.T.);
#41=FACE_OUTER_BOUND($,#89,.T.);
#42=FACE_OUTER_BOUND($,#90,.T.);
#43=FACE_OUTER_BOUND($,#91,.T.);
#44=FACE_OUTER_BOUND($,#92,.T.);
#45=FACE_OUTER_BOUND($,#93,.T.);
#46=FACE_OUTER_BOUND($,#94,.T.);
#47=FACE_OUTER_BOUND($,#95,.T.);
#48=FACE_OUTER_BOUND($,#96,.T.);
#49=FACE_OUTER_BOUND($,#97,.T.);
#50=FACE_OUTER_BOUND($,#98,.T.);
#51=FACE_OUTER_BOUND($,#99,.T.);
#52=FACE_OUTER_BOUND($,#100,.T.);
#53=FACE_OUTER_BOUND($,#101,.T.);
#54=FACE_OUTER_BOUND($,#102,.T.);
#55=FACE_OUTER_BOUND($,#103,.T.);
#56=FACE_OUTER_BOUND($,#104,.T.);
#57=FACE_OUTER_BOUND($,#105,.T.);
#58=FACE_OUTER_BOUND($,#106,.T.);
#59=FACE_OUTER_BOUND($,#107,.T.);
#60=FACE_OUTER_BOUND($,#108,.T.);
#61=FACE_OUTER_BOUND($,#109,.T.);
#62=FACE_OUTER_BOUND($,#110,.T.);
#63=FACE_OUTER_BOUND($,#111,.T.);
#64=FACE_OUTER_BOUND($,#112,.T.);
#65=FACE_OUTER_BOUND($,#113,.T.);
#66=FACE_OUTER_BOUND($,#114,.T.);
#67=FACE_OUTER_BOUND($,#115,.T.);
#68=EDGE_LOOP($,(#468,#469,#470,#471));
#69=EDGE_LOOP($,(#472,#473,#474,#475));
#70=EDGE_LOOP($,(#476,#477,#478,#479));
#71=EDGE_LOOP($,(#480,#481,#482,#483));
#72=EDGE_LOOP($,(#484,#485,#486,#487));
#73=EDGE_LOOP($,(#488,#489,#490,#491));
#74=EDGE_LOOP($,(#492,#493,#494,#495));
#75=EDGE_LOOP($,(#496,#497,#498,#499));
#76=EDGE_LOOP($,(#500,#501,#502,#503));
#77=EDGE_LOOP($,(#504,#505,#506,#507));
#78=EDGE_LOOP($,(#508,#509,#510,#511));
#79=EDGE_LOOP($,(#512,#513,#514,#515));
#80=EDGE_LOOP($,(#516,#517,#518,#519));
#81=EDGE_LOOP($,(#520,#521,#522,#523));
#82=EDGE_LOOP($,(#524,#525,#526,#527));
#83=EDGE_LOOP($,(#528,#529,#530,#531));
#84=EDGE_LOOP($,(#532,#533,#534,#535));
#85=EDGE_LOOP($,(#536,#537,#538,#539));
#86=EDGE_LOOP($,(#540,#541,#542,#543));
#87=EDGE_LOOP($,(#544,#545,#546,#547));
#88=EDGE_LOOP($,(#548,#549,#550,#551));
#89=EDGE_LOOP($,(#552,#553,#554,#555));
#90=EDGE_LOOP($,(#556,#557,#558,#559));
#91=EDGE_LOOP($,(#560,#561,#562,#563));
#92=EDGE_LOOP($,(#564,#565,#566,#567));
#93=EDGE_LOOP($,(#568,#569,#570,#571));
#94=EDGE_LOOP($,(#572,#573,#574,#575));
#95=EDGE_LOOP($,(#576,#577,#578,#579));
#96=EDGE_LOOP($,(#580,#581,#582,#583));
#97=EDGE_LOOP($,(#584,#585,#586,#587));
#98=EDGE_LOOP($,(#588,#589,#590,#591));
#99=EDGE_LOOP($,(#592,#593,#594,#595));
#100=EDGE_LOOP($,(#596,#597,#598,#599));
#101=EDGE_LOOP($,(#600,#601,#602,#603));
#102=EDGE_LOOP($,(#604,#605,#606,#607));
#103=EDGE_LOOP($,(#608,#609,#610,#611));
#104=EDGE_LOOP($,(#612,#613,#614,#615));
#105=EDGE_LOOP($,(#616,#617,#618,#619));
#106=EDGE_LOOP($,(#620,#621,#622,#623));
#107=EDGE_LOOP($,(#624,#625,#626,#627));
#108=EDGE_LOOP($,(#628,#629,#630,#631));
#109=EDGE_LOOP($,(#632,#633,#634,#635));
#110=EDGE_LOOP($,(#636,#637,#638,#639));
#111=EDGE_LOOP($,(#640,#641,#642,#643));
#112=EDGE_LOOP($,(#644,#645,#646,#647));
#113=EDGE_LOOP($,(#648,#649,#650,#651));
#114=EDGE_LOOP($,(#652,#653,#654,#655));
#115=EDGE_LOOP($,(#656,#657,#658,#659));
#116=LINE($,#1019,#212);
#117=LINE($,#1021,#213);
#118=LINE($,#1023,#214);
#119=LINE($,#1024,#215);
#120=LINE($,#1027,#216);
#121=LINE($,#1029,#217);
#122=LINE($,#1030,#218);
#123=LINE($,#1033,#219);
#124=LINE($,#1035,#220);
#125=LINE($,#1036,#221);
#126=LINE($,#1038,#222);
#127=LINE($,#1039,#223);
#128=LINE($,#1045,#224);
#129=LINE($,#1047,#225);
#130=LINE($,#1049,#226);
#131=LINE($,#1050,#227);
#132=LINE($,#1054,#228);
#133=LINE($,#1056,#229);
#134=LINE($,#1058,#230);
#135=LINE($,#1059,#231);
#136=LINE($,#1061,#232);
#137=LINE($,#1062,#233);
#138=LINE($,#1064,#234);
#139=LINE($,#1066,#235);
#140=LINE($,#1071,#236);
#141=LINE($,#1073,#237);
#142=LINE($,#1075,#238);
#143=LINE($,#1076,#239);
#144=LINE($,#1080,#240);
#145=LINE($,#1082,#241);
#146=LINE($,#1084,#242);
#147=LINE($,#1085,#243);
#148=LINE($,#1087,#244);
#149=LINE($,#1088,#245);
#150=LINE($,#1090,#246);
#151=LINE($,#1092,#247);
#152=LINE($,#1097,#248);
#153=LINE($,#1099,#249);
#154=LINE($,#1101,#250);
#155=LINE($,#1102,#251);
#156=LINE($,#1105,#252);
#157=LINE($,#1107,#253);
#158=LINE($,#1108,#254);
#159=LINE($,#1111,#255);
#160=LINE($,#1113,#256);
#161=LINE($,#1114,#257);
#162=LINE($,#1116,#258);
#163=LINE($,#1117,#259);
#164=LINE($,#1123,#260);
#165=LINE($,#1125,#261);
#166=LINE($,#1127,#262);
#167=LINE($,#1128,#263);
#168=LINE($,#1131,#264);
#169=LINE($,#1133,#265);
#170=LINE($,#1134,#266);
#171=LINE($,#1137,#267);
#172=LINE($,#1139,#268);
#173=LINE($,#1140,#269);
#174=LINE($,#1142,#270);
#175=LINE($,#1143,#271);
#176=LINE($,#1149,#272);
#177=LINE($,#1151,#273);
#178=LINE($,#1153,#274);
#179=LINE($,#1154,#275);
#180=LINE($,#1157,#276);
#181=LINE($,#1159,#277);
#182=LINE($,#1160,#278);
#183=LINE($,#1163,#279);
#184=LINE($,#1165,#280);
#185=LINE($,#1166,#281);
#186=LINE($,#1168,#282);
#187=LINE($,#1169,#283);
#188=LINE($,#1175,#284);
#189=LINE($,#1177,#285);
#190=LINE($,#1179,#286);
#191=LINE($,#1180,#287);
#192=LINE($,#1184,#288);
#193=LINE($,#1186,#289);
#194=LINE($,#1188,#290);
#195=LINE($,#1189,#291);
#196=LINE($,#1191,#292);
#197=LINE($,#1192,#293);
#198=LINE($,#1194,#294);
#199=LINE($,#1196,#295);
#200=LINE($,#1201,#296);
#201=LINE($,#1203,#297);
#202=LINE($,#1205,#298);
#203=LINE($,#1206,#299);
#204=LINE($,#1210,#300);
#205=LINE($,#1212,#301);
#206=LINE($,#1214,#302);
#207=LINE($,#1215,#303);
#208=LINE($,#1217,#304);
#209=LINE($,#1218,#305);
#210=LINE($,#1220,#306);
#211=LINE($,#1222,#307);
#212=VECTOR($,#825,1.);
#213=VECTOR($,#826,1.39999999999999);
#214=VECTOR($,#827,1.);
#215=VECTOR($,#828,1.39999999999999);
#216=VECTOR($,#831,0.4);
#217=VECTOR($,#832,0.399999999999999);
#218=VECTOR($,#833,1.39999999999999);
#219=VECTOR($,#836,1.);
#220=VECTOR($,#837,1.);
#221=VECTOR($,#838,1.39999999999999);
#222=VECTOR($,#841,0.4);
#223=VECTOR($,#842,0.399999999999999);
#224=VECTOR($,#849,0.1);
#225=VECTOR($,#850,0.0999999999999996);
#226=VECTOR($,#851,0.1);
#227=VECTOR($,#852,0.0999999999999996);
#228=VECTOR($,#855,0.1);
#229=VECTOR($,#856,0.0999999999999996);
#230=VECTOR($,#857,0.1);
#231=VECTOR($,#858,0.0999999999999996);
#232=VECTOR($,#861,0.1);
#233=VECTOR($,#862,0.1);
#234=VECTOR($,#865,0.1);
#235=VECTOR($,#868,0.1);
#236=VECTOR($,#873,0.1);
#237=VECTOR($,#874,0.0999999999999996);
#238=VECTOR($,#875,0.1);
#239=VECTOR($,#876,0.0999999999999996);
#240=VECTOR($,#879,0.1);
#241=VECTOR($,#880,0.0999999999999996);
#242=VECTOR($,#881,0.1);
#243=VECTOR($,#882,0.0999999999999996);
#244=VECTOR($,#885,0.1);
#245=VECTOR($,#886,0.1);
#246=VECTOR($,#889,0.1);
#247=VECTOR($,#892,0.1);
#248=VECTOR($,#897,0.282842712474619);
#249=VECTOR($,#898,1.);
#250=VECTOR($,#899,0.282842712474619);
#251=VECTOR($,#900,1.);
#252=VECTOR($,#903,0.199999999999998);
#253=VECTOR($,#904,0.2);
#254=VECTOR($,#905,0.399999999999999);
#255=VECTOR($,#908,0.399999999999999);
#256=VECTOR($,#909,0.2);
#257=VECTOR($,#910,0.199999999999998);
#258=VECTOR($,#913,1.);
#259=VECTOR($,#914,1.);
#260=VECTOR($,#921,0.00980000000000066);
#261=VECTOR($,#922,0.98);
#262=VECTOR($,#923,0.00980000000000066);
#263=VECTOR($,#924,0.98);
#264=VECTOR($,#927,0.392);
#265=VECTOR($,#928,0.392);
#266=VECTOR($,#929,0.98);
#267=VECTOR($,#932,0.00980000000000066);
#268=VECTOR($,#933,0.00980000000000066);
#269=VECTOR($,#934,0.98);
#270=VECTOR($,#937,0.392);
#271=VECTOR($,#938,0.392);
#272=VECTOR($,#945,0.00980000000000066);
#273=VECTOR($,#946,0.98);
#274=VECTOR($,#947,0.00980000000000066);
#275=VECTOR($,#948,0.98);
#276=VECTOR($,#951,0.392);
#277=VECTOR($,#952,0.392);
#278=VECTOR($,#953,0.98);
#279=VECTOR($,#956,0.00980000000000066);
#280=VECTOR($,#957,0.00980000000000066);
#281=VECTOR($,#958,0.98);
#282=VECTOR($,#961,0.392);
#283=VECTOR($,#962,0.392);
#284=VECTOR($,#969,0.1);
#285=VECTOR($,#970,0.0999999999999996);
#286=VECTOR($,#971,0.1);
#287=VECTOR($,#972,0.0999999999999996);
#288=VECTOR($,#975,0.1);
#289=VECTOR($,#976,0.0999999999999996);
#290=VECTOR($,#977,0.1);
#291=VECTOR($,#978,0.0999999999999996);
#292=VECTOR($,#981,0.1);
#293=VECTOR($,#982,0.1);
#294=VECTOR($,#985,0.1);
#295=VECTOR($,#988,0.1);
#296=VECTOR($,#993,0.1);
#297=VECTOR($,#994,0.0999999999999996);
#298=VECTOR($,#995,0.1);
#299=VECTOR($,#996,0.0999999999999996);
#300=VECTOR($,#999,0.1);
#301=VECTOR($,#1000,0.0999999999999996);
#302=VECTOR($,#1001,0.1);
#303=VECTOR($,#1002,0.0999999999999996);
#304=VECTOR($,#1005,0.1);
#305=VECTOR($,#1006,0.1);
#306=VECTOR($,#1009,0.1);
#307=VECTOR($,#1012,0.1);
#308=VERTEX_POINT($,#1017);
#309=VERTEX_POINT($,#1018);
#310=VERTEX_POINT($,#1020);
#311=VERTEX_POINT($,#1022);
#312=VERTEX_POINT($,#1026);
#313=VERTEX_POINT($,#1028);
#314=VERTEX_POINT($,#1032);
#315=VERTEX_POINT($,#1034);
#316=VERTEX_POINT($,#1043);
#317=VERTEX_POINT($,#1044);
#318=VERTEX_POINT($,#1046);
#319=VERTEX_POINT($,#1048);
#320=VERTEX_POINT($,#1052);
#321=VERTEX_POINT($,#1053);
#322=VERTEX_POINT($,#1055);
#323=VERTEX_POINT($,#1057);
#324=VERTEX_POINT($,#1069);
#325=VERTEX_POINT($,#1070);
#326=VERTEX_POINT($,#1072);
#327=VERTEX_POINT($,#1074);
#328=VERTEX_POINT($,#1078);
#329=VERTEX_POINT($,#1079);
#330=VERTEX_POINT($,#1081);
#331=VERTEX_POINT($,#1083);
#332=VERTEX_POINT($,#1095);
#333=VERTEX_POINT($,#1096);
#334=VERTEX_POINT($,#1098);
#335=VERTEX_POINT($,#1100);
#336=VERTEX_POINT($,#1104);
#337=VERTEX_POINT($,#1106);
#338=VERTEX_POINT($,#1110);
#339=VERTEX_POINT($,#1112);
#340=VERTEX_POINT($,#1121);
#341=VERTEX_POINT($,#1122);
#342=VERTEX_POINT($,#1124);
#343=VERTEX_POINT($,#1126);
#344=VERTEX_POINT($,#1130);
#345=VERTEX_POINT($,#1132);
#346=VERTEX_POINT($,#1136);
#347=VERTEX_POINT($,#1138);
#348=VERTEX_POINT($,#1147);
#349=VERTEX_POINT($,#1148);
#350=VERTEX_POINT($,#1150);
#351=VERTEX_POINT($,#1152);
#352=VERTEX_POINT($,#1156);
#353=VERTEX_POINT($,#1158);
#354=VERTEX_POINT($,#1162);
#355=VERTEX_POINT($,#1164);
#356=VERTEX_POINT($,#1173);
#357=VERTEX_POINT($,#1174);
#358=VERTEX_POINT($,#1176);
#359=VERTEX_POINT($,#1178);
#360=VERTEX_POINT($,#1182);
#361=VERTEX_POINT($,#1183);
#362=VERTEX_POINT($,#1185);
#363=VERTEX_POINT($,#1187);
#364=VERTEX_POINT($,#1199);
#365=VERTEX_POINT($,#1200);
#366=VERTEX_POINT($,#1202);
#367=VERTEX_POINT($,#1204);
#368=VERTEX_POINT($,#1208);
#369=VERTEX_POINT($,#1209);
#370=VERTEX_POINT($,#1211);
#371=VERTEX_POINT($,#1213);
#372=EDGE_CURVE($,#308,#309,#116,.T.);
#373=EDGE_CURVE($,#308,#310,#117,.T.);
#374=EDGE_CURVE($,#311,#310,#118,.T.);
#375=EDGE_CURVE($,#309,#311,#119,.T.);
#376=EDGE_CURVE($,#309,#312,#120,.T.);
#377=EDGE_CURVE($,#313,#311,#121,.T.);
#378=EDGE_CURVE($,#312,#313,#122,.T.);
#379=EDGE_CURVE($,#312,#314,#123,.T.);
#380=EDGE_CURVE($,#315,#313,#124,.T.);
#381=EDGE_CURVE($,#314,#315,#125,.T.);
#382=EDGE_CURVE($,#314,#308,#126,.T.);
#383=EDGE_CURVE($,#310,#315,#127,.T.);
#384=EDGE_CURVE($,#316,#317,#128,.T.);
#385=EDGE_CURVE($,#317,#318,#129,.T.);
#386=EDGE_CURVE($,#318,#319,#130,.T.);
#387=EDGE_CURVE($,#319,#316,#131,.T.);
#388=EDGE_CURVE($,#320,#321,#132,.T.);
#389=EDGE_CURVE($,#321,#322,#133,.T.);
#390=EDGE_CURVE($,#322,#323,#134,.T.);
#391=EDGE_CURVE($,#323,#320,#135,.T.);
#392=EDGE_CURVE($,#319,#322,#136,.T.);
#393=EDGE_CURVE($,#316,#321,#137,.T.);
#394=EDGE_CURVE($,#318,#323,#138,.T.);
#395=EDGE_CURVE($,#317,#320,#139,.T.);
#396=EDGE_CURVE($,#324,#325,#140,.T.);
#397=EDGE_CURVE($,#325,#326,#141,.T.);
#398=EDGE_CURVE($,#326,#327,#142,.T.);
#399=EDGE_CURVE($,#327,#324,#143,.T.);
#400=EDGE_CURVE($,#328,#329,#144,.T.);
#401=EDGE_CURVE($,#329,#330,#145,.T.);
#402=EDGE_CURVE($,#330,#331,#146,.T.);
#403=EDGE_CURVE($,#331,#328,#147,.T.);
#404=EDGE_CURVE($,#327,#330,#148,.T.);
#405=EDGE_CURVE($,#324,#329,#149,.T.);
#406=EDGE_CURVE($,#326,#331,#150,.T.);
#407=EDGE_CURVE($,#325,#328,#151,.T.);
#408=EDGE_CURVE($,#332,#333,#152,.T.);
#409=EDGE_CURVE($,#333,#334,#153,.T.);
#410=EDGE_CURVE($,#334,#335,#154,.T.);
#411=EDGE_CURVE($,#332,#335,#155,.T.);
#412=EDGE_CURVE($,#336,#334,#156,.T.);
#413=EDGE_CURVE($,#336,#337,#157,.T.);
#414=EDGE_CURVE($,#335,#337,#158,.T.);
#415=EDGE_CURVE($,#338,#332,#159,.T.);
#416=EDGE_CURVE($,#339,#338,#160,.T.);
#417=EDGE_CURVE($,#333,#339,#161,.T.);
#418=EDGE_CURVE($,#339,#336,#162,.T.);
#419=EDGE_CURVE($,#337,#338,#163,.T.);
#420=EDGE_CURVE($,#340,#341,#164,.T.);
#421=EDGE_CURVE($,#340,#342,#165,.T.);
#422=EDGE_CURVE($,#343,#342,#166,.T.);
#423=EDGE_CURVE($,#341,#343,#167,.T.);
#424=EDGE_CURVE($,#341,#344,#168,.T.);
#425=EDGE_CURVE($,#345,#343,#169,.T.);
#426=EDGE_CURVE($,#344,#345,#170,.T.);
#427=EDGE_CURVE($,#344,#346,#171,.T.);
#428=EDGE_CURVE($,#347,#345,#172,.T.);
#429=EDGE_CURVE($,#346,#347,#173,.T.);
#430=EDGE_CURVE($,#346,#340,#174,.T.);
#431=EDGE_CURVE($,#342,#347,#175,.T.);
#432=EDGE_CURVE($,#348,#349,#176,.T.);
#433=EDGE_CURVE($,#348,#350,#177,.T.);
#434=EDGE_CURVE($,#351,#350,#178,.T.);
#435=EDGE_CURVE($,#349,#351,#179,.T.);
#436=EDGE_CURVE($,#349,#352,#180,.T.);
#437=EDGE_CURVE($,#353,#351,#181,.T.);
#438=EDGE_CURVE($,#352,#353,#182,.T.);
#439=EDGE_CURVE($,#352,#354,#183,.T.);
#440=EDGE_CURVE($,#355,#353,#184,.T.);
#441=EDGE_CURVE($,#354,#355,#185,.T.);
#442=EDGE_CURVE($,#354,#348,#186,.T.);
#443=EDGE_CURVE($,#350,#355,#187,.T.);
#444=EDGE_CURVE($,#356,#357,#188,.T.);
#445=EDGE_CURVE($,#357,#358,#189,.T.);
#446=EDGE_CURVE($,#358,#359,#190,.T.);
#447=EDGE_CURVE($,#359,#356,#191,.T.);
#448=EDGE_CURVE($,#360,#361,#192,.T.);
#449=EDGE_CURVE($,#361,#362,#193,.T.);
#450=EDGE_CURVE($,#362,#363,#194,.T.);
#451=EDGE_CURVE($,#363,#360,#195,.T.);
#452=EDGE_CURVE($,#359,#362,#196,.T.);
#453=EDGE_CURVE($,#356,#361,#197,.T.);
#454=EDGE_CURVE($,#358,#363,#198,.T.);
#455=EDGE_CURVE($,#357,#360,#199,.T.);
#456=EDGE_CURVE($,#364,#365,#200,.T.);
#457=EDGE_CURVE($,#365,#366,#201,.T.);
#458=EDGE_CURVE($,#366,#367,#202,.T.);
#459=EDGE_CURVE($,#367,#364,#203,.T.);
#460=EDGE_CURVE($,#368,#369,#204,.T.);
#461=EDGE_CURVE($,#369,#370,#205,.T.);
#462=EDGE_CURVE($,#370,#371,#206,.T.);
#463=EDGE_CURVE($,#371,#368,#207,.T.);
#464=EDGE_CURVE($,#367,#370,#208,.T.);
#465=EDGE_CURVE($,#364,#369,#209,.T.);
#466=EDGE_CURVE($,#366,#371,#210,.T.);
#467=EDGE_CURVE($,#365,#368,#211,.T.);
#468=ORIENTED_EDGE($,*,*,#372,.F.);
#469=ORIENTED_EDGE($,*,*,#373,.T.);
#470=ORIENTED_EDGE($,*,*,#374,.F.);
#471=ORIENTED_EDGE($,*,*,#375,.F.);
#472=ORIENTED_EDGE($,*,*,#376,.F.);
#473=ORIENTED_EDGE($,*,*,#375,.T.);
#474=ORIENTED_EDGE($,*,*,#377,.F.);
#475=ORIENTED_EDGE($,*,*,#378,.F.);
#476=ORIENTED_EDGE($,*,*,#379,.F.);
#477=ORIENTED_EDGE($,*,*,#378,.T.);
#478=ORIENTED_EDGE($,*,*,#380,.F.);
#479=ORIENTED_EDGE($,*,*,#381,.F.);
#480=ORIENTED_EDGE($,*,*,#382,.F.);
#481=ORIENTED_EDGE($,*,*,#381,.T.);
#482=ORIENTED_EDGE($,*,*,#383,.F.);
#483=ORIENTED_EDGE($,*,*,#373,.F.);
#484=ORIENTED_EDGE($,*,*,#383,.T.);
#485=ORIENTED_EDGE($,*,*,#380,.T.);
#486=ORIENTED_EDGE($,*,*,#377,.T.);
#487=ORIENTED_EDGE($,*,*,#374,.T.);
#488=ORIENTED_EDGE($,*,*,#382,.T.);
#489=ORIENTED_EDGE($,*,*,#372,.T.);
#490=ORIENTED_EDGE($,*,*,#376,.T.);
#491=ORIENTED_EDGE($,*,*,#379,.T.);
#492=ORIENTED_EDGE($,*,*,#384,.T.);
#493=ORIENTED_EDGE($,*,*,#385,.T.);
#494=ORIENTED_EDGE($,*,*,#386,.T.);
#495=ORIENTED_EDGE($,*,*,#387,.T.);
#496=ORIENTED_EDGE($,*,*,#388,.T.);
#497=ORIENTED_EDGE($,*,*,#389,.T.);
#498=ORIENTED_EDGE($,*,*,#390,.T.);
#499=ORIENTED_EDGE($,*,*,#391,.T.);
#500=ORIENTED_EDGE($,*,*,#392,.T.);
#501=ORIENTED_EDGE($,*,*,#389,.F.);
#502=ORIENTED_EDGE($,*,*,#393,.F.);
#503=ORIENTED_EDGE($,*,*,#387,.F.);
#504=ORIENTED_EDGE($,*,*,#394,.T.);
#505=ORIENTED_EDGE($,*,*,#390,.F.);
#506=ORIENTED_EDGE($,*,*,#392,.F.);
#507=ORIENTED_EDGE($,*,*,#386,.F.);
#508=ORIENTED_EDGE($,*,*,#395,.T.);
#509=ORIENTED_EDGE($,*,*,#391,.F.);
#510=ORIENTED_EDGE($,*,*,#394,.F.);
#511=ORIENTED_EDGE($,*,*,#385,.F.);
#512=ORIENTED_EDGE($,*,*,#393,.T.);
#513=ORIENTED_EDGE($,*,*,#388,.F.);
#514=ORIENTED_EDGE($,*,*,#395,.F.);
#515=ORIENTED_EDGE($,*,*,#384,.F.);
#516=ORIENTED_EDGE($,*,*,#396,.T.);
#517=ORIENTED_EDGE($,*,*,#397,.T.);
#518=ORIENTED_EDGE($,*,*,#398,.T.);
#519=ORIENTED_EDGE($,*,*,#399,.T.);
#520=ORIENTED_EDGE($,*,*,#400,.T.);
#521=ORIENTED_EDGE($,*,*,#401,.T.);
#522=ORIENTED_EDGE($,*,*,#402,.T.);
#523=ORIENTED_EDGE($,*,*,#403,.T.);
#524=ORIENTED_EDGE($,*,*,#404,.T.);
#525=ORIENTED_EDGE($,*,*,#401,.F.);
#526=ORIENTED_EDGE($,*,*,#405,.F.);
#527=ORIENTED_EDGE($,*,*,#399,.F.);
#528=ORIENTED_EDGE($,*,*,#406,.T.);
#529=ORIENTED_EDGE($,*,*,#402,.F.);
#530=ORIENTED_EDGE($,*,*,#404,.F.);
#531=ORIENTED_EDGE($,*,*,#398,.F.);
#532=ORIENTED_EDGE($,*,*,#407,.T.);
#533=ORIENTED_EDGE($,*,*,#403,.F.);
#534=ORIENTED_EDGE($,*,*,#406,.F.);
#535=ORIENTED_EDGE($,*,*,#397,.F.);
#536=ORIENTED_EDGE($,*,*,#405,.T.);
#537=ORIENTED_EDGE($,*,*,#400,.F.);
#538=ORIENTED_EDGE($,*,*,#407,.F.);
#539=ORIENTED_EDGE($,*,*,#396,.F.);
#540=ORIENTED_EDGE($,*,*,#408,.T.);
#541=ORIENTED_EDGE($,*,*,#409,.T.);
#542=ORIENTED_EDGE($,*,*,#410,.T.);
#543=ORIENTED_EDGE($,*,*,#411,.F.);
#544=ORIENTED_EDGE($,*,*,#410,.F.);
#545=ORIENTED_EDGE($,*,*,#412,.F.);
#546=ORIENTED_EDGE($,*,*,#413,.T.);
#547=ORIENTED_EDGE($,*,*,#414,.F.);
#548=ORIENTED_EDGE($,*,*,#408,.F.);
#549=ORIENTED_EDGE($,*,*,#415,.F.);
#550=ORIENTED_EDGE($,*,*,#416,.F.);
#551=ORIENTED_EDGE($,*,*,#417,.F.);
#552=ORIENTED_EDGE($,*,*,#418,.F.);
#553=ORIENTED_EDGE($,*,*,#416,.T.);
#554=ORIENTED_EDGE($,*,*,#419,.F.);
#555=ORIENTED_EDGE($,*,*,#413,.F.);
#556=ORIENTED_EDGE($,*,*,#411,.T.);
#557=ORIENTED_EDGE($,*,*,#414,.T.);
#558=ORIENTED_EDGE($,*,*,#419,.T.);
#559=ORIENTED_EDGE($,*,*,#415,.T.);
#560=ORIENTED_EDGE($,*,*,#409,.F.);
#561=ORIENTED_EDGE($,*,*,#417,.T.);
#562=ORIENTED_EDGE($,*,*,#418,.T.);
#563=ORIENTED_EDGE($,*,*,#412,.T.);
#564=ORIENTED_EDGE($,*,*,#420,.F.);
#565=ORIENTED_EDGE($,*,*,#421,.T.);
#566=ORIENTED_EDGE($,*,*,#422,.F.);
#567=ORIENTED_EDGE($,*,*,#423,.F.);
#568=ORIENTED_EDGE($,*,*,#424,.F.);
#569=ORIENTED_EDGE($,*,*,#423,.T.);
#570=ORIENTED_EDGE($,*,*,#425,.F.);
#571=ORIENTED_EDGE($,*,*,#426,.F.);
#572=ORIENTED_EDGE($,*,*,#427,.F.);
#573=ORIENTED_EDGE($,*,*,#426,.T.);
#574=ORIENTED_EDGE($,*,*,#428,.F.);
#575=ORIENTED_EDGE($,*,*,#429,.F.);
#576=ORIENTED_EDGE($,*,*,#430,.F.);
#577=ORIENTED_EDGE($,*,*,#429,.T.);
#578=ORIENTED_EDGE($,*,*,#431,.F.);
#579=ORIENTED_EDGE($,*,*,#421,.F.);
#580=ORIENTED_EDGE($,*,*,#431,.T.);
#581=ORIENTED_EDGE($,*,*,#428,.T.);
#582=ORIENTED_EDGE($,*,*,#425,.T.);
#583=ORIENTED_EDGE($,*,*,#422,.T.);
#584=ORIENTED_EDGE($,*,*,#430,.T.);
#585=ORIENTED_EDGE($,*,*,#420,.T.);
#586=ORIENTED_EDGE($,*,*,#424,.T.);
#587=ORIENTED_EDGE($,*,*,#427,.T.);
#588=ORIENTED_EDGE($,*,*,#432,.F.);
#589=ORIENTED_EDGE($,*,*,#433,.T.);
#590=ORIENTED_EDGE($,*,*,#434,.F.);
#591=ORIENTED_EDGE($,*,*,#435,.F.);
#592=ORIENTED_EDGE($,*,*,#436,.F.);
#593=ORIENTED_EDGE($,*,*,#435,.T.);
#594=ORIENTED_EDGE($,*,*,#437,.F.);
#595=ORIENTED_EDGE($,*,*,#438,.F.);
#596=ORIENTED_EDGE($,*,*,#439,.F.);
#597=ORIENTED_EDGE($,*,*,#438,.T.);
#598=ORIENTED_EDGE($,*,*,#440,.F.);
#599=ORIENTED_EDGE($,*,*,#441,.F.);
#600=ORIENTED_EDGE($,*,*,#442,.F.);
#601=ORIENTED_EDGE($,*,*,#441,.T.);
#602=ORIENTED_EDGE($,*,*,#443,.F.);
#603=ORIENTED_EDGE($,*,*,#433,.F.);
#604=ORIENTED_EDGE($,*,*,#443,.T.);
#605=ORIENTED_EDGE($,*,*,#440,.T.);
#606=ORIENTED_EDGE($,*,*,#437,.T.);
#607=ORIENTED_EDGE($,*,*,#434,.T.);
#608=ORIENTED_EDGE($,*,*,#442,.T.);
#609=ORIENTED_EDGE($,*,*,#432,.T.);
#610=ORIENTED_EDGE($,*,*,#436,.T.);
#611=ORIENTED_EDGE($,*,*,#439,.T.);
#612=ORIENTED_EDGE($,*,*,#444,.T.);
#613=ORIENTED_EDGE($,*,*,#445,.T.);
#614=ORIENTED_EDGE($,*,*,#446,.T.);
#615=ORIENTED_EDGE($,*,*,#447,.T.);
#616=ORIENTED_EDGE($,*,*,#448,.T.);
#617=ORIENTED_EDGE($,*,*,#449,.T.);
#618=ORIENTED_EDGE($,*,*,#450,.T.);
#619=ORIENTED_EDGE($,*,*,#451,.T.);
#620=ORIENTED_EDGE($,*,*,#452,.T.);
#621=ORIENTED_EDGE($,*,*,#449,.F.);
#622=ORIENTED_EDGE($,*,*,#453,.F.);
#623=ORIENTED_EDGE($,*,*,#447,.F.);
#624=ORIENTED_EDGE($,*,*,#454,.T.);
#625=ORIENTED_EDGE($,*,*,#450,.F.);
#626=ORIENTED_EDGE($,*,*,#452,.F.);
#627=ORIENTED_EDGE($,*,*,#446,.F.);
#628=ORIENTED_EDGE($,*,*,#455,.T.);
#629=ORIENTED_EDGE($,*,*,#451,.F.);
#630=ORIENTED_EDGE($,*,*,#454,.F.);
#631=ORIENTED_EDGE($,*,*,#445,.F.);
#632=ORIENTED_EDGE($,*,*,#453,.T.);
#633=ORIENTED_EDGE($,*,*,#448,.F.);
#634=ORIENTED_EDGE($,*,*,#455,.F.);
#635=ORIENTED_EDGE($,*,*,#444,.F.);
#636=ORIENTED_EDGE($,*,*,#456,.T.);
#637=ORIENTED_EDGE($,*,*,#457,.T.);
#638=ORIENTED_EDGE($,*,*,#458,.T.);
#639=ORIENTED_EDGE($,*,*,#459,.T.);
#640=ORIENTED_EDGE($,*,*,#460,.T.);
#641=ORIENTED_EDGE($,*,*,#461,.T.);
#642=ORIENTED_EDGE($,*,*,#462,.T.);
#643=ORIENTED_EDGE($,*,*,#463,.T.);
#644=ORIENTED_EDGE($,*,*,#464,.T.);
#645=ORIENTED_EDGE($,*,*,#461,.F.);
#646=ORIENTED_EDGE($,*,*,#465,.F.);
#647=ORIENTED_EDGE($,*,*,#459,.F.);
#648=ORIENTED_EDGE($,*,*,#466,.T.);
#649=ORIENTED_EDGE($,*,*,#462,.F.);
#650=ORIENTED_EDGE($,*,*,#464,.F.);
#651=ORIENTED_EDGE($,*,*,#458,.F.);
#652=ORIENTED_EDGE($,*,*,#467,.T.);
#653=ORIENTED_EDGE($,*,*,#463,.F.);
#654=ORIENTED_EDGE($,*,*,#466,.F.);
#655=ORIENTED_EDGE($,*,*,#457,.F.);
#656=ORIENTED_EDGE($,*,*,#465,.T.);
#657=ORIENTED_EDGE($,*,*,#460,.F.);
#658=ORIENTED_EDGE($,*,*,#467,.F.);
#659=ORIENTED_EDGE($,*,*,#456,.F.);
#660=PLANE($,#773);
#661=PLANE($,#774);
#662=PLANE($,#775);
#663=PLANE($,#776);
#664=PLANE($,#777);
#665=PLANE($,#778);
#666=PLANE($,#779);
#667=PLANE($,#780);
#668=PLANE($,#781);
#669=PLANE($,#782);
#670=PLANE($,#783);
#671=PLANE($,#784);
#672=PLANE($,#785);
#673=PLANE($,#786);
#674=PLANE($,#787);
#675=PLANE($,#788);
#676=PLANE($,#789);
#677=PLANE($,#790);
#678=PLANE($,#791);
#679=PLANE($,#792);
#680=PLANE($,#793);
#681=PLANE($,#794);
#682=PLANE($,#795);
#683=PLANE($,#796);
#684=PLANE($,#797);
#685=PLANE($,#798);
#686=PLANE($,#799);
#687=PLANE($,#800);
#688=PLANE($,#801);
#689=PLANE($,#802);
#690=PLANE($,#803);
#691=PLANE($,#804);
#692=PLANE($,#805);
#693=PLANE($,#806);
#694=PLANE($,#807);
#695=PLANE($,#808);
#696=PLANE($,#809);
#697=PLANE($,#810);
#698=PLANE($,#811);
#699=PLANE($,#812);
#700=PLANE($,#813);
#701=PLANE($,#814);
#702=PLANE($,#815);
#703=PLANE($,#816);
#704=PLANE($,#817);
#705=PLANE($,#818);
#706=PLANE($,#819);
#707=PLANE($,#820);
#708=ADVANCED_FACE($,(#20),#660,.T.);
#709=ADVANCED_FACE($,(#21),#661,.T.);
#710=ADVANCED_FACE($,(#22),#662,.T.);
#711=ADVANCED_FACE($,(#23),#663,.T.);
#712=ADVANCED_FACE($,(#24),#664,.T.);
#713=ADVANCED_FACE($,(#25),#665,.F.);
#714=ADVANCED_FACE($,(#26),#666,.T.);
#715=ADVANCED_FACE($,(#27),#667,.F.);
#716=ADVANCED_FACE($,(#28),#668,.F.);
#717=ADVANCED_FACE($,(#29),#669,.F.);
#718=ADVANCED_FACE($,(#30),#670,.F.);
#719=ADVANCED_FACE($,(#31),#671,.F.);
#720=ADVANCED_FACE($,(#32),#672,.T.);
#721=ADVANCED_FACE($,(#33),#673,.F.);
#722=ADVANCED_FACE($,(#34),#674,.F.);
#723=ADVANCED_FACE($,(#35),#675,.F.);
#724=ADVANCED_FACE($,(#36),#676,.F.);
#725=ADVANCED_FACE($,(#37),#677,.F.);
#726=ADVANCED_FACE($,(#38),#678,.T.);
#727=ADVANCED_FACE($,(#39),#679,.T.);
#728=ADVANCED_FACE($,(#40),#680,.T.);
#729=ADVANCED_FACE($,(#41),#681,.T.);
#730=ADVANCED_FACE($,(#42),#682,.T.);
#731=ADVANCED_FACE($,(#43),#683,.F.);
#732=ADVANCED_FACE($,(#44),#684,.T.);
#733=ADVANCED_FACE($,(#45),#685,.T.);
#734=ADVANCED_FACE($,(#46),#686,.T.);
#735=ADVANCED_FACE($,(#47),#687,.T.);
#736=ADVANCED_FACE($,(#48),#688,.T.);
#737=ADVANCED_FACE($,(#49),#689,.F.);
#738=ADVANCED_FACE($,(#50),#690,.T.);
#739=ADVANCED_FACE($,(#51),#691,.T.);
#740=ADVANCED_FACE($,(#52),#692,.T.);
#741=ADVANCED_FACE($,(#53),#693,.T.);
#742=ADVANCED_FACE($,(#54),#694,.T.);
#743=ADVANCED_FACE($,(#55),#695,.F.);
#744=ADVANCED_FACE($,(#56),#696,.T.);
#745=ADVANCED_FACE($,(#57),#697,.F.);
#746=ADVANCED_FACE($,(#58),#698,.F.);
#747=ADVANCED_FACE($,(#59),#699,.F.);
#748=ADVANCED_FACE($,(#60),#700,.F.);
#749=ADVANCED_FACE($,(#61),#701,.F.);
#750=ADVANCED_FACE($,(#62),#702,.T.);
#751=ADVANCED_FACE($,(#63),#703,.F.);
#752=ADVANCED_FACE($,(#64),#704,.F.);
#753=ADVANCED_FACE($,(#65),#705,.F.);
#754=ADVANCED_FACE($,(#66),#706,.F.);
#755=ADVANCED_FACE($,(#67),#707,.F.);
#756=CLOSED_SHELL($,(#708,#709,#710,#711,#712,#713));
#757=CLOSED_SHELL($,(#714,#715,#716,#717,#718,#719));
#758=CLOSED_SHELL($,(#720,#721,#722,#723,#724,#725));
#759=CLOSED_SHELL($,(#726,#727,#728,#729,#730,#731));
#760=CLOSED_SHELL($,(#732,#733,#734,#735,#736,#737));
#761=CLOSED_SHELL($,(#738,#739,#740,#741,#742,#743));
#762=CLOSED_SHELL($,(#744,#745,#746,#747,#748,#749));
#763=CLOSED_SHELL($,(#750,#751,#752,#753,#754,#755));
#764=MANIFOLD_SOLID_BREP('ASM Body',#756);
#765=MANIFOLD_SOLID_BREP('ASM Body',#757);
#766=MANIFOLD_SOLID_BREP('ASM Body',#758);
#767=MANIFOLD_SOLID_BREP('ASM Body',#759);
#768=MANIFOLD_SOLID_BREP('ASM Body',#760);
#769=MANIFOLD_SOLID_BREP('ASM Body',#761);
#770=MANIFOLD_SOLID_BREP('ASM Body',#762);
#771=MANIFOLD_SOLID_BREP('ASM Body',#763);
#772=AXIS2_PLACEMENT_3D('placement',#1015,#821,#822);
#773=AXIS2_PLACEMENT_3D($,#1016,#823,#824);
#774=AXIS2_PLACEMENT_3D($,#1025,#829,#830);
#775=AXIS2_PLACEMENT_3D($,#1031,#834,#835);
#776=AXIS2_PLACEMENT_3D($,#1037,#839,#840);
#777=AXIS2_PLACEMENT_3D($,#1040,#843,#844);
#778=AXIS2_PLACEMENT_3D($,#1041,#845,#846);
#779=AXIS2_PLACEMENT_3D($,#1042,#847,#848);
#780=AXIS2_PLACEMENT_3D($,#1051,#853,#854);
#781=AXIS2_PLACEMENT_3D($,#1060,#859,#860);
#782=AXIS2_PLACEMENT_3D($,#1063,#863,#864);
#783=AXIS2_PLACEMENT_3D($,#1065,#866,#867);
#784=AXIS2_PLACEMENT_3D($,#1067,#869,#870);
#785=AXIS2_PLACEMENT_3D($,#1068,#871,#872);
#786=AXIS2_PLACEMENT_3D($,#1077,#877,#878);
#787=AXIS2_PLACEMENT_3D($,#1086,#883,#884);
#788=AXIS2_PLACEMENT_3D($,#1089,#887,#888);
#789=AXIS2_PLACEMENT_3D($,#1091,#890,#891);
#790=AXIS2_PLACEMENT_3D($,#1093,#893,#894);
#791=AXIS2_PLACEMENT_3D($,#1094,#895,#896);
#792=AXIS2_PLACEMENT_3D($,#1103,#901,#902);
#793=AXIS2_PLACEMENT_3D($,#1109,#906,#907);
#794=AXIS2_PLACEMENT_3D($,#1115,#911,#912);
#795=AXIS2_PLACEMENT_3D($,#1118,#915,#916);
#796=AXIS2_PLACEMENT_3D($,#1119,#917,#918);
#797=AXIS2_PLACEMENT_3D($,#1120,#919,#920);
#798=AXIS2_PLACEMENT_3D($,#1129,#925,#926);
#799=AXIS2_PLACEMENT_3D($,#1135,#930,#931);
#800=AXIS2_PLACEMENT_3D($,#1141,#935,#936);
#801=AXIS2_PLACEMENT_3D($,#1144,#939,#940);
#802=AXIS2_PLACEMENT_3D($,#1145,#941,#942);
#803=AXIS2_PLACEMENT_3D($,#1146,#943,#944);
#804=AXIS2_PLACEMENT_3D($,#1155,#949,#950);
#805=AXIS2_PLACEMENT_3D($,#1161,#954,#955);
#806=AXIS2_PLACEMENT_3D($,#1167,#959,#960);
#807=AXIS2_PLACEMENT_3D($,#1170,#963,#964);
#808=AXIS2_PLACEMENT_3D($,#1171,#965,#966);
#809=AXIS2_PLACEMENT_3D($,#1172,#967,#968);
#810=AXIS2_PLACEMENT_3D($,#1181,#973,#974);
#811=AXIS2_PLACEMENT_3D($,#1190,#979,#980);
#812=AXIS2_PLACEMENT_3D($,#1193,#983,#984);
#813=AXIS2_PLACEMENT_3D($,#1195,#986,#987);
#814=AXIS2_PLACEMENT_3D($,#1197,#989,#990);
#815=AXIS2_PLACEMENT_3D($,#1198,#991,#992);
#816=AXIS2_PLACEMENT_3D($,#1207,#997,#998);
#817=AXIS2_PLACEMENT_3D($,#1216,#1003,#1004);
#818=AXIS2_PLACEMENT_3D($,#1219,#1007,#1008);
#819=AXIS2_PLACEMENT_3D($,#1221,#1010,#1011);
#820=AXIS2_PLACEMENT_3D($,#1223,#1013,#1014);
#821=DIRECTION('axis',(0.,0.,1.));
#822=DIRECTION('refdir',(1.,0.,0.));
#823=DIRECTION('center_axis',(1.,0.,0.));
#824=DIRECTION('ref_axis',(0.,1.,0.));
#825=DIRECTION($,(0.,-1.,0.));
#826=DIRECTION($,(0.,0.,1.));
#827=DIRECTION($,(0.,1.,0.));
#828=DIRECTION($,(0.,0.,1.));
#829=DIRECTION('center_axis',(0.,-1.,0.));
#830=DIRECTION('ref_axis',(1.,0.,0.));
#831=DIRECTION($,(-1.,0.,0.));
#832=DIRECTION($,(1.,0.,0.));
#833=DIRECTION($,(0.,0.,1.));
#834=DIRECTION('center_axis',(-1.,0.,0.));
#835=DIRECTION('ref_axis',(0.,-1.,0.));
#836=DIRECTION($,(0.,1.,0.));
#837=DIRECTION($,(0.,-1.,0.));
#838=DIRECTION($,(0.,0.,1.));
#839=DIRECTION('center_axis',(0.,1.,0.));
#840=DIRECTION('ref_axis',(-1.,0.,0.));
#841=DIRECTION($,(1.,0.,0.));
#842=DIRECTION($,(-1.,0.,0.));
#843=DIRECTION('center_axis',(0.,0.,1.));
#844=DIRECTION('ref_axis',(1.,0.,0.));
#845=DIRECTION('center_axis',(0.,0.,1.));
#846=DIRECTION('ref_axis',(1.,0.,0.));
#847=DIRECTION('center_axis',(0.,0.,1.));
#848=DIRECTION('ref_axis',(1.,0.,0.));
#849=DIRECTION($,(0.,1.,0.));
#850=DIRECTION($,(-1.,0.,0.));
#851=DIRECTION($,(0.,-1.,0.));
#852=DIRECTION($,(1.,0.,0.));
#853=DIRECTION('center_axis',(0.,0.,1.));
#854=DIRECTION('ref_axis',(1.,0.,0.));
#855=DIRECTION($,(0.,-1.,0.));
#856=DIRECTION($,(-1.,0.,0.));
#857=DIRECTION($,(0.,1.,0.));
#858=DIRECTION($,(1.,0.,0.));
#859=DIRECTION('center_axis',(0.,1.,0.));
#860=DIRECTION('ref_axis',(0.,0.,1.));
#861=DIRECTION($,(0.,0.,-1.));
#862=DIRECTION($,(0.,0.,-1.));
#863=DIRECTION('center_axis',(1.,0.,0.));
#864=DIRECTION('ref_axis',(0.,0.,-1.));
#865=DIRECTION($,(0.,0.,-1.));
#866=DIRECTION('center_axis',(0.,-1.,0.));
#867=DIRECTION('ref_axis',(0.,0.,-1.));
#868=DIRECTION($,(0.,0.,-1.));
#869=DIRECTION('center_axis',(-1.,0.,0.));
#870=DIRECTION('ref_axis',(0.,0.,1.));
#871=DIRECTION('center_axis',(0.,0.,1.));
#872=DIRECTION('ref_axis',(1.,0.,0.));
#873=DIRECTION($,(0.,1.,0.));
#874=DIRECTION($,(-1.,0.,0.));
#875=DIRECTION($,(0.,-1.,0.));
#876=DIRECTION($,(1.,0.,0.));
#877=DIRECTION('center_axis',(0.,0.,1.));
#878=DIRECTION('ref_axis',(1.,0.,0.));
#879=DIRECTION($,(0.,-1.,0.));
#880=DIRECTION($,(-1.,0.,0.));
#881=DIRECTION($,(0.,1.,0.));
#882=DIRECTION($,(1.,0.,0.));
#883=DIRECTION('center_axis',(0.,1.,0.));
#884=DIRECTION('ref_axis',(0.,0.,1.));
#885=DIRECTION($,(0.,0.,-1.));
#886=DIRECTION($,(0.,0.,-1.));
#887=DIRECTION('center_axis',(1.,0.,0.));
#888=DIRECTION('ref_axis',(0.,0.,-1.));
#889=DIRECTION($,(0.,0.,-1.));
#890=DIRECTION('center_axis',(0.,-1.,0.));
#891=DIRECTION('ref_axis',(0.,0.,-1.));
#892=DIRECTION($,(0.,0.,-1.));
#893=DIRECTION('center_axis',(-1.,0.,0.));
#894=DIRECTION('ref_axis',(0.,0.,1.));
#895=DIRECTION('center_axis',(-0.707106781186547,0.,0.707106781186548));
#896=DIRECTION('ref_axis',(0.707106781186548,0.,0.707106781186547));
#897=DIRECTION($,(0.707106781186548,0.,0.707106781186547));
#898=DIRECTION($,(0.,1.,0.));
#899=DIRECTION($,(-0.707106781186548,0.,-0.707106781186547));
#900=DIRECTION($,(0.,1.,0.));
#901=DIRECTION('center_axis',(0.,1.,0.));
#902=DIRECTION('ref_axis',(0.,0.,1.));
#903=DIRECTION($,(-1.,0.,0.));
#904=DIRECTION($,(0.,0.,-1.));
#905=DIRECTION($,(1.,0.,0.));
#906=DIRECTION('center_axis',(0.,-1.,0.));
#907=DIRECTION('ref_axis',(0.,0.,-1.));
#908=DIRECTION($,(-1.,0.,0.));
#909=DIRECTION($,(0.,0.,-1.));
#910=DIRECTION($,(1.,0.,0.));
#911=DIRECTION('center_axis',(1.,0.,0.));
#912=DIRECTION('ref_axis',(0.,0.,1.));
#913=DIRECTION($,(0.,1.,0.));
#914=DIRECTION($,(0.,-1.,0.));
#915=DIRECTION('center_axis',(0.,0.,-1.));
#916=DIRECTION('ref_axis',(1.,0.,0.));
#917=DIRECTION('center_axis',(0.,0.,-1.));
#918=DIRECTION('ref_axis',(1.,0.,0.));
#919=DIRECTION('center_axis',(0.,1.,0.));
#920=DIRECTION('ref_axis',(0.,0.,-1.));
#921=DIRECTION($,(-1.,0.,0.));
#922=DIRECTION($,(0.,0.,-1.));
#923=DIRECTION($,(1.,0.,0.));
#924=DIRECTION($,(0.,0.,-1.));
#925=DIRECTION('center_axis',(-1.,0.,0.));
#926=DIRECTION('ref_axis',(0.,0.,1.));
#927=DIRECTION($,(0.,-1.,0.));
#928=DIRECTION($,(0.,1.,0.));
#929=DIRECTION($,(0.,0.,-1.));
#930=DIRECTION('center_axis',(0.,-1.,0.));
#931=DIRECTION('ref_axis',(0.,0.,1.));
#932=DIRECTION($,(1.,0.,0.));
#933=DIRECTION($,(-1.,0.,0.));
#934=DIRECTION($,(0.,0.,-1.));
#935=DIRECTION('center_axis',(1.,0.,0.));
#936=DIRECTION('ref_axis',(0.,0.,-1.));
#937=DIRECTION($,(0.,1.,0.));
#938=DIRECTION($,(0.,-1.,0.));
#939=DIRECTION('center_axis',(0.,0.,-1.));
#940=DIRECTION('ref_axis',(-1.,0.,0.));
#941=DIRECTION('center_axis',(0.,0.,-1.));
#942=DIRECTION('ref_axis',(-1.,0.,0.));
#943=DIRECTION('center_axis',(0.,1.,0.));
#944=DIRECTION('ref_axis',(0.,0.,-1.));
#945=DIRECTION($,(-1.,0.,0.));
#946=DIRECTION($,(0.,0.,-1.));
#947=DIRECTION($,(1.,0.,0.));
#948=DIRECTION($,(0.,0.,-1.));
#949=DIRECTION('center_axis',(-1.,0.,0.));
#950=DIRECTION('ref_axis',(0.,0.,1.));
#951=DIRECTION($,(0.,-1.,0.));
#952=DIRECTION($,(0.,1.,0.));
#953=DIRECTION($,(0.,0.,-1.));
#954=DIRECTION('center_axis',(0.,-1.,0.));
#955=DIRECTION('ref_axis',(0.,0.,1.));
#956=DIRECTION($,(1.,0.,0.));
#957=DIRECTION($,(-1.,0.,0.));
#958=DIRECTION($,(0.,0.,-1.));
#959=DIRECTION('center_axis',(1.,0.,0.));
#960=DIRECTION('ref_axis',(0.,0.,-1.));
#961=DIRECTION($,(0.,1.,0.));
#962=DIRECTION($,(0.,-1.,0.));
#963=DIRECTION('center_axis',(0.,0.,-1.));
#964=DIRECTION('ref_axis',(-1.,0.,0.));
#965=DIRECTION('center_axis',(0.,0.,-1.));
#966=DIRECTION('ref_axis',(-1.,0.,0.));
#967=DIRECTION('center_axis',(0.,0.,1.));
#968=DIRECTION('ref_axis',(1.,0.,0.));
#969=DIRECTION($,(0.,1.,0.));
#970=DIRECTION($,(-1.,0.,0.));
#971=DIRECTION($,(0.,-1.,0.));
#972=DIRECTION($,(1.,0.,0.));
#973=DIRECTION('center_axis',(0.,0.,1.));
#974=DIRECTION('ref_axis',(1.,0.,0.));
#975=DIRECTION($,(0.,-1.,0.));
#976=DIRECTION($,(-1.,0.,0.));
#977=DIRECTION($,(0.,1.,0.));
#978=DIRECTION($,(1.,0.,0.));
#979=DIRECTION('center_axis',(0.,1.,0.));
#980=DIRECTION('ref_axis',(0.,0.,1.));
#981=DIRECTION($,(0.,0.,-1.));
#982=DIRECTION($,(0.,0.,-1.));
#983=DIRECTION('center_axis',(1.,0.,0.));
#984=DIRECTION('ref_axis',(0.,0.,-1.));
#985=DIRECTION($,(0.,0.,-1.));
#986=DIRECTION('center_axis',(0.,-1.,0.));
#987=DIRECTION('ref_axis',(0.,0.,-1.));
#988=DIRECTION($,(0.,0.,-1.));
#989=DIRECTION('center_axis',(-1.,0.,0.));
#990=DIRECTION('ref_axis',(0.,0.,1.));
#991=DIRECTION('center_axis',(0.,0.,1.));
#992=DIRECTION('ref_axis',(1.,0.,0.));
#993=DIRECTION($,(0.,1.,0.));
#994=DIRECTION($,(-1.,0.,0.));
#995=DIRECTION($,(0.,-1.,0.));
#996=DIRECTION($,(1.,0.,0.));
#997=DIRECTION('center_axis',(0.,0.,1.));
#998=DIRECTION('ref_axis',(1.,0.,0.));
#999=DIRECTION($,(0.,-1.,0.));
#1000=DIRECTION($,(-1.,0.,0.));
#1001=DIRECTION($,(0.,1.,0.));
#1002=DIRECTION($,(1.,0.,0.));
#1003=DIRECTION('center_axis',(0.,1.,0.));
#1004=DIRECTION('ref_axis',(0.,0.,1.));
#1005=DIRECTION($,(0.,0.,-1.));
#1006=DIRECTION($,(0.,0.,-1.));
#1007=DIRECTION('center_axis',(1.,0.,0.));
#1008=DIRECTION('ref_axis',(0.,0.,-1.));
#1009=DIRECTION($,(0.,0.,-1.));
#1010=DIRECTION('center_axis',(0.,-1.,0.));
#1011=DIRECTION('ref_axis',(0.,0.,-1.));
#1012=DIRECTION($,(0.,0.,-1.));
#1013=DIRECTION('center_axis',(-1.,0.,0.));
#1014=DIRECTION('ref_axis',(0.,0.,1.));
#1015=CARTESIAN_POINT('',(0.,0.,0.));
#1016=CARTESIAN_POINT('Origin',(-4.63569573162655,7.94930027701014,0.226500000000038));
#1017=CARTESIAN_POINT('',(-4.63569573162655,8.94930027701014,0.226500000000038));
#1018=CARTESIAN_POINT('',(-4.63569573162655,7.94930027701014,0.226500000000038));
#1019=CARTESIAN_POINT($,(-4.63569573162655,8.94930027701014,0.226500000000038));
#1020=CARTESIAN_POINT('',(-4.63569573162655,8.94930027701014,1.62650000000003));
#1021=CARTESIAN_POINT($,(-4.63569573162655,8.94930027701014,0.226500000000038));
#1022=CARTESIAN_POINT('',(-4.63569573162655,7.94930027701014,1.62650000000003));
#1023=CARTESIAN_POINT($,(-4.63569573162655,7.42923836723769,1.62650000000003));
#1024=CARTESIAN_POINT($,(-4.63569573162655,7.94930027701014,0.226500000000038));
#1025=CARTESIAN_POINT('Origin',(-5.03569573162655,7.94930027701014,0.226500000000038));
#1026=CARTESIAN_POINT('',(-5.03569573162655,7.94930027701014,0.226500000000038));
#1027=CARTESIAN_POINT($,(-4.63569573162655,7.94930027701014,0.226500000000038));
#1028=CARTESIAN_POINT('',(-5.03569573162655,7.94930027701014,1.62650000000003));
#1029=CARTESIAN_POINT($,(-4.68795132786837,7.94930027701014,1.62650000000003));
#1030=CARTESIAN_POINT($,(-5.03569573162655,7.94930027701014,0.226500000000038));
#1031=CARTESIAN_POINT('Origin',(-5.03569573162655,8.94930027701014,0.226500000000038));
#1032=CARTESIAN_POINT('',(-5.03569573162655,8.94930027701014,0.226500000000038));
#1033=CARTESIAN_POINT($,(-5.03569573162655,7.94930027701014,0.226500000000038));
#1034=CARTESIAN_POINT('',(-5.03569573162655,8.94930027701014,1.62650000000003));
#1035=CARTESIAN_POINT($,(-5.03569573162655,7.92923836723769,1.62650000000003));
#1036=CARTESIAN_POINT($,(-5.03569573162655,8.94930027701014,0.226500000000038));
#1037=CARTESIAN_POINT('Origin',(-4.63569573162655,8.94930027701014,0.226500000000038));
#1038=CARTESIAN_POINT($,(-5.03569573162655,8.94930027701014,0.226500000000038));
#1039=CARTESIAN_POINT($,(-4.48795132786837,8.94930027701014,1.62650000000003));
#1040=CARTESIAN_POINT('Origin',(-4.34020692411019,6.90917645746524,1.62650000000003));
#1041=CARTESIAN_POINT('Origin',(-4.34020692411019,6.90917645746524,0.226500000000038));
#1042=CARTESIAN_POINT('Origin',(-4.93569573162655,8.04930027701014,0.226500000000033));
#1043=CARTESIAN_POINT('',(-4.88569573162655,7.99930027701014,0.226500000000033));
#1044=CARTESIAN_POINT('',(-4.88569573162655,8.09930027701014,0.226500000000033));
#1045=CARTESIAN_POINT($,(-4.88569573162655,8.04930027701014,0.226500000000033));
#1046=CARTESIAN_POINT('',(-4.98569573162655,8.09930027701014,0.226500000000033));
#1047=CARTESIAN_POINT($,(-4.93569573162655,8.09930027701014,0.226500000000033));
#1048=CARTESIAN_POINT('',(-4.98569573162655,7.99930027701014,0.226500000000033));
#1049=CARTESIAN_POINT($,(-4.98569573162655,8.04930027701014,0.226500000000033));
#1050=CARTESIAN_POINT($,(-4.93569573162655,7.99930027701014,0.226500000000033));
#1051=CARTESIAN_POINT('Origin',(-4.93569573162655,8.04930027701014,0.126500000000033));
#1052=CARTESIAN_POINT('',(-4.88569573162655,8.09930027701014,0.126500000000033));
#1053=CARTESIAN_POINT('',(-4.88569573162655,7.99930027701014,0.126500000000033));
#1054=CARTESIAN_POINT($,(-4.88569573162655,8.04930027701014,0.126500000000033));
#1055=CARTESIAN_POINT('',(-4.98569573162655,7.99930027701014,0.126500000000033));
#1056=CARTESIAN_POINT($,(-4.93569573162655,7.99930027701014,0.126500000000033));
#1057=CARTESIAN_POINT('',(-4.98569573162655,8.09930027701014,0.126500000000033));
#1058=CARTESIAN_POINT($,(-4.98569573162655,8.04930027701014,0.126500000000033));
#1059=CARTESIAN_POINT($,(-4.93569573162655,8.09930027701014,0.126500000000033));
#1060=CARTESIAN_POINT('Origin',(-4.93569573162655,7.99930027701014,0.176500000000033));
#1061=CARTESIAN_POINT($,(-4.98569573162655,7.99930027701014,0.176500000000033));
#1062=CARTESIAN_POINT($,(-4.88569573162655,7.99930027701014,0.176500000000033));
#1063=CARTESIAN_POINT('Origin',(-4.98569573162655,8.04930027701014,0.176500000000033));
#1064=CARTESIAN_POINT($,(-4.98569573162655,8.09930027701014,0.176500000000033));
#1065=CARTESIAN_POINT('Origin',(-4.93569573162655,8.09930027701014,0.176500000000033));
#1066=CARTESIAN_POINT($,(-4.88569573162655,8.09930027701014,0.176500000000033));
#1067=CARTESIAN_POINT('Origin',(-4.88569573162655,8.04930027701014,0.176500000000033));
#1068=CARTESIAN_POINT('Origin',(-4.93569573162655,8.84930027701014,0.226500000000033));
#1069=CARTESIAN_POINT('',(-4.88569573162655,8.79930027701014,0.226500000000033));
#1070=CARTESIAN_POINT('',(-4.88569573162655,8.89930027701014,0.226500000000033));
#1071=CARTESIAN_POINT($,(-4.88569573162655,8.84930027701014,0.226500000000033));
#1072=CARTESIAN_POINT('',(-4.98569573162655,8.89930027701014,0.226500000000033));
#1073=CARTESIAN_POINT($,(-4.93569573162655,8.89930027701014,0.226500000000033));
#1074=CARTESIAN_POINT('',(-4.98569573162655,8.79930027701014,0.226500000000033));
#1075=CARTESIAN_POINT($,(-4.98569573162655,8.84930027701014,0.226500000000033));
#1076=CARTESIAN_POINT($,(-4.93569573162655,8.79930027701014,0.226500000000033));
#1077=CARTESIAN_POINT('Origin',(-4.93569573162655,8.84930027701014,0.126500000000033));
#1078=CARTESIAN_POINT('',(-4.88569573162655,8.89930027701014,0.126500000000033));
#1079=CARTESIAN_POINT('',(-4.88569573162655,8.79930027701014,0.126500000000033));
#1080=CARTESIAN_POINT($,(-4.88569573162655,8.84930027701014,0.126500000000033));
#1081=CARTESIAN_POINT('',(-4.98569573162655,8.79930027701014,0.126500000000033));
#1082=CARTESIAN_POINT($,(-4.93569573162655,8.79930027701014,0.126500000000033));
#1083=CARTESIAN_POINT('',(-4.98569573162655,8.89930027701014,0.126500000000033));
#1084=CARTESIAN_POINT($,(-4.98569573162655,8.84930027701014,0.126500000000033));
#1085=CARTESIAN_POINT($,(-4.93569573162655,8.89930027701014,0.126500000000033));
#1086=CARTESIAN_POINT('Origin',(-4.93569573162655,8.79930027701014,0.176500000000033));
#1087=CARTESIAN_POINT($,(-4.98569573162655,8.79930027701014,0.176500000000033));
#1088=CARTESIAN_POINT($,(-4.88569573162655,8.79930027701014,0.176500000000033));
#1089=CARTESIAN_POINT('Origin',(-4.98569573162655,8.84930027701014,0.176500000000033));
#1090=CARTESIAN_POINT($,(-4.98569573162655,8.89930027701014,0.176500000000033));
#1091=CARTESIAN_POINT('Origin',(-4.93569573162655,8.89930027701014,0.176500000000033));
#1092=CARTESIAN_POINT($,(-4.88569573162655,8.89930027701014,0.176500000000033));
#1093=CARTESIAN_POINT('Origin',(-4.88569573162655,8.84930027701014,0.176500000000033));
#1094=CARTESIAN_POINT('Origin',(-4.93569573162655,8.00107789267221,1.72650000000003));
#1095=CARTESIAN_POINT('',(-5.03569573162655,7.94930027701014,1.62650000000003));
#1096=CARTESIAN_POINT('',(-4.83569573162655,7.94930027701014,1.82650000000003));
#1097=CARTESIAN_POINT($,(-4.83569573162655,7.94930027701014,1.82650000000003));
#1098=CARTESIAN_POINT('',(-4.83569573162655,8.94930027701014,1.82650000000003));
#1099=CARTESIAN_POINT($,(-4.83569573162655,8.00107789267221,1.82650000000003));
#1100=CARTESIAN_POINT('',(-5.03569573162655,8.94930027701014,1.62650000000003));
#1101=CARTESIAN_POINT($,(-4.93569573162655,8.94930027701014,1.72650000000003));
#1102=CARTESIAN_POINT($,(-5.03569573162655,8.00107789267221,1.62650000000003));
#1103=CARTESIAN_POINT('Origin',(-5.03569573162655,8.94930027701014,1.82650000000003));
#1104=CARTESIAN_POINT('',(-4.63569573162655,8.94930027701014,1.82650000000003));
#1105=CARTESIAN_POINT($,(-4.63569573162655,8.94930027701014,1.82650000000003));
#1106=CARTESIAN_POINT('',(-4.63569573162655,8.94930027701014,1.62650000000003));
#1107=CARTESIAN_POINT($,(-4.63569573162655,8.94930027701014,1.82650000000003));
#1108=CARTESIAN_POINT($,(-4.68795132786837,8.94930027701014,1.62650000000003));
#1109=CARTESIAN_POINT('Origin',(-4.63569573162655,7.94930027701014,1.82650000000003));
#1110=CARTESIAN_POINT('',(-4.63569573162655,7.94930027701014,1.62650000000003));
#1111=CARTESIAN_POINT($,(-4.48795132786837,7.94930027701014,1.62650000000003));
#1112=CARTESIAN_POINT('',(-4.63569573162655,7.94930027701014,1.82650000000003));
#1113=CARTESIAN_POINT($,(-4.63569573162655,7.94930027701014,1.82650000000003));
#1114=CARTESIAN_POINT($,(-5.03569573162655,7.94930027701014,1.82650000000003));
#1115=CARTESIAN_POINT('Origin',(-4.63569573162655,8.94930027701014,1.82650000000003));
#1116=CARTESIAN_POINT($,(-4.63569573162655,7.94930027701014,1.82650000000003));
#1117=CARTESIAN_POINT($,(-4.63569573162655,8.50107789267221,1.62650000000003));
#1118=CARTESIAN_POINT('Origin',(-4.34020692411019,8.05285550833429,1.62650000000003));
#1119=CARTESIAN_POINT('Origin',(-4.34020692411019,8.05285550833429,1.82650000000003));
#1120=CARTESIAN_POINT('Origin',(-5.04559573162655,8.84530027701014,1.41650000000004));
#1121=CARTESIAN_POINT('',(-5.03579573162655,8.84530027701014,1.41650000000004));
#1122=CARTESIAN_POINT('',(-5.04559573162655,8.84530027701014,1.41650000000004));
#1123=CARTESIAN_POINT($,(-5.03579573162655,8.84530027701014,1.41650000000004));
#1124=CARTESIAN_POINT('',(-5.03579573162655,8.84530027701014,0.436500000000035));
#1125=CARTESIAN_POINT($,(-5.03579573162655,8.84530027701014,1.41650000000004));
#1126=CARTESIAN_POINT('',(-5.04559573162655,8.84530027701014,0.436500000000035));
#1127=CARTESIAN_POINT($,(-5.04921546951863,8.84530027701014,0.436500000000035));
#1128=CARTESIAN_POINT($,(-5.04559573162655,8.84530027701014,1.41650000000004));
#1129=CARTESIAN_POINT('Origin',(-5.04559573162655,8.45330027701014,1.41650000000004));
#1130=CARTESIAN_POINT('',(-5.04559573162655,8.45330027701014,1.41650000000004));
#1131=CARTESIAN_POINT($,(-5.04559573162655,8.84530027701014,1.41650000000004));
#1132=CARTESIAN_POINT('',(-5.04559573162655,8.45330027701014,0.436500000000035));
#1133=CARTESIAN_POINT($,(-5.04559573162655,8.6290034516706,0.436500000000035));
#1134=CARTESIAN_POINT($,(-5.04559573162655,8.45330027701014,1.41650000000004));
#1135=CARTESIAN_POINT('Origin',(-5.03579573162655,8.45330027701014,1.41650000000004));
#1136=CARTESIAN_POINT('',(-5.03579573162655,8.45330027701014,1.41650000000004));
#1137=CARTESIAN_POINT($,(-5.04559573162655,8.45330027701014,1.41650000000004));
#1138=CARTESIAN_POINT('',(-5.03579573162655,8.45330027701014,0.436500000000035));
#1139=CARTESIAN_POINT($,(-5.04431546951863,8.45330027701014,0.436500000000035));
#1140=CARTESIAN_POINT($,(-5.03579573162655,8.45330027701014,1.41650000000004));
#1141=CARTESIAN_POINT('Origin',(-5.03579573162655,8.84530027701014,1.41650000000004));
#1142=CARTESIAN_POINT($,(-5.03579573162655,8.45330027701014,1.41650000000004));
#1143=CARTESIAN_POINT($,(-5.03579573162655,8.82500345167061,0.436500000000035));
#1144=CARTESIAN_POINT('Origin',(-5.0528352074107,8.80470662633107,0.436500000000035));
#1145=CARTESIAN_POINT('Origin',(-5.0528352074107,8.80470662633107,1.41650000000004));
#1146=CARTESIAN_POINT('Origin',(-5.04559573162655,8.44530027701014,1.41650000000004));
#1147=CARTESIAN_POINT('',(-5.03579573162655,8.44530027701014,1.41650000000004));
#1148=CARTESIAN_POINT('',(-5.04559573162655,8.44530027701014,1.41650000000004));
#1149=CARTESIAN_POINT($,(-5.03579573162655,8.44530027701014,1.41650000000004));
#1150=CARTESIAN_POINT('',(-5.03579573162655,8.44530027701014,0.436500000000035));
#1151=CARTESIAN_POINT($,(-5.03579573162655,8.44530027701014,1.41650000000004));
#1152=CARTESIAN_POINT('',(-5.04559573162655,8.44530027701014,0.436500000000035));
#1153=CARTESIAN_POINT($,(-5.04921546951863,8.44530027701014,0.436500000000035));
#1154=CARTESIAN_POINT($,(-5.04559573162655,8.44530027701014,1.41650000000004));
#1155=CARTESIAN_POINT('Origin',(-5.04559573162655,8.05330027701014,1.41650000000004));
#1156=CARTESIAN_POINT('',(-5.04559573162655,8.05330027701014,1.41650000000004));
#1157=CARTESIAN_POINT($,(-5.04559573162655,8.44530027701014,1.41650000000004));
#1158=CARTESIAN_POINT('',(-5.04559573162655,8.05330027701014,0.436500000000035));
#1159=CARTESIAN_POINT($,(-5.04559573162655,8.22900345167061,0.436500000000035));
#1160=CARTESIAN_POINT($,(-5.04559573162655,8.05330027701014,1.41650000000004));
#1161=CARTESIAN_POINT('Origin',(-5.03579573162655,8.05330027701014,1.41650000000004));
#1162=CARTESIAN_POINT('',(-5.03579573162655,8.05330027701014,1.41650000000004));
#1163=CARTESIAN_POINT($,(-5.04559573162655,8.05330027701014,1.41650000000004));
#1164=CARTESIAN_POINT('',(-5.03579573162655,8.05330027701014,0.436500000000035));
#1165=CARTESIAN_POINT($,(-5.04431546951863,8.05330027701014,0.436500000000035));
#1166=CARTESIAN_POINT($,(-5.03579573162655,8.05330027701014,1.41650000000004));
#1167=CARTESIAN_POINT('Origin',(-5.03579573162655,8.44530027701014,1.41650000000004));
#1168=CARTESIAN_POINT($,(-5.03579573162655,8.05330027701014,1.41650000000004));
#1169=CARTESIAN_POINT($,(-5.03579573162655,8.42500345167061,0.436500000000035));
#1170=CARTESIAN_POINT('Origin',(-5.0528352074107,8.40470662633107,0.436500000000035));
#1171=CARTESIAN_POINT('Origin',(-5.0528352074107,8.40470662633107,1.41650000000004));
#1172=CARTESIAN_POINT('Origin',(-4.73569573162655,8.04930027701014,0.226500000000033));
#1173=CARTESIAN_POINT('',(-4.68569573162655,7.99930027701014,0.226500000000033));
#1174=CARTESIAN_POINT('',(-4.68569573162655,8.09930027701014,0.226500000000033));
#1175=CARTESIAN_POINT($,(-4.68569573162655,8.04930027701014,0.226500000000033));
#1176=CARTESIAN_POINT('',(-4.78569573162655,8.09930027701014,0.226500000000033));
#1177=CARTESIAN_POINT($,(-4.73569573162655,8.09930027701014,0.226500000000033));
#1178=CARTESIAN_POINT('',(-4.78569573162655,7.99930027701014,0.226500000000033));
#1179=CARTESIAN_POINT($,(-4.78569573162655,8.04930027701014,0.226500000000033));
#1180=CARTESIAN_POINT($,(-4.73569573162655,7.99930027701014,0.226500000000033));
#1181=CARTESIAN_POINT('Origin',(-4.73569573162655,8.04930027701014,0.126500000000033));
#1182=CARTESIAN_POINT('',(-4.68569573162655,8.09930027701014,0.126500000000033));
#1183=CARTESIAN_POINT('',(-4.68569573162655,7.99930027701014,0.126500000000033));
#1184=CARTESIAN_POINT($,(-4.68569573162655,8.04930027701014,0.126500000000033));
#1185=CARTESIAN_POINT('',(-4.78569573162655,7.99930027701014,0.126500000000033));
#1186=CARTESIAN_POINT($,(-4.73569573162655,7.99930027701014,0.126500000000033));
#1187=CARTESIAN_POINT('',(-4.78569573162655,8.09930027701014,0.126500000000033));
#1188=CARTESIAN_POINT($,(-4.78569573162655,8.04930027701014,0.126500000000033));
#1189=CARTESIAN_POINT($,(-4.73569573162655,8.09930027701014,0.126500000000033));
#1190=CARTESIAN_POINT('Origin',(-4.73569573162655,7.99930027701014,0.176500000000033));
#1191=CARTESIAN_POINT($,(-4.78569573162655,7.99930027701014,0.176500000000033));
#1192=CARTESIAN_POINT($,(-4.68569573162655,7.99930027701014,0.176500000000033));
#1193=CARTESIAN_POINT('Origin',(-4.78569573162655,8.04930027701014,0.176500000000033));
#1194=CARTESIAN_POINT($,(-4.78569573162655,8.09930027701014,0.176500000000033));
#1195=CARTESIAN_POINT('Origin',(-4.73569573162655,8.09930027701014,0.176500000000033));
#1196=CARTESIAN_POINT($,(-4.68569573162655,8.09930027701014,0.176500000000033));
#1197=CARTESIAN_POINT('Origin',(-4.68569573162655,8.04930027701014,0.176500000000033));
#1198=CARTESIAN_POINT('Origin',(-4.73569573162655,8.84930027701014,0.226500000000033));
#1199=CARTESIAN_POINT('',(-4.68569573162655,8.79930027701014,0.226500000000033));
#1200=CARTESIAN_POINT('',(-4.68569573162655,8.89930027701014,0.226500000000033));
#1201=CARTESIAN_POINT($,(-4.68569573162655,8.84930027701014,0.226500000000033));
#1202=CARTESIAN_POINT('',(-4.78569573162655,8.89930027701014,0.226500000000033));
#1203=CARTESIAN_POINT($,(-4.73569573162655,8.89930027701014,0.226500000000033));
#1204=CARTESIAN_POINT('',(-4.78569573162655,8.79930027701014,0.226500000000033));
#1205=CARTESIAN_POINT($,(-4.78569573162655,8.84930027701014,0.226500000000033));
#1206=CARTESIAN_POINT($,(-4.73569573162655,8.79930027701014,0.226500000000033));
#1207=CARTESIAN_POINT('Origin',(-4.73569573162655,8.84930027701014,0.126500000000033));
#1208=CARTESIAN_POINT('',(-4.68569573162655,8.89930027701014,0.126500000000033));
#1209=CARTESIAN_POINT('',(-4.68569573162655,8.79930027701014,0.126500000000033));
#1210=CARTESIAN_POINT($,(-4.68569573162655,8.84930027701014,0.126500000000033));
#1211=CARTESIAN_POINT('',(-4.78569573162655,8.79930027701014,0.126500000000033));
#1212=CARTESIAN_POINT($,(-4.73569573162655,8.79930027701014,0.126500000000033));
#1213=CARTESIAN_POINT('',(-4.78569573162655,8.89930027701014,0.126500000000033));
#1214=CARTESIAN_POINT($,(-4.78569573162655,8.84930027701014,0.126500000000033));
#1215=CARTESIAN_POINT($,(-4.73569573162655,8.89930027701014,0.126500000000033));
#1216=CARTESIAN_POINT('Origin',(-4.73569573162655,8.79930027701014,0.176500000000033));
#1217=CARTESIAN_POINT($,(-4.78569573162655,8.79930027701014,0.176500000000033));
#1218=CARTESIAN_POINT($,(-4.68569573162655,8.79930027701014,0.176500000000033));
#1219=CARTESIAN_POINT('Origin',(-4.78569573162655,8.84930027701014,0.176500000000033));
#1220=CARTESIAN_POINT($,(-4.78569573162655,8.89930027701014,0.176500000000033));
#1221=CARTESIAN_POINT('Origin',(-4.73569573162655,8.89930027701014,0.176500000000033));
#1222=CARTESIAN_POINT($,(-4.68569573162655,8.89930027701014,0.176500000000033));
#1223=CARTESIAN_POINT('Origin',(-4.68569573162655,8.84930027701014,0.176500000000033));
#1224=UNCERTAINTY_MEASURE_WITH_UNIT(LENGTH_MEASURE(0.001),#1226,
'DISTANCE_ACCURACY_VALUE',
'Maximum model space distance between geometric entities at asserted c
onnectivities');
#1225=(
GEOMETRIC_REPRESENTATION_CONTEXT(3)
GLOBAL_UNCERTAINTY_ASSIGNED_CONTEXT((#1224))
GLOBAL_UNIT_ASSIGNED_CONTEXT((#1226,#1228,#1227))
REPRESENTATION_CONTEXT('','3D')
);
#1226=(
LENGTH_UNIT()
NAMED_UNIT(*)
SI_UNIT(.CENTI.,.METRE.)
);
#1227=(
NAMED_UNIT(*)
SI_UNIT($,.STERADIAN.)
SOLID_ANGLE_UNIT()
);
#1228=(
NAMED_UNIT(*)
PLANE_ANGLE_UNIT()
SI_UNIT($,.RADIAN.)
);
#1229=SHAPE_DEFINITION_REPRESENTATION(#1230,#1231);
#1230=PRODUCT_DEFINITION_SHAPE('',$,#1233);
#1231=SHAPE_REPRESENTATION('',(#772),#1225);
#1232=PRODUCT_DEFINITION_CONTEXT('3D Mechanical Parts',#1236,'design');
#1233=PRODUCT_DEFINITION('cabinet 2','cabinet 2',#1234,#1232);
#1234=PRODUCT_DEFINITION_FORMATION('',$,#1238);
#1235=APPLICATION_PROTOCOL_DEFINITION('international standard',
'automotive_design',2009,#1236);
#1236=APPLICATION_CONTEXT(
'Core Data for Automotive Mechanical Design Process');
#1237=PRODUCT_CONTEXT('3D Mechanical Parts',#1236,'mechanical');
#1238=PRODUCT('cabinet 2','cabinet 2',$,(#1237));
#1239=PRESENTATION_STYLE_ASSIGNMENT((#1241));
#1240=PRESENTATION_STYLE_ASSIGNMENT((#1242));
#1241=SURFACE_STYLE_USAGE(.BOTH.,#1243);
#1242=SURFACE_STYLE_USAGE(.BOTH.,#1244);
#1243=SURFACE_SIDE_STYLE($,(#1245));
#1244=SURFACE_SIDE_STYLE($,(#1246));
#1245=SURFACE_STYLE_FILL_AREA(#1247);
#1246=SURFACE_STYLE_FILL_AREA(#1248);
#1247=FILL_AREA_STYLE($,(#1249));
#1248=FILL_AREA_STYLE($,(#1250));
#1249=FILL_AREA_STYLE_COLOUR($,#1251);
#1250=FILL_AREA_STYLE_COLOUR($,#1252);
#1251=COLOUR_RGB('__RGBA_0.552941_0.678431_0.709804',0.552941176470588,
0.67843137254902,0.709803921568627);
#1252=COLOUR_RGB('__RGBA_0.168627_0.282353_0.34902',0.168627450980392,0.282352941176471,
0.349019607843137);
ENDSEC;
END-ISO-10303-21;
